<?xml version="1.0" encoding="utf-8" standalone="no"?>
<!DOCTYPE svg PUBLIC "-//W3C//DTD SVG 1.1//EN"
  "http://www.w3.org/Graphics/SVG/1.1/DTD/svg11.dtd">
<svg xmlns:xlink="http://www.w3.org/1999/xlink" width="460.8pt" height="345.6pt" viewBox="0 0 460.8 345.6" xmlns="http://www.w3.org/2000/svg" version="1.1">
 <metadata>
  <rdf:RDF xmlns:dc="http://purl.org/dc/elements/1.1/" xmlns:cc="http://creativecommons.org/ns#" xmlns:rdf="http://www.w3.org/1999/02/22-rdf-syntax-ns#">
   <cc:Work>
    <dc:type rdf:resource="http://purl.org/dc/dcmitype/StillImage"/>
    <dc:date>2023-04-19T07:44:37.340189</dc:date>
    <dc:format>image/svg+xml</dc:format>
    <dc:creator>
     <cc:Agent>
      <dc:title>Matplotlib v3.6.2, https://matplotlib.org/</dc:title>
     </cc:Agent>
    </dc:creator>
   </cc:Work>
  </rdf:RDF>
 </metadata>
 <defs>
  <style type="text/css">*{stroke-linejoin: round; stroke-linecap: butt}</style>
 </defs>
 <g id="figure_1">
  <g id="patch_1">
   <path d="M 0 345.6 
L 460.8 345.6 
L 460.8 0 
L 0 0 
z
" style="fill: #ffffff"/>
  </g>
  <g id="axes_1">
   <g id="patch_2">
    <path d="M 57.6 307.584 
L 414.72 307.584 
L 414.72 41.472 
L 57.6 41.472 
z
" style="fill: #ffffff"/>
   </g>
   <g id="matplotlib.axis_1">
    <g id="xtick_1">
     <g id="line2d_1">
      <defs>
       <path id="m7e2ca7933d" d="M 0 0 
L 0 3.5 
" style="stroke: #000000; stroke-width: 0.8"/>
      </defs>
      <g>
       <use xlink:href="#m7e2ca7933d" x="57.6" y="307.584" style="stroke: #000000; stroke-width: 0.8"/>
      </g>
     </g>
     <g id="text_1">
      <!-- 0 -->
      <g transform="translate(54.41875 322.182437) scale(0.1 -0.1)">
       <defs>
        <path id="DejaVuSans-30" d="M 2034 4250 
Q 1547 4250 1301 3770 
Q 1056 3291 1056 2328 
Q 1056 1369 1301 889 
Q 1547 409 2034 409 
Q 2525 409 2770 889 
Q 3016 1369 3016 2328 
Q 3016 3291 2770 3770 
Q 2525 4250 2034 4250 
z
M 2034 4750 
Q 2819 4750 3233 4129 
Q 3647 3509 3647 2328 
Q 3647 1150 3233 529 
Q 2819 -91 2034 -91 
Q 1250 -91 836 529 
Q 422 1150 422 2328 
Q 422 3509 836 4129 
Q 1250 4750 2034 4750 
z
" transform="scale(0.015625)"/>
       </defs>
       <use xlink:href="#DejaVuSans-30"/>
      </g>
     </g>
    </g>
    <g id="xtick_2">
     <g id="line2d_2">
      <g>
       <use xlink:href="#m7e2ca7933d" x="117.12" y="307.584" style="stroke: #000000; stroke-width: 0.8"/>
      </g>
     </g>
     <g id="text_2">
      <!-- 100 -->
      <g transform="translate(107.57625 322.182437) scale(0.1 -0.1)">
       <defs>
        <path id="DejaVuSans-31" d="M 794 531 
L 1825 531 
L 1825 4091 
L 703 3866 
L 703 4441 
L 1819 4666 
L 2450 4666 
L 2450 531 
L 3481 531 
L 3481 0 
L 794 0 
L 794 531 
z
" transform="scale(0.015625)"/>
       </defs>
       <use xlink:href="#DejaVuSans-31"/>
       <use xlink:href="#DejaVuSans-30" x="63.623047"/>
       <use xlink:href="#DejaVuSans-30" x="127.246094"/>
      </g>
     </g>
    </g>
    <g id="xtick_3">
     <g id="line2d_3">
      <g>
       <use xlink:href="#m7e2ca7933d" x="176.64" y="307.584" style="stroke: #000000; stroke-width: 0.8"/>
      </g>
     </g>
     <g id="text_3">
      <!-- 200 -->
      <g transform="translate(167.09625 322.182437) scale(0.1 -0.1)">
       <defs>
        <path id="DejaVuSans-32" d="M 1228 531 
L 3431 531 
L 3431 0 
L 469 0 
L 469 531 
Q 828 903 1448 1529 
Q 2069 2156 2228 2338 
Q 2531 2678 2651 2914 
Q 2772 3150 2772 3378 
Q 2772 3750 2511 3984 
Q 2250 4219 1831 4219 
Q 1534 4219 1204 4116 
Q 875 4013 500 3803 
L 500 4441 
Q 881 4594 1212 4672 
Q 1544 4750 1819 4750 
Q 2544 4750 2975 4387 
Q 3406 4025 3406 3419 
Q 3406 3131 3298 2873 
Q 3191 2616 2906 2266 
Q 2828 2175 2409 1742 
Q 1991 1309 1228 531 
z
" transform="scale(0.015625)"/>
       </defs>
       <use xlink:href="#DejaVuSans-32"/>
       <use xlink:href="#DejaVuSans-30" x="63.623047"/>
       <use xlink:href="#DejaVuSans-30" x="127.246094"/>
      </g>
     </g>
    </g>
    <g id="xtick_4">
     <g id="line2d_4">
      <g>
       <use xlink:href="#m7e2ca7933d" x="236.16" y="307.584" style="stroke: #000000; stroke-width: 0.8"/>
      </g>
     </g>
     <g id="text_4">
      <!-- 300 -->
      <g transform="translate(226.61625 322.182437) scale(0.1 -0.1)">
       <defs>
        <path id="DejaVuSans-33" d="M 2597 2516 
Q 3050 2419 3304 2112 
Q 3559 1806 3559 1356 
Q 3559 666 3084 287 
Q 2609 -91 1734 -91 
Q 1441 -91 1130 -33 
Q 819 25 488 141 
L 488 750 
Q 750 597 1062 519 
Q 1375 441 1716 441 
Q 2309 441 2620 675 
Q 2931 909 2931 1356 
Q 2931 1769 2642 2001 
Q 2353 2234 1838 2234 
L 1294 2234 
L 1294 2753 
L 1863 2753 
Q 2328 2753 2575 2939 
Q 2822 3125 2822 3475 
Q 2822 3834 2567 4026 
Q 2313 4219 1838 4219 
Q 1578 4219 1281 4162 
Q 984 4106 628 3988 
L 628 4550 
Q 988 4650 1302 4700 
Q 1616 4750 1894 4750 
Q 2613 4750 3031 4423 
Q 3450 4097 3450 3541 
Q 3450 3153 3228 2886 
Q 3006 2619 2597 2516 
z
" transform="scale(0.015625)"/>
       </defs>
       <use xlink:href="#DejaVuSans-33"/>
       <use xlink:href="#DejaVuSans-30" x="63.623047"/>
       <use xlink:href="#DejaVuSans-30" x="127.246094"/>
      </g>
     </g>
    </g>
    <g id="xtick_5">
     <g id="line2d_5">
      <g>
       <use xlink:href="#m7e2ca7933d" x="295.68" y="307.584" style="stroke: #000000; stroke-width: 0.8"/>
      </g>
     </g>
     <g id="text_5">
      <!-- 400 -->
      <g transform="translate(286.13625 322.182437) scale(0.1 -0.1)">
       <defs>
        <path id="DejaVuSans-34" d="M 2419 4116 
L 825 1625 
L 2419 1625 
L 2419 4116 
z
M 2253 4666 
L 3047 4666 
L 3047 1625 
L 3713 1625 
L 3713 1100 
L 3047 1100 
L 3047 0 
L 2419 0 
L 2419 1100 
L 313 1100 
L 313 1709 
L 2253 4666 
z
" transform="scale(0.015625)"/>
       </defs>
       <use xlink:href="#DejaVuSans-34"/>
       <use xlink:href="#DejaVuSans-30" x="63.623047"/>
       <use xlink:href="#DejaVuSans-30" x="127.246094"/>
      </g>
     </g>
    </g>
    <g id="xtick_6">
     <g id="line2d_6">
      <g>
       <use xlink:href="#m7e2ca7933d" x="355.2" y="307.584" style="stroke: #000000; stroke-width: 0.8"/>
      </g>
     </g>
     <g id="text_6">
      <!-- 500 -->
      <g transform="translate(345.65625 322.182437) scale(0.1 -0.1)">
       <defs>
        <path id="DejaVuSans-35" d="M 691 4666 
L 3169 4666 
L 3169 4134 
L 1269 4134 
L 1269 2991 
Q 1406 3038 1543 3061 
Q 1681 3084 1819 3084 
Q 2600 3084 3056 2656 
Q 3513 2228 3513 1497 
Q 3513 744 3044 326 
Q 2575 -91 1722 -91 
Q 1428 -91 1123 -41 
Q 819 9 494 109 
L 494 744 
Q 775 591 1075 516 
Q 1375 441 1709 441 
Q 2250 441 2565 725 
Q 2881 1009 2881 1497 
Q 2881 1984 2565 2268 
Q 2250 2553 1709 2553 
Q 1456 2553 1204 2497 
Q 953 2441 691 2322 
L 691 4666 
z
" transform="scale(0.015625)"/>
       </defs>
       <use xlink:href="#DejaVuSans-35"/>
       <use xlink:href="#DejaVuSans-30" x="63.623047"/>
       <use xlink:href="#DejaVuSans-30" x="127.246094"/>
      </g>
     </g>
    </g>
    <g id="xtick_7">
     <g id="line2d_7">
      <g>
       <use xlink:href="#m7e2ca7933d" x="414.72" y="307.584" style="stroke: #000000; stroke-width: 0.8"/>
      </g>
     </g>
     <g id="text_7">
      <!-- 600 -->
      <g transform="translate(405.17625 322.182437) scale(0.1 -0.1)">
       <defs>
        <path id="DejaVuSans-36" d="M 2113 2584 
Q 1688 2584 1439 2293 
Q 1191 2003 1191 1497 
Q 1191 994 1439 701 
Q 1688 409 2113 409 
Q 2538 409 2786 701 
Q 3034 994 3034 1497 
Q 3034 2003 2786 2293 
Q 2538 2584 2113 2584 
z
M 3366 4563 
L 3366 3988 
Q 3128 4100 2886 4159 
Q 2644 4219 2406 4219 
Q 1781 4219 1451 3797 
Q 1122 3375 1075 2522 
Q 1259 2794 1537 2939 
Q 1816 3084 2150 3084 
Q 2853 3084 3261 2657 
Q 3669 2231 3669 1497 
Q 3669 778 3244 343 
Q 2819 -91 2113 -91 
Q 1303 -91 875 529 
Q 447 1150 447 2328 
Q 447 3434 972 4092 
Q 1497 4750 2381 4750 
Q 2619 4750 2861 4703 
Q 3103 4656 3366 4563 
z
" transform="scale(0.015625)"/>
       </defs>
       <use xlink:href="#DejaVuSans-36"/>
       <use xlink:href="#DejaVuSans-30" x="63.623047"/>
       <use xlink:href="#DejaVuSans-30" x="127.246094"/>
      </g>
     </g>
    </g>
    <g id="text_8">
     <!-- Run time in seconds -->
     <g transform="translate(185.514687 335.860562) scale(0.1 -0.1)">
      <defs>
       <path id="DejaVuSans-52" d="M 2841 2188 
Q 3044 2119 3236 1894 
Q 3428 1669 3622 1275 
L 4263 0 
L 3584 0 
L 2988 1197 
Q 2756 1666 2539 1819 
Q 2322 1972 1947 1972 
L 1259 1972 
L 1259 0 
L 628 0 
L 628 4666 
L 2053 4666 
Q 2853 4666 3247 4331 
Q 3641 3997 3641 3322 
Q 3641 2881 3436 2590 
Q 3231 2300 2841 2188 
z
M 1259 4147 
L 1259 2491 
L 2053 2491 
Q 2509 2491 2742 2702 
Q 2975 2913 2975 3322 
Q 2975 3731 2742 3939 
Q 2509 4147 2053 4147 
L 1259 4147 
z
" transform="scale(0.015625)"/>
       <path id="DejaVuSans-75" d="M 544 1381 
L 544 3500 
L 1119 3500 
L 1119 1403 
Q 1119 906 1312 657 
Q 1506 409 1894 409 
Q 2359 409 2629 706 
Q 2900 1003 2900 1516 
L 2900 3500 
L 3475 3500 
L 3475 0 
L 2900 0 
L 2900 538 
Q 2691 219 2414 64 
Q 2138 -91 1772 -91 
Q 1169 -91 856 284 
Q 544 659 544 1381 
z
M 1991 3584 
L 1991 3584 
z
" transform="scale(0.015625)"/>
       <path id="DejaVuSans-6e" d="M 3513 2113 
L 3513 0 
L 2938 0 
L 2938 2094 
Q 2938 2591 2744 2837 
Q 2550 3084 2163 3084 
Q 1697 3084 1428 2787 
Q 1159 2491 1159 1978 
L 1159 0 
L 581 0 
L 581 3500 
L 1159 3500 
L 1159 2956 
Q 1366 3272 1645 3428 
Q 1925 3584 2291 3584 
Q 2894 3584 3203 3211 
Q 3513 2838 3513 2113 
z
" transform="scale(0.015625)"/>
       <path id="DejaVuSans-20" transform="scale(0.015625)"/>
       <path id="DejaVuSans-74" d="M 1172 4494 
L 1172 3500 
L 2356 3500 
L 2356 3053 
L 1172 3053 
L 1172 1153 
Q 1172 725 1289 603 
Q 1406 481 1766 481 
L 2356 481 
L 2356 0 
L 1766 0 
Q 1100 0 847 248 
Q 594 497 594 1153 
L 594 3053 
L 172 3053 
L 172 3500 
L 594 3500 
L 594 4494 
L 1172 4494 
z
" transform="scale(0.015625)"/>
       <path id="DejaVuSans-69" d="M 603 3500 
L 1178 3500 
L 1178 0 
L 603 0 
L 603 3500 
z
M 603 4863 
L 1178 4863 
L 1178 4134 
L 603 4134 
L 603 4863 
z
" transform="scale(0.015625)"/>
       <path id="DejaVuSans-6d" d="M 3328 2828 
Q 3544 3216 3844 3400 
Q 4144 3584 4550 3584 
Q 5097 3584 5394 3201 
Q 5691 2819 5691 2113 
L 5691 0 
L 5113 0 
L 5113 2094 
Q 5113 2597 4934 2840 
Q 4756 3084 4391 3084 
Q 3944 3084 3684 2787 
Q 3425 2491 3425 1978 
L 3425 0 
L 2847 0 
L 2847 2094 
Q 2847 2600 2669 2842 
Q 2491 3084 2119 3084 
Q 1678 3084 1418 2786 
Q 1159 2488 1159 1978 
L 1159 0 
L 581 0 
L 581 3500 
L 1159 3500 
L 1159 2956 
Q 1356 3278 1631 3431 
Q 1906 3584 2284 3584 
Q 2666 3584 2933 3390 
Q 3200 3197 3328 2828 
z
" transform="scale(0.015625)"/>
       <path id="DejaVuSans-65" d="M 3597 1894 
L 3597 1613 
L 953 1613 
Q 991 1019 1311 708 
Q 1631 397 2203 397 
Q 2534 397 2845 478 
Q 3156 559 3463 722 
L 3463 178 
Q 3153 47 2828 -22 
Q 2503 -91 2169 -91 
Q 1331 -91 842 396 
Q 353 884 353 1716 
Q 353 2575 817 3079 
Q 1281 3584 2069 3584 
Q 2775 3584 3186 3129 
Q 3597 2675 3597 1894 
z
M 3022 2063 
Q 3016 2534 2758 2815 
Q 2500 3097 2075 3097 
Q 1594 3097 1305 2825 
Q 1016 2553 972 2059 
L 3022 2063 
z
" transform="scale(0.015625)"/>
       <path id="DejaVuSans-73" d="M 2834 3397 
L 2834 2853 
Q 2591 2978 2328 3040 
Q 2066 3103 1784 3103 
Q 1356 3103 1142 2972 
Q 928 2841 928 2578 
Q 928 2378 1081 2264 
Q 1234 2150 1697 2047 
L 1894 2003 
Q 2506 1872 2764 1633 
Q 3022 1394 3022 966 
Q 3022 478 2636 193 
Q 2250 -91 1575 -91 
Q 1294 -91 989 -36 
Q 684 19 347 128 
L 347 722 
Q 666 556 975 473 
Q 1284 391 1588 391 
Q 1994 391 2212 530 
Q 2431 669 2431 922 
Q 2431 1156 2273 1281 
Q 2116 1406 1581 1522 
L 1381 1569 
Q 847 1681 609 1914 
Q 372 2147 372 2553 
Q 372 3047 722 3315 
Q 1072 3584 1716 3584 
Q 2034 3584 2315 3537 
Q 2597 3491 2834 3397 
z
" transform="scale(0.015625)"/>
       <path id="DejaVuSans-63" d="M 3122 3366 
L 3122 2828 
Q 2878 2963 2633 3030 
Q 2388 3097 2138 3097 
Q 1578 3097 1268 2742 
Q 959 2388 959 1747 
Q 959 1106 1268 751 
Q 1578 397 2138 397 
Q 2388 397 2633 464 
Q 2878 531 3122 666 
L 3122 134 
Q 2881 22 2623 -34 
Q 2366 -91 2075 -91 
Q 1284 -91 818 406 
Q 353 903 353 1747 
Q 353 2603 823 3093 
Q 1294 3584 2113 3584 
Q 2378 3584 2631 3529 
Q 2884 3475 3122 3366 
z
" transform="scale(0.015625)"/>
       <path id="DejaVuSans-6f" d="M 1959 3097 
Q 1497 3097 1228 2736 
Q 959 2375 959 1747 
Q 959 1119 1226 758 
Q 1494 397 1959 397 
Q 2419 397 2687 759 
Q 2956 1122 2956 1747 
Q 2956 2369 2687 2733 
Q 2419 3097 1959 3097 
z
M 1959 3584 
Q 2709 3584 3137 3096 
Q 3566 2609 3566 1747 
Q 3566 888 3137 398 
Q 2709 -91 1959 -91 
Q 1206 -91 779 398 
Q 353 888 353 1747 
Q 353 2609 779 3096 
Q 1206 3584 1959 3584 
z
" transform="scale(0.015625)"/>
       <path id="DejaVuSans-64" d="M 2906 2969 
L 2906 4863 
L 3481 4863 
L 3481 0 
L 2906 0 
L 2906 525 
Q 2725 213 2448 61 
Q 2172 -91 1784 -91 
Q 1150 -91 751 415 
Q 353 922 353 1747 
Q 353 2572 751 3078 
Q 1150 3584 1784 3584 
Q 2172 3584 2448 3432 
Q 2725 3281 2906 2969 
z
M 947 1747 
Q 947 1113 1208 752 
Q 1469 391 1925 391 
Q 2381 391 2643 752 
Q 2906 1113 2906 1747 
Q 2906 2381 2643 2742 
Q 2381 3103 1925 3103 
Q 1469 3103 1208 2742 
Q 947 2381 947 1747 
z
" transform="scale(0.015625)"/>
      </defs>
      <use xlink:href="#DejaVuSans-52"/>
      <use xlink:href="#DejaVuSans-75" x="64.982422"/>
      <use xlink:href="#DejaVuSans-6e" x="128.361328"/>
      <use xlink:href="#DejaVuSans-20" x="191.740234"/>
      <use xlink:href="#DejaVuSans-74" x="223.527344"/>
      <use xlink:href="#DejaVuSans-69" x="262.736328"/>
      <use xlink:href="#DejaVuSans-6d" x="290.519531"/>
      <use xlink:href="#DejaVuSans-65" x="387.931641"/>
      <use xlink:href="#DejaVuSans-20" x="449.455078"/>
      <use xlink:href="#DejaVuSans-69" x="481.242188"/>
      <use xlink:href="#DejaVuSans-6e" x="509.025391"/>
      <use xlink:href="#DejaVuSans-20" x="572.404297"/>
      <use xlink:href="#DejaVuSans-73" x="604.191406"/>
      <use xlink:href="#DejaVuSans-65" x="656.291016"/>
      <use xlink:href="#DejaVuSans-63" x="717.814453"/>
      <use xlink:href="#DejaVuSans-6f" x="772.794922"/>
      <use xlink:href="#DejaVuSans-6e" x="833.976562"/>
      <use xlink:href="#DejaVuSans-64" x="897.355469"/>
      <use xlink:href="#DejaVuSans-73" x="960.832031"/>
     </g>
    </g>
   </g>
   <g id="matplotlib.axis_2">
    <g id="ytick_1">
     <g id="line2d_8">
      <defs>
       <path id="meaee868962" d="M 0 0 
L -3.5 0 
" style="stroke: #000000; stroke-width: 0.8"/>
      </defs>
      <g>
       <use xlink:href="#meaee868962" x="57.6" y="295.488" style="stroke: #000000; stroke-width: 0.8"/>
      </g>
     </g>
     <g id="text_9">
      <!-- 0 -->
      <g transform="translate(44.2375 299.287219) scale(0.1 -0.1)">
       <use xlink:href="#DejaVuSans-30"/>
      </g>
     </g>
    </g>
    <g id="ytick_2">
     <g id="line2d_9">
      <g>
       <use xlink:href="#meaee868962" x="57.6" y="264.551939" style="stroke: #000000; stroke-width: 0.8"/>
      </g>
     </g>
     <g id="text_10">
      <!-- 200 -->
      <g transform="translate(31.5125 268.351157) scale(0.1 -0.1)">
       <use xlink:href="#DejaVuSans-32"/>
       <use xlink:href="#DejaVuSans-30" x="63.623047"/>
       <use xlink:href="#DejaVuSans-30" x="127.246094"/>
      </g>
     </g>
    </g>
    <g id="ytick_3">
     <g id="line2d_10">
      <g>
       <use xlink:href="#meaee868962" x="57.6" y="233.615877" style="stroke: #000000; stroke-width: 0.8"/>
      </g>
     </g>
     <g id="text_11">
      <!-- 400 -->
      <g transform="translate(31.5125 237.415096) scale(0.1 -0.1)">
       <use xlink:href="#DejaVuSans-34"/>
       <use xlink:href="#DejaVuSans-30" x="63.623047"/>
       <use xlink:href="#DejaVuSans-30" x="127.246094"/>
      </g>
     </g>
    </g>
    <g id="ytick_4">
     <g id="line2d_11">
      <g>
       <use xlink:href="#meaee868962" x="57.6" y="202.679816" style="stroke: #000000; stroke-width: 0.8"/>
      </g>
     </g>
     <g id="text_12">
      <!-- 600 -->
      <g transform="translate(31.5125 206.479035) scale(0.1 -0.1)">
       <use xlink:href="#DejaVuSans-36"/>
       <use xlink:href="#DejaVuSans-30" x="63.623047"/>
       <use xlink:href="#DejaVuSans-30" x="127.246094"/>
      </g>
     </g>
    </g>
    <g id="ytick_5">
     <g id="line2d_12">
      <g>
       <use xlink:href="#meaee868962" x="57.6" y="171.743754" style="stroke: #000000; stroke-width: 0.8"/>
      </g>
     </g>
     <g id="text_13">
      <!-- 800 -->
      <g transform="translate(31.5125 175.542973) scale(0.1 -0.1)">
       <defs>
        <path id="DejaVuSans-38" d="M 2034 2216 
Q 1584 2216 1326 1975 
Q 1069 1734 1069 1313 
Q 1069 891 1326 650 
Q 1584 409 2034 409 
Q 2484 409 2743 651 
Q 3003 894 3003 1313 
Q 3003 1734 2745 1975 
Q 2488 2216 2034 2216 
z
M 1403 2484 
Q 997 2584 770 2862 
Q 544 3141 544 3541 
Q 544 4100 942 4425 
Q 1341 4750 2034 4750 
Q 2731 4750 3128 4425 
Q 3525 4100 3525 3541 
Q 3525 3141 3298 2862 
Q 3072 2584 2669 2484 
Q 3125 2378 3379 2068 
Q 3634 1759 3634 1313 
Q 3634 634 3220 271 
Q 2806 -91 2034 -91 
Q 1263 -91 848 271 
Q 434 634 434 1313 
Q 434 1759 690 2068 
Q 947 2378 1403 2484 
z
M 1172 3481 
Q 1172 3119 1398 2916 
Q 1625 2713 2034 2713 
Q 2441 2713 2670 2916 
Q 2900 3119 2900 3481 
Q 2900 3844 2670 4047 
Q 2441 4250 2034 4250 
Q 1625 4250 1398 4047 
Q 1172 3844 1172 3481 
z
" transform="scale(0.015625)"/>
       </defs>
       <use xlink:href="#DejaVuSans-38"/>
       <use xlink:href="#DejaVuSans-30" x="63.623047"/>
       <use xlink:href="#DejaVuSans-30" x="127.246094"/>
      </g>
     </g>
    </g>
    <g id="ytick_6">
     <g id="line2d_13">
      <g>
       <use xlink:href="#meaee868962" x="57.6" y="140.807693" style="stroke: #000000; stroke-width: 0.8"/>
      </g>
     </g>
     <g id="text_14">
      <!-- 1000 -->
      <g transform="translate(25.15 144.606912) scale(0.1 -0.1)">
       <use xlink:href="#DejaVuSans-31"/>
       <use xlink:href="#DejaVuSans-30" x="63.623047"/>
       <use xlink:href="#DejaVuSans-30" x="127.246094"/>
       <use xlink:href="#DejaVuSans-30" x="190.869141"/>
      </g>
     </g>
    </g>
    <g id="ytick_7">
     <g id="line2d_14">
      <g>
       <use xlink:href="#meaee868962" x="57.6" y="109.871632" style="stroke: #000000; stroke-width: 0.8"/>
      </g>
     </g>
     <g id="text_15">
      <!-- 1200 -->
      <g transform="translate(25.15 113.67085) scale(0.1 -0.1)">
       <use xlink:href="#DejaVuSans-31"/>
       <use xlink:href="#DejaVuSans-32" x="63.623047"/>
       <use xlink:href="#DejaVuSans-30" x="127.246094"/>
       <use xlink:href="#DejaVuSans-30" x="190.869141"/>
      </g>
     </g>
    </g>
    <g id="ytick_8">
     <g id="line2d_15">
      <g>
       <use xlink:href="#meaee868962" x="57.6" y="78.93557" style="stroke: #000000; stroke-width: 0.8"/>
      </g>
     </g>
     <g id="text_16">
      <!-- 1400 -->
      <g transform="translate(25.15 82.734789) scale(0.1 -0.1)">
       <use xlink:href="#DejaVuSans-31"/>
       <use xlink:href="#DejaVuSans-34" x="63.623047"/>
       <use xlink:href="#DejaVuSans-30" x="127.246094"/>
       <use xlink:href="#DejaVuSans-30" x="190.869141"/>
      </g>
     </g>
    </g>
    <g id="ytick_9">
     <g id="line2d_16">
      <g>
       <use xlink:href="#meaee868962" x="57.6" y="47.999509" style="stroke: #000000; stroke-width: 0.8"/>
      </g>
     </g>
     <g id="text_17">
      <!-- 1600 -->
      <g transform="translate(25.15 51.798728) scale(0.1 -0.1)">
       <use xlink:href="#DejaVuSans-31"/>
       <use xlink:href="#DejaVuSans-36" x="63.623047"/>
       <use xlink:href="#DejaVuSans-30" x="127.246094"/>
       <use xlink:href="#DejaVuSans-30" x="190.869141"/>
      </g>
     </g>
    </g>
    <g id="text_18">
     <!-- Number of solved instance -->
     <g transform="translate(19.070312 241.645187) rotate(-90) scale(0.1 -0.1)">
      <defs>
       <path id="DejaVuSans-4e" d="M 628 4666 
L 1478 4666 
L 3547 763 
L 3547 4666 
L 4159 4666 
L 4159 0 
L 3309 0 
L 1241 3903 
L 1241 0 
L 628 0 
L 628 4666 
z
" transform="scale(0.015625)"/>
       <path id="DejaVuSans-62" d="M 3116 1747 
Q 3116 2381 2855 2742 
Q 2594 3103 2138 3103 
Q 1681 3103 1420 2742 
Q 1159 2381 1159 1747 
Q 1159 1113 1420 752 
Q 1681 391 2138 391 
Q 2594 391 2855 752 
Q 3116 1113 3116 1747 
z
M 1159 2969 
Q 1341 3281 1617 3432 
Q 1894 3584 2278 3584 
Q 2916 3584 3314 3078 
Q 3713 2572 3713 1747 
Q 3713 922 3314 415 
Q 2916 -91 2278 -91 
Q 1894 -91 1617 61 
Q 1341 213 1159 525 
L 1159 0 
L 581 0 
L 581 4863 
L 1159 4863 
L 1159 2969 
z
" transform="scale(0.015625)"/>
       <path id="DejaVuSans-72" d="M 2631 2963 
Q 2534 3019 2420 3045 
Q 2306 3072 2169 3072 
Q 1681 3072 1420 2755 
Q 1159 2438 1159 1844 
L 1159 0 
L 581 0 
L 581 3500 
L 1159 3500 
L 1159 2956 
Q 1341 3275 1631 3429 
Q 1922 3584 2338 3584 
Q 2397 3584 2469 3576 
Q 2541 3569 2628 3553 
L 2631 2963 
z
" transform="scale(0.015625)"/>
       <path id="DejaVuSans-66" d="M 2375 4863 
L 2375 4384 
L 1825 4384 
Q 1516 4384 1395 4259 
Q 1275 4134 1275 3809 
L 1275 3500 
L 2222 3500 
L 2222 3053 
L 1275 3053 
L 1275 0 
L 697 0 
L 697 3053 
L 147 3053 
L 147 3500 
L 697 3500 
L 697 3744 
Q 697 4328 969 4595 
Q 1241 4863 1831 4863 
L 2375 4863 
z
" transform="scale(0.015625)"/>
       <path id="DejaVuSans-6c" d="M 603 4863 
L 1178 4863 
L 1178 0 
L 603 0 
L 603 4863 
z
" transform="scale(0.015625)"/>
       <path id="DejaVuSans-76" d="M 191 3500 
L 800 3500 
L 1894 563 
L 2988 3500 
L 3597 3500 
L 2284 0 
L 1503 0 
L 191 3500 
z
" transform="scale(0.015625)"/>
       <path id="DejaVuSans-61" d="M 2194 1759 
Q 1497 1759 1228 1600 
Q 959 1441 959 1056 
Q 959 750 1161 570 
Q 1363 391 1709 391 
Q 2188 391 2477 730 
Q 2766 1069 2766 1631 
L 2766 1759 
L 2194 1759 
z
M 3341 1997 
L 3341 0 
L 2766 0 
L 2766 531 
Q 2569 213 2275 61 
Q 1981 -91 1556 -91 
Q 1019 -91 701 211 
Q 384 513 384 1019 
Q 384 1609 779 1909 
Q 1175 2209 1959 2209 
L 2766 2209 
L 2766 2266 
Q 2766 2663 2505 2880 
Q 2244 3097 1772 3097 
Q 1472 3097 1187 3025 
Q 903 2953 641 2809 
L 641 3341 
Q 956 3463 1253 3523 
Q 1550 3584 1831 3584 
Q 2591 3584 2966 3190 
Q 3341 2797 3341 1997 
z
" transform="scale(0.015625)"/>
      </defs>
      <use xlink:href="#DejaVuSans-4e"/>
      <use xlink:href="#DejaVuSans-75" x="74.804688"/>
      <use xlink:href="#DejaVuSans-6d" x="138.183594"/>
      <use xlink:href="#DejaVuSans-62" x="235.595703"/>
      <use xlink:href="#DejaVuSans-65" x="299.072266"/>
      <use xlink:href="#DejaVuSans-72" x="360.595703"/>
      <use xlink:href="#DejaVuSans-20" x="401.708984"/>
      <use xlink:href="#DejaVuSans-6f" x="433.496094"/>
      <use xlink:href="#DejaVuSans-66" x="494.677734"/>
      <use xlink:href="#DejaVuSans-20" x="529.882812"/>
      <use xlink:href="#DejaVuSans-73" x="561.669922"/>
      <use xlink:href="#DejaVuSans-6f" x="613.769531"/>
      <use xlink:href="#DejaVuSans-6c" x="674.951172"/>
      <use xlink:href="#DejaVuSans-76" x="702.734375"/>
      <use xlink:href="#DejaVuSans-65" x="761.914062"/>
      <use xlink:href="#DejaVuSans-64" x="823.4375"/>
      <use xlink:href="#DejaVuSans-20" x="886.914062"/>
      <use xlink:href="#DejaVuSans-69" x="918.701172"/>
      <use xlink:href="#DejaVuSans-6e" x="946.484375"/>
      <use xlink:href="#DejaVuSans-73" x="1009.863281"/>
      <use xlink:href="#DejaVuSans-74" x="1061.962891"/>
      <use xlink:href="#DejaVuSans-61" x="1101.171875"/>
      <use xlink:href="#DejaVuSans-6e" x="1162.451172"/>
      <use xlink:href="#DejaVuSans-63" x="1225.830078"/>
      <use xlink:href="#DejaVuSans-65" x="1280.810547"/>
     </g>
    </g>
   </g>
   <g id="line2d_17">
    <path d="M 57.6 295.488 
L 58.1952 232.997156 
L 58.7904 226.345903 
L 59.3856 196.956645 
L 59.9808 181.488614 
L 60.576 179.941811 
L 61.1712 179.63245 
L 62.3616 176.693524 
L 63.552 176.384164 
L 64.1472 176.074803 
L 67.1232 176.074803 
L 67.7184 175.765442 
L 139.1424 175.765442 
L 139.7376 175.610762 
L 243.8976 175.610762 
L 244.4928 175.456082 
L 244.4928 175.456082 
" clip-path="url(#pe64d06a2ff)" style="fill: none; stroke-dasharray: 1.5,2.475; stroke-dashoffset: 0; stroke: #008000; stroke-width: 1.5"/>
   </g>
   <g id="line2d_18">
    <path d="M 57.6 295.488 
L 58.1952 228.975468 
L 58.7904 190.305391 
L 59.3856 174.992041 
L 59.9808 172.981197 
L 60.576 172.671836 
L 61.1712 172.362476 
L 61.7664 172.053115 
L 62.3616 172.053115 
L 62.9568 172.053115 
L 63.552 171.898435 
L 64.1472 171.743754 
" clip-path="url(#pe64d06a2ff)" style="fill: none; stroke-dasharray: 1.5,2.475; stroke-dashoffset: 0; stroke: #ff0000; stroke-width: 1.5"/>
   </g>
   <g id="line2d_19">
    <path d="M 57.6 295.488 
L 58.1952 260.839611 
L 58.7904 258.674087 
L 59.3856 255.27112 
L 60.576 252.950916 
L 61.1712 251.404113 
L 61.7664 251.094752 
L 62.3616 249.857309 
L 62.9568 249.393269 
L 63.552 249.393269 
L 64.1472 248.929228 
L 64.7424 248.929228 
L 65.3376 248.619867 
L 65.9328 248.619867 
L 66.528 248.465187 
L 67.1232 248.001146 
L 67.7184 247.846465 
L 69.504 247.846465 
L 71.2896 246.918384 
L 71.8848 246.763703 
L 73.0752 246.763703 
L 73.6704 246.609023 
L 74.2656 246.299662 
L 74.8608 246.299662 
L 75.456 246.144982 
L 76.6464 246.144982 
L 77.2416 245.680941 
L 77.8368 245.680941 
L 78.432 245.526261 
L 79.6224 245.526261 
L 80.2176 245.371581 
L 80.8128 245.371581 
L 82.0032 245.06222 
L 82.5984 245.06222 
L 83.1936 244.90754 
L 84.384 244.90754 
L 84.9792 244.752859 
L 85.5744 244.752859 
L 86.1696 244.598179 
L 86.7648 244.598179 
L 87.36 244.288818 
L 92.1216 244.288818 
L 92.7168 243.979458 
L 93.312 243.824777 
L 94.5024 243.824777 
L 95.0976 243.515417 
L 95.6928 243.515417 
L 96.288 243.360737 
L 98.6688 243.360737 
L 99.264 243.206056 
L 99.8592 243.206056 
L 100.4544 243.051376 
L 102.24 243.051376 
L 103.4304 242.742015 
L 113.5488 242.742015 
L 114.144 242.587335 
L 115.3344 242.587335 
L 115.9296 242.432655 
L 117.12 242.432655 
L 118.3104 242.123294 
L 118.9056 242.123294 
L 119.5008 241.968614 
L 123.072 241.968614 
L 124.2624 241.659253 
L 126.048 241.659253 
L 126.6432 241.504573 
L 127.8336 241.504573 
L 128.4288 241.349893 
L 129.024 241.349893 
L 129.6192 241.195212 
L 130.8096 241.195212 
L 131.4048 241.040532 
L 134.976 241.040532 
L 135.5712 240.885852 
L 136.7616 240.885852 
L 137.3568 240.731171 
L 137.952 240.731171 
L 138.5472 240.421811 
L 139.7376 240.421811 
L 140.3328 240.26713 
L 142.1184 240.26713 
L 142.7136 239.95777 
L 145.0944 239.95777 
L 145.6896 239.648409 
L 146.88 239.339049 
L 147.4752 239.339049 
L 148.6656 238.720327 
L 149.2608 238.256286 
L 149.856 238.101606 
L 151.0464 238.101606 
L 151.6416 237.792246 
L 152.2368 237.792246 
L 152.832 237.637565 
L 153.4272 237.328205 
L 154.0224 236.864164 
L 154.6176 236.864164 
L 156.9984 236.245442 
L 159.3792 236.245442 
L 159.9744 236.090762 
L 160.5696 235.626721 
L 161.1648 235.472041 
L 161.76 235.16268 
L 162.9504 234.85332 
L 163.5456 234.85332 
L 164.1408 234.698639 
L 174.8544 234.698639 
L 175.4496 234.543959 
L 176.0448 234.234598 
L 178.4256 234.234598 
L 179.0208 234.079918 
L 180.2112 234.079918 
L 180.8064 233.925238 
L 181.9968 233.925238 
L 182.592 233.770558 
L 184.3776 233.770558 
L 185.568 233.461197 
L 187.3536 233.461197 
L 187.9488 233.306517 
L 188.544 233.306517 
L 189.7344 232.997156 
L 190.3296 232.687795 
L 190.9248 232.533115 
L 191.52 232.223754 
L 195.0912 232.223754 
L 195.6864 232.069074 
L 198.0672 232.069074 
L 199.8528 231.605033 
L 201.0432 230.986312 
L 202.2336 230.986312 
L 202.8288 230.831632 
L 205.2096 230.831632 
L 205.8048 230.676951 
L 206.9952 230.676951 
L 207.5904 230.21291 
L 208.1856 230.21291 
L 209.376 229.90355 
L 209.9712 229.90355 
L 210.5664 229.594189 
L 211.7568 229.284829 
L 217.7088 229.284829 
L 218.304 229.130148 
L 218.8992 229.130148 
L 219.4944 228.975468 
L 220.0896 228.975468 
L 220.6848 228.666107 
L 221.28 228.511427 
L 223.6608 228.511427 
L 225.4464 228.047386 
L 226.0416 228.047386 
L 227.8272 227.583345 
L 229.0176 227.583345 
L 230.208 227.273985 
L 231.9936 227.273985 
L 232.5888 227.119304 
L 233.184 227.119304 
L 233.7792 226.964624 
L 236.7552 226.964624 
L 237.3504 226.655263 
L 240.9216 226.655263 
L 241.5168 226.345903 
L 243.3024 226.345903 
L 243.8976 226.191223 
L 249.8496 226.191223 
L 250.4448 226.036542 
L 251.04 226.036542 
L 251.6352 225.881862 
L 252.2304 225.881862 
L 253.4208 225.572501 
L 255.2064 225.572501 
L 257.5872 224.95378 
L 259.3728 224.95378 
L 259.968 224.7991 
L 264.7296 224.7991 
L 265.3248 224.644419 
L 272.4672 224.644419 
L 273.0624 224.489739 
L 281.3952 224.489739 
L 281.9904 224.025698 
L 284.9664 224.025698 
L 285.5616 223.871018 
L 290.3232 223.871018 
L 290.9184 223.561657 
L 292.1088 223.252297 
L 298.656 223.252297 
L 299.2512 223.097616 
L 299.8464 223.097616 
L 301.0368 222.788256 
L 301.632 222.788256 
L 302.8224 222.478895 
L 303.4176 222.478895 
L 304.0128 222.169535 
L 305.2032 222.169535 
L 305.7984 221.860174 
L 306.9888 221.550813 
L 307.584 221.550813 
L 308.1792 221.396133 
L 311.1552 221.396133 
L 311.7504 221.241453 
L 312.3456 221.241453 
L 312.9408 221.086772 
L 314.7264 221.086772 
L 315.3216 220.777412 
L 324.2496 220.777412 
L 325.44 220.468051 
L 326.6304 220.468051 
L 327.2256 220.313371 
L 328.416 220.313371 
L 329.0112 220.158691 
L 330.7968 220.158691 
L 331.392 220.00401 
L 331.9872 220.00401 
L 333.1776 219.69465 
L 345.6768 219.69465 
L 346.272 219.539969 
L 349.8432 219.539969 
L 350.4384 219.230609 
L 351.0336 219.230609 
L 351.6288 219.075928 
L 355.2 219.075928 
L 355.7952 218.921248 
L 356.9856 218.921248 
L 357.5808 218.766568 
L 362.3424 218.766568 
L 362.9376 218.457207 
L 363.5328 218.457207 
L 364.7232 218.147847 
L 368.2944 218.147847 
L 368.8896 217.993166 
L 369.4848 217.993166 
L 370.08 217.838486 
L 370.6752 217.838486 
L 371.2704 217.683806 
L 380.1984 217.683806 
L 381.984 217.219765 
L 383.7696 217.219765 
L 384.3648 217.065084 
L 384.96 217.065084 
L 385.5552 216.910404 
L 389.1264 216.910404 
L 389.7216 216.755724 
L 390.912 216.755724 
L 391.5072 216.601043 
L 393.2928 216.601043 
L 394.4832 216.291683 
L 395.0784 216.291683 
L 395.6736 216.137003 
L 396.864 216.137003 
L 398.0544 215.827642 
L 399.2448 215.827642 
L 399.84 215.672962 
L 405.792 215.672962 
L 406.3872 215.518281 
L 406.9824 215.518281 
L 407.5776 215.363601 
L 411.1488 215.363601 
L 411.744 215.208921 
L 412.3392 215.208921 
L 412.9344 215.05424 
L 412.9344 215.05424 
" clip-path="url(#pe64d06a2ff)" style="fill: none; stroke-dasharray: 1.5,2.475; stroke-dashoffset: 0; stroke: #0000ff; stroke-width: 1.5"/>
   </g>
   <g id="line2d_20">
    <path d="M 57.6 295.488 
L 58.1952 249.393269 
L 58.7904 245.990302 
L 59.3856 244.598179 
L 59.9808 243.824777 
L 60.576 243.824777 
L 61.1712 243.206056 
L 61.7664 242.896696 
L 62.9568 242.587335 
L 63.552 242.587335 
L 64.1472 242.277974 
L 64.7424 242.277974 
L 65.3376 242.123294 
L 66.528 242.123294 
L 67.1232 241.968614 
L 67.7184 241.968614 
L 68.3136 241.813934 
L 68.9088 241.813934 
L 69.504 241.659253 
L 70.0992 241.659253 
L 70.6944 241.504573 
L 73.0752 241.504573 
L 73.6704 241.349893 
L 78.432 241.349893 
L 79.0272 241.195212 
L 82.0032 241.195212 
L 83.1936 240.885852 
L 91.5264 240.885852 
L 92.1216 240.576491 
L 96.288 240.576491 
L 96.8832 240.421811 
L 127.8336 240.421811 
L 128.4288 240.11245 
L 137.952 240.11245 
L 138.5472 239.95777 
L 149.856 239.95777 
L 151.0464 239.648409 
L 151.6416 239.648409 
L 152.2368 239.493729 
L 185.568 239.493729 
L 186.1632 239.339049 
L 193.9008 239.339049 
L 194.496 239.184368 
L 196.2816 239.184368 
L 196.8768 239.029688 
L 243.8976 239.029688 
L 244.4928 238.875008 
L 267.7056 238.875008 
L 268.3008 238.720327 
L 345.0816 238.720327 
L 345.6768 238.565647 
L 355.2 238.565647 
L 355.7952 238.410967 
L 370.08 238.410967 
L 370.6752 238.256286 
L 398.0544 238.256286 
L 398.6496 238.101606 
L 398.6496 238.101606 
" clip-path="url(#pe64d06a2ff)" style="fill: none; stroke: #ff0000; stroke-width: 1.5; stroke-linecap: square"/>
   </g>
   <g id="line2d_21">
    <path d="M 57.6 295.488 
L 58.1952 258.055366 
L 58.7904 257.591325 
L 59.9808 257.281964 
L 60.576 257.281964 
L 61.1712 256.972604 
L 62.3616 256.972604 
L 62.9568 256.817923 
L 80.2176 256.817923 
L 80.8128 256.508563 
L 111.168 256.508563 
L 111.7632 256.353882 
L 193.3056 256.353882 
L 193.9008 256.199202 
L 208.7808 256.199202 
L 209.376 256.044522 
L 220.6848 256.044522 
L 221.28 255.889841 
L 224.256 255.889841 
L 224.8512 255.735161 
L 228.4224 255.735161 
L 229.0176 255.580481 
L 232.5888 255.580481 
L 233.184 255.425801 
L 239.136 255.425801 
L 239.7312 255.27112 
L 240.3264 254.96176 
L 262.944 254.96176 
L 264.1344 254.652399 
L 265.92 254.652399 
L 266.5152 254.497719 
L 276.6336 254.497719 
L 277.2288 254.343038 
L 278.4192 254.343038 
L 279.0144 254.188358 
L 305.2032 254.188358 
L 305.7984 254.033678 
L 308.1792 254.033678 
L 308.7744 253.878997 
L 312.9408 253.878997 
L 313.536 253.724317 
L 316.512 253.724317 
L 317.1072 253.569637 
L 320.0832 253.569637 
L 320.6784 253.414957 
L 328.416 253.414957 
L 329.6064 253.105596 
L 332.5824 253.105596 
L 333.1776 252.950916 
L 337.344 252.950916 
L 337.9392 252.796235 
L 348.0576 252.796235 
L 348.6528 252.641555 
L 367.104 252.641555 
L 367.6992 252.332194 
L 368.2944 252.177514 
L 375.4368 252.177514 
L 376.032 252.022834 
L 380.1984 252.022834 
L 380.7936 251.868153 
L 381.3888 251.868153 
L 381.984 251.558793 
L 391.5072 251.558793 
L 392.6976 251.249432 
L 405.792 251.249432 
L 406.3872 251.094752 
L 411.1488 251.094752 
L 411.744 250.940072 
L 411.744 250.940072 
" clip-path="url(#pe64d06a2ff)" style="fill: none; stroke: #0000ff; stroke-width: 1.5; stroke-linecap: square"/>
   </g>
   <g id="line2d_22">
    <path d="M 57.6 295.488 
L 58.1952 163.391018 
L 58.7904 159.678691 
L 59.9808 154.883601 
L 60.576 153.491478 
L 61.1712 152.718077 
L 61.7664 151.480634 
L 62.3616 151.171274 
L 62.9568 150.088512 
L 63.552 149.779151 
L 64.1472 149.005749 
L 65.3376 148.387028 
L 65.9328 148.232348 
L 66.528 147.768307 
L 67.1232 147.613627 
L 67.7184 147.149586 
L 68.9088 146.530864 
L 70.0992 146.221504 
L 70.6944 146.221504 
L 71.2896 145.912143 
L 71.8848 145.912143 
L 72.48 145.757463 
L 73.0752 145.757463 
L 73.6704 145.138742 
L 74.2656 144.984061 
L 74.8608 144.52002 
L 75.456 144.36534 
L 76.0512 144.36534 
L 77.2416 144.05598 
L 77.8368 144.05598 
L 78.432 143.901299 
L 79.0272 143.901299 
L 79.6224 143.746619 
L 80.2176 143.127898 
L 81.408 142.818537 
L 82.0032 142.818537 
L 83.1936 142.199816 
L 83.7888 141.735775 
L 84.9792 141.426414 
L 86.7648 141.426414 
L 87.36 140.962373 
L 89.1456 140.962373 
L 89.7408 140.653013 
L 90.9312 140.343652 
L 92.1216 139.724931 
L 92.7168 139.570251 
L 93.312 139.570251 
L 93.9072 139.26089 
L 95.0976 139.26089 
L 95.6928 139.10621 
L 96.288 139.10621 
L 97.4784 138.796849 
L 98.6688 138.796849 
L 99.264 138.487488 
L 99.8592 138.487488 
L 100.4544 138.332808 
L 104.6208 138.332808 
L 105.216 138.023448 
L 105.8112 137.868767 
L 106.4064 137.868767 
L 107.5968 137.250046 
L 109.9776 137.250046 
L 110.5728 136.940685 
L 111.168 136.786005 
L 112.9536 136.786005 
L 114.144 136.476645 
L 114.7392 136.476645 
L 115.9296 136.167284 
L 116.5248 136.167284 
L 117.12 135.703243 
L 117.7152 135.703243 
L 118.9056 135.084522 
L 120.6912 135.084522 
L 121.8816 134.775161 
L 122.4768 134.465801 
L 123.072 134.465801 
L 124.2624 133.847079 
L 126.048 133.847079 
L 126.6432 133.692399 
L 127.8336 133.692399 
L 129.024 133.073678 
L 129.6192 133.073678 
L 130.2144 132.918997 
L 130.8096 132.918997 
L 132.5952 131.990916 
L 133.1904 131.526875 
L 133.7856 131.217514 
L 135.5712 131.217514 
L 137.952 130.598793 
L 138.5472 130.134752 
L 140.3328 130.134752 
L 140.928 129.670711 
L 141.5232 129.36135 
L 142.1184 129.36135 
L 145.6896 128.433269 
L 146.2848 127.969228 
L 146.88 127.814547 
L 148.0704 127.195826 
L 151.0464 124.2569 
L 151.6416 124.10222 
L 152.2368 123.483499 
L 153.4272 122.864777 
L 154.0224 122.710097 
L 154.6176 122.400737 
L 155.2128 122.400737 
L 155.808 122.246056 
L 156.4032 121.936696 
L 156.9984 121.472655 
L 157.5936 121.163294 
L 158.1888 121.008614 
L 158.784 121.008614 
L 159.9744 120.699253 
L 160.5696 119.925852 
L 161.1648 119.461811 
L 161.76 119.15245 
L 162.9504 117.760327 
L 164.1408 117.450967 
L 165.9264 116.058844 
L 166.5216 115.285442 
L 167.712 114.666721 
L 168.3072 114.512041 
L 168.9024 114.512041 
L 169.4976 114.20268 
L 170.0928 113.583959 
L 170.688 113.274598 
L 171.2832 112.501197 
L 171.8784 112.191836 
L 172.4736 111.573115 
L 173.0688 111.263754 
L 173.664 110.799714 
L 174.2592 110.180992 
L 175.4496 108.479509 
L 176.0448 108.015468 
L 176.64 107.860788 
L 178.4256 106.932706 
L 179.616 106.004624 
L 180.2112 105.695263 
L 180.8064 105.540583 
L 181.4016 105.076542 
L 181.9968 104.767182 
L 182.592 104.612501 
L 183.1872 103.99378 
L 183.7824 103.8391 
L 184.3776 102.911018 
L 184.9728 102.911018 
L 185.568 102.601657 
L 186.1632 101.982936 
L 186.7584 101.673575 
L 187.3536 101.673575 
L 187.9488 101.518895 
L 189.1392 101.518895 
L 192.1152 100.745494 
L 193.9008 100.745494 
L 196.2816 100.126772 
L 196.8768 99.817412 
L 198.0672 99.817412 
L 198.6624 99.662731 
L 199.2576 99.662731 
L 199.8528 99.508051 
L 205.8048 99.508051 
L 206.4 99.353371 
L 206.9952 99.353371 
L 207.5904 99.198691 
L 209.376 98.270609 
L 209.9712 98.270609 
L 210.5664 97.961248 
L 211.1616 97.806568 
L 211.7568 97.497207 
L 212.352 97.342527 
L 212.9472 96.723806 
L 214.1376 96.414445 
L 214.7328 96.105084 
L 215.328 95.950404 
L 215.9232 95.950404 
L 216.5184 95.641043 
L 218.304 95.177003 
L 218.8992 94.867642 
L 221.28 94.248921 
L 221.8752 93.93956 
L 222.4704 93.93956 
L 223.0656 93.78488 
L 223.6608 93.78488 
L 224.256 93.630199 
L 225.4464 93.630199 
L 226.0416 93.475519 
L 227.232 92.856798 
L 227.8272 92.392757 
L 228.4224 92.392757 
L 229.0176 92.238077 
L 229.6128 92.238077 
L 230.208 92.083396 
L 230.8032 92.083396 
L 231.3984 91.774036 
L 231.9936 91.619355 
L 232.5888 91.155315 
L 233.184 91.000634 
L 233.7792 90.536593 
L 234.3744 90.536593 
L 236.16 90.072552 
L 236.7552 89.453831 
L 237.3504 89.453831 
L 237.9456 89.299151 
L 238.5408 88.98979 
L 239.136 88.98979 
L 241.5168 88.371069 
L 242.112 88.061708 
L 243.3024 88.061708 
L 243.8976 87.597668 
L 245.088 87.597668 
L 245.6832 87.442987 
L 246.2784 87.442987 
L 246.8736 87.288307 
L 247.4688 87.288307 
L 248.064 87.133627 
L 248.6592 87.133627 
L 249.2544 86.360225 
L 249.8496 86.360225 
L 250.4448 85.277463 
L 251.6352 84.349381 
L 252.2304 84.349381 
L 252.8256 84.194701 
L 253.4208 83.88534 
L 254.6112 83.88534 
L 255.2064 83.73066 
L 255.8016 83.73066 
L 256.3968 83.266619 
L 256.992 83.111939 
L 257.5872 82.802578 
L 258.7776 82.493217 
L 259.3728 82.183857 
L 259.968 81.719816 
L 260.5632 81.410455 
L 261.1584 80.791734 
L 262.944 79.863652 
L 263.5392 79.090251 
L 264.7296 79.090251 
L 265.3248 78.93557 
L 266.5152 78.93557 
L 268.3008 78.471529 
L 268.896 77.698128 
L 269.4912 77.388767 
L 270.0864 77.234087 
L 270.6816 76.770046 
L 271.872 74.913882 
L 273.0624 73.52176 
L 273.6576 73.52176 
L 274.2528 73.057719 
L 274.848 72.748358 
L 275.4432 72.284317 
L 276.6336 71.665596 
L 277.2288 71.665596 
L 279.0144 71.201555 
L 279.6096 70.737514 
L 280.2048 70.737514 
L 280.8 70.582834 
L 281.3952 70.118793 
L 281.9904 69.809432 
L 283.1808 69.500072 
L 283.776 69.500072 
L 284.9664 69.190711 
L 285.5616 68.88135 
L 287.9424 68.88135 
L 288.5376 68.57199 
L 289.728 68.57199 
L 290.9184 68.262629 
L 291.5136 68.262629 
L 292.704 67.953269 
L 293.2992 67.953269 
L 293.8944 67.798588 
L 294.4896 67.334547 
L 295.0848 67.179867 
L 295.68 66.870506 
L 296.2752 66.715826 
L 298.656 66.715826 
L 299.2512 66.406465 
L 299.8464 66.406465 
L 300.4416 66.251785 
L 301.0368 66.251785 
L 301.632 65.942425 
L 302.2272 65.942425 
L 303.4176 65.633064 
L 304.0128 65.633064 
L 304.608 65.478384 
L 305.7984 65.478384 
L 306.9888 65.169023 
L 308.1792 65.169023 
L 309.3696 64.859662 
L 309.9648 64.859662 
L 312.3456 64.240941 
L 314.1312 64.240941 
L 314.7264 64.086261 
L 315.3216 64.086261 
L 317.1072 63.62222 
L 317.7024 63.312859 
L 318.8928 63.003499 
L 320.0832 63.003499 
L 320.6784 62.848818 
L 322.464 62.848818 
L 323.0592 62.694138 
L 324.2496 62.694138 
L 325.44 62.384777 
L 326.0352 62.075417 
L 328.416 62.075417 
L 329.0112 61.920737 
L 329.6064 61.920737 
L 330.2016 61.766056 
L 331.392 61.766056 
L 332.5824 61.456696 
L 333.7728 61.456696 
L 334.9632 61.147335 
L 336.1536 61.147335 
L 336.7488 60.992655 
L 340.32 60.992655 
L 340.9152 60.373934 
L 341.5104 60.373934 
L 342.1056 60.064573 
L 342.7008 59.909893 
L 343.296 59.909893 
L 343.8912 59.445852 
L 345.6768 58.981811 
L 346.272 58.67245 
L 348.0576 58.67245 
L 348.6528 58.36309 
L 349.8432 58.36309 
L 350.4384 58.208409 
L 351.0336 57.899049 
L 351.6288 57.744368 
L 352.8192 57.744368 
L 353.4144 57.589688 
L 359.3664 57.589688 
L 359.9616 57.280327 
L 360.5568 57.280327 
L 361.152 57.125647 
L 363.5328 57.125647 
L 364.128 56.970967 
L 366.5088 56.970967 
L 367.104 56.816286 
L 371.2704 56.816286 
L 371.8656 56.661606 
L 373.6512 56.661606 
L 374.2464 56.506926 
L 380.7936 56.506926 
L 381.3888 56.352246 
L 381.984 56.352246 
L 383.1744 56.042885 
L 384.3648 56.042885 
L 384.96 55.888205 
L 387.936 55.888205 
L 389.1264 55.578844 
L 392.1024 55.578844 
L 393.2928 55.269483 
L 394.4832 55.269483 
L 395.0784 55.114803 
L 395.6736 55.114803 
L 396.2688 54.960123 
L 398.0544 54.960123 
L 398.6496 54.805442 
L 399.2448 54.805442 
L 399.84 54.650762 
L 405.792 54.650762 
L 406.3872 54.496082 
L 410.5536 54.496082 
L 412.3392 54.032041 
L 413.5296 54.032041 
L 414.1248 53.72268 
L 414.72 53.568 
L 414.72 53.568 
" clip-path="url(#pe64d06a2ff)" style="fill: none; stroke-dasharray: 1.5,2.475; stroke-dashoffset: 0; stroke: #0000ff; stroke-width: 1.5"/>
   </g>
   <g id="patch_3">
    <path d="M 57.6 307.584 
L 57.6 41.472 
" style="fill: none; stroke: #000000; stroke-width: 0.8; stroke-linejoin: miter; stroke-linecap: square"/>
   </g>
   <g id="patch_4">
    <path d="M 414.72 307.584 
L 414.72 41.472 
" style="fill: none; stroke: #000000; stroke-width: 0.8; stroke-linejoin: miter; stroke-linecap: square"/>
   </g>
   <g id="patch_5">
    <path d="M 57.6 307.584 
L 414.72 307.584 
" style="fill: none; stroke: #000000; stroke-width: 0.8; stroke-linejoin: miter; stroke-linecap: square"/>
   </g>
   <g id="patch_6">
    <path d="M 57.6 41.472 
L 414.72 41.472 
" style="fill: none; stroke: #000000; stroke-width: 0.8; stroke-linejoin: miter; stroke-linecap: square"/>
   </g>
   <g id="legend_1">
    <g id="patch_7">
     <path d="M 174.701406 220.618625 
L 297.618594 220.618625 
Q 299.618594 220.618625 299.618594 218.618625 
L 299.618594 130.437375 
Q 299.618594 128.437375 297.618594 128.437375 
L 174.701406 128.437375 
Q 172.701406 128.437375 172.701406 130.437375 
L 172.701406 218.618625 
Q 172.701406 220.618625 174.701406 220.618625 
z
" style="fill: #ffffff; opacity: 0.8; stroke: #cccccc; stroke-linejoin: miter"/>
    </g>
    <g id="line2d_23">
     <path d="M 176.701406 136.535812 
L 186.701406 136.535812 
L 196.701406 136.535812 
" style="fill: none; stroke-dasharray: 1.5,2.475; stroke-dashoffset: 0; stroke: #008000; stroke-width: 1.5"/>
    </g>
    <g id="text_19">
     <!-- gpmc/bn_ple -->
     <g transform="translate(204.701406 140.035812) scale(0.1 -0.1)">
      <defs>
       <path id="DejaVuSans-67" d="M 2906 1791 
Q 2906 2416 2648 2759 
Q 2391 3103 1925 3103 
Q 1463 3103 1205 2759 
Q 947 2416 947 1791 
Q 947 1169 1205 825 
Q 1463 481 1925 481 
Q 2391 481 2648 825 
Q 2906 1169 2906 1791 
z
M 3481 434 
Q 3481 -459 3084 -895 
Q 2688 -1331 1869 -1331 
Q 1566 -1331 1297 -1286 
Q 1028 -1241 775 -1147 
L 775 -588 
Q 1028 -725 1275 -790 
Q 1522 -856 1778 -856 
Q 2344 -856 2625 -561 
Q 2906 -266 2906 331 
L 2906 616 
Q 2728 306 2450 153 
Q 2172 0 1784 0 
Q 1141 0 747 490 
Q 353 981 353 1791 
Q 353 2603 747 3093 
Q 1141 3584 1784 3584 
Q 2172 3584 2450 3431 
Q 2728 3278 2906 2969 
L 2906 3500 
L 3481 3500 
L 3481 434 
z
" transform="scale(0.015625)"/>
       <path id="DejaVuSans-70" d="M 1159 525 
L 1159 -1331 
L 581 -1331 
L 581 3500 
L 1159 3500 
L 1159 2969 
Q 1341 3281 1617 3432 
Q 1894 3584 2278 3584 
Q 2916 3584 3314 3078 
Q 3713 2572 3713 1747 
Q 3713 922 3314 415 
Q 2916 -91 2278 -91 
Q 1894 -91 1617 61 
Q 1341 213 1159 525 
z
M 3116 1747 
Q 3116 2381 2855 2742 
Q 2594 3103 2138 3103 
Q 1681 3103 1420 2742 
Q 1159 2381 1159 1747 
Q 1159 1113 1420 752 
Q 1681 391 2138 391 
Q 2594 391 2855 752 
Q 3116 1113 3116 1747 
z
" transform="scale(0.015625)"/>
       <path id="DejaVuSans-2f" d="M 1625 4666 
L 2156 4666 
L 531 -594 
L 0 -594 
L 1625 4666 
z
" transform="scale(0.015625)"/>
       <path id="DejaVuSans-5f" d="M 3263 -1063 
L 3263 -1509 
L -63 -1509 
L -63 -1063 
L 3263 -1063 
z
" transform="scale(0.015625)"/>
      </defs>
      <use xlink:href="#DejaVuSans-67"/>
      <use xlink:href="#DejaVuSans-70" x="63.476562"/>
      <use xlink:href="#DejaVuSans-6d" x="126.953125"/>
      <use xlink:href="#DejaVuSans-63" x="224.365234"/>
      <use xlink:href="#DejaVuSans-2f" x="279.345703"/>
      <use xlink:href="#DejaVuSans-62" x="313.037109"/>
      <use xlink:href="#DejaVuSans-6e" x="376.513672"/>
      <use xlink:href="#DejaVuSans-5f" x="439.892578"/>
      <use xlink:href="#DejaVuSans-70" x="489.892578"/>
      <use xlink:href="#DejaVuSans-6c" x="553.369141"/>
      <use xlink:href="#DejaVuSans-65" x="581.152344"/>
     </g>
    </g>
    <g id="line2d_24">
     <path d="M 176.701406 151.492062 
L 186.701406 151.492062 
L 196.701406 151.492062 
" style="fill: none; stroke-dasharray: 1.5,2.475; stroke-dashoffset: 0; stroke: #ff0000; stroke-width: 1.5"/>
    </g>
    <g id="text_20">
     <!-- projMC/bn_ple -->
     <g transform="translate(204.701406 154.992062) scale(0.1 -0.1)">
      <defs>
       <path id="DejaVuSans-6a" d="M 603 3500 
L 1178 3500 
L 1178 -63 
Q 1178 -731 923 -1031 
Q 669 -1331 103 -1331 
L -116 -1331 
L -116 -844 
L 38 -844 
Q 366 -844 484 -692 
Q 603 -541 603 -63 
L 603 3500 
z
M 603 4863 
L 1178 4863 
L 1178 4134 
L 603 4134 
L 603 4863 
z
" transform="scale(0.015625)"/>
       <path id="DejaVuSans-4d" d="M 628 4666 
L 1569 4666 
L 2759 1491 
L 3956 4666 
L 4897 4666 
L 4897 0 
L 4281 0 
L 4281 4097 
L 3078 897 
L 2444 897 
L 1241 4097 
L 1241 0 
L 628 0 
L 628 4666 
z
" transform="scale(0.015625)"/>
       <path id="DejaVuSans-43" d="M 4122 4306 
L 4122 3641 
Q 3803 3938 3442 4084 
Q 3081 4231 2675 4231 
Q 1875 4231 1450 3742 
Q 1025 3253 1025 2328 
Q 1025 1406 1450 917 
Q 1875 428 2675 428 
Q 3081 428 3442 575 
Q 3803 722 4122 1019 
L 4122 359 
Q 3791 134 3420 21 
Q 3050 -91 2638 -91 
Q 1578 -91 968 557 
Q 359 1206 359 2328 
Q 359 3453 968 4101 
Q 1578 4750 2638 4750 
Q 3056 4750 3426 4639 
Q 3797 4528 4122 4306 
z
" transform="scale(0.015625)"/>
      </defs>
      <use xlink:href="#DejaVuSans-70"/>
      <use xlink:href="#DejaVuSans-72" x="63.476562"/>
      <use xlink:href="#DejaVuSans-6f" x="102.339844"/>
      <use xlink:href="#DejaVuSans-6a" x="163.521484"/>
      <use xlink:href="#DejaVuSans-4d" x="191.304688"/>
      <use xlink:href="#DejaVuSans-43" x="277.583984"/>
      <use xlink:href="#DejaVuSans-2f" x="347.408203"/>
      <use xlink:href="#DejaVuSans-62" x="381.099609"/>
      <use xlink:href="#DejaVuSans-6e" x="444.576172"/>
      <use xlink:href="#DejaVuSans-5f" x="507.955078"/>
      <use xlink:href="#DejaVuSans-70" x="557.955078"/>
      <use xlink:href="#DejaVuSans-6c" x="621.431641"/>
      <use xlink:href="#DejaVuSans-65" x="649.214844"/>
     </g>
    </g>
    <g id="line2d_25">
     <path d="M 176.701406 166.448312 
L 186.701406 166.448312 
L 196.701406 166.448312 
" style="fill: none; stroke-dasharray: 1.5,2.475; stroke-dashoffset: 0; stroke: #0000ff; stroke-width: 1.5"/>
    </g>
    <g id="text_21">
     <!-- schlandals/bn_ple -->
     <g transform="translate(204.701406 169.948312) scale(0.1 -0.1)">
      <defs>
       <path id="DejaVuSans-68" d="M 3513 2113 
L 3513 0 
L 2938 0 
L 2938 2094 
Q 2938 2591 2744 2837 
Q 2550 3084 2163 3084 
Q 1697 3084 1428 2787 
Q 1159 2491 1159 1978 
L 1159 0 
L 581 0 
L 581 4863 
L 1159 4863 
L 1159 2956 
Q 1366 3272 1645 3428 
Q 1925 3584 2291 3584 
Q 2894 3584 3203 3211 
Q 3513 2838 3513 2113 
z
" transform="scale(0.015625)"/>
      </defs>
      <use xlink:href="#DejaVuSans-73"/>
      <use xlink:href="#DejaVuSans-63" x="52.099609"/>
      <use xlink:href="#DejaVuSans-68" x="107.080078"/>
      <use xlink:href="#DejaVuSans-6c" x="170.458984"/>
      <use xlink:href="#DejaVuSans-61" x="198.242188"/>
      <use xlink:href="#DejaVuSans-6e" x="259.521484"/>
      <use xlink:href="#DejaVuSans-64" x="322.900391"/>
      <use xlink:href="#DejaVuSans-61" x="386.376953"/>
      <use xlink:href="#DejaVuSans-6c" x="447.65625"/>
      <use xlink:href="#DejaVuSans-73" x="475.439453"/>
      <use xlink:href="#DejaVuSans-2f" x="527.539062"/>
      <use xlink:href="#DejaVuSans-62" x="561.230469"/>
      <use xlink:href="#DejaVuSans-6e" x="624.707031"/>
      <use xlink:href="#DejaVuSans-5f" x="688.085938"/>
      <use xlink:href="#DejaVuSans-70" x="738.085938"/>
      <use xlink:href="#DejaVuSans-6c" x="801.5625"/>
      <use xlink:href="#DejaVuSans-65" x="829.345703"/>
     </g>
    </g>
    <g id="line2d_26">
     <path d="M 176.701406 181.404562 
L 186.701406 181.404562 
L 196.701406 181.404562 
" style="fill: none; stroke: #ff0000; stroke-width: 1.5; stroke-linecap: square"/>
    </g>
    <g id="text_22">
     <!-- projMC/pg -->
     <g transform="translate(204.701406 184.904562) scale(0.1 -0.1)">
      <use xlink:href="#DejaVuSans-70"/>
      <use xlink:href="#DejaVuSans-72" x="63.476562"/>
      <use xlink:href="#DejaVuSans-6f" x="102.339844"/>
      <use xlink:href="#DejaVuSans-6a" x="163.521484"/>
      <use xlink:href="#DejaVuSans-4d" x="191.304688"/>
      <use xlink:href="#DejaVuSans-43" x="277.583984"/>
      <use xlink:href="#DejaVuSans-2f" x="347.408203"/>
      <use xlink:href="#DejaVuSans-70" x="381.099609"/>
      <use xlink:href="#DejaVuSans-67" x="444.576172"/>
     </g>
    </g>
    <g id="line2d_27">
     <path d="M 176.701406 196.082687 
L 186.701406 196.082687 
L 196.701406 196.082687 
" style="fill: none; stroke: #0000ff; stroke-width: 1.5; stroke-linecap: square"/>
    </g>
    <g id="text_23">
     <!-- schlandals/pg -->
     <g transform="translate(204.701406 199.582687) scale(0.1 -0.1)">
      <use xlink:href="#DejaVuSans-73"/>
      <use xlink:href="#DejaVuSans-63" x="52.099609"/>
      <use xlink:href="#DejaVuSans-68" x="107.080078"/>
      <use xlink:href="#DejaVuSans-6c" x="170.458984"/>
      <use xlink:href="#DejaVuSans-61" x="198.242188"/>
      <use xlink:href="#DejaVuSans-6e" x="259.521484"/>
      <use xlink:href="#DejaVuSans-64" x="322.900391"/>
      <use xlink:href="#DejaVuSans-61" x="386.376953"/>
      <use xlink:href="#DejaVuSans-6c" x="447.65625"/>
      <use xlink:href="#DejaVuSans-73" x="475.439453"/>
      <use xlink:href="#DejaVuSans-2f" x="527.539062"/>
      <use xlink:href="#DejaVuSans-70" x="561.230469"/>
      <use xlink:href="#DejaVuSans-67" x="624.707031"/>
     </g>
    </g>
    <g id="line2d_28">
     <path d="M 176.701406 210.760812 
L 186.701406 210.760812 
L 196.701406 210.760812 
" style="fill: none; stroke-dasharray: 1.5,2.475; stroke-dashoffset: 0; stroke: #0000ff; stroke-width: 1.5"/>
    </g>
    <g id="text_24">
     <!-- schlandals/wn_ple -->
     <g transform="translate(204.701406 214.260812) scale(0.1 -0.1)">
      <defs>
       <path id="DejaVuSans-77" d="M 269 3500 
L 844 3500 
L 1563 769 
L 2278 3500 
L 2956 3500 
L 3675 769 
L 4391 3500 
L 4966 3500 
L 4050 0 
L 3372 0 
L 2619 2869 
L 1863 0 
L 1184 0 
L 269 3500 
z
" transform="scale(0.015625)"/>
      </defs>
      <use xlink:href="#DejaVuSans-73"/>
      <use xlink:href="#DejaVuSans-63" x="52.099609"/>
      <use xlink:href="#DejaVuSans-68" x="107.080078"/>
      <use xlink:href="#DejaVuSans-6c" x="170.458984"/>
      <use xlink:href="#DejaVuSans-61" x="198.242188"/>
      <use xlink:href="#DejaVuSans-6e" x="259.521484"/>
      <use xlink:href="#DejaVuSans-64" x="322.900391"/>
      <use xlink:href="#DejaVuSans-61" x="386.376953"/>
      <use xlink:href="#DejaVuSans-6c" x="447.65625"/>
      <use xlink:href="#DejaVuSans-73" x="475.439453"/>
      <use xlink:href="#DejaVuSans-2f" x="527.539062"/>
      <use xlink:href="#DejaVuSans-77" x="561.230469"/>
      <use xlink:href="#DejaVuSans-6e" x="643.017578"/>
      <use xlink:href="#DejaVuSans-5f" x="706.396484"/>
      <use xlink:href="#DejaVuSans-70" x="756.396484"/>
      <use xlink:href="#DejaVuSans-6c" x="819.873047"/>
      <use xlink:href="#DejaVuSans-65" x="847.65625"/>
     </g>
    </g>
   </g>
  </g>
 </g>
 <defs>
  <clipPath id="pe64d06a2ff">
   <rect x="57.6" y="41.472" width="357.12" height="266.112"/>
  </clipPath>
 </defs>
</svg>
