<?xml version="1.0" encoding="utf-8" standalone="no"?>
<!DOCTYPE svg PUBLIC "-//W3C//DTD SVG 1.1//EN"
  "http://www.w3.org/Graphics/SVG/1.1/DTD/svg11.dtd">
<svg xmlns:xlink="http://www.w3.org/1999/xlink" width="460.8pt" height="345.6pt" viewBox="0 0 460.8 345.6" xmlns="http://www.w3.org/2000/svg" version="1.1">
 <metadata>
  <rdf:RDF xmlns:dc="http://purl.org/dc/elements/1.1/" xmlns:cc="http://creativecommons.org/ns#" xmlns:rdf="http://www.w3.org/1999/02/22-rdf-syntax-ns#">
   <cc:Work>
    <dc:type rdf:resource="http://purl.org/dc/dcmitype/StillImage"/>
    <dc:date>2023-03-30T10:30:44.822291</dc:date>
    <dc:format>image/svg+xml</dc:format>
    <dc:creator>
     <cc:Agent>
      <dc:title>Matplotlib v3.6.2, https://matplotlib.org/</dc:title>
     </cc:Agent>
    </dc:creator>
   </cc:Work>
  </rdf:RDF>
 </metadata>
 <defs>
  <style type="text/css">*{stroke-linejoin: round; stroke-linecap: butt}</style>
 </defs>
 <g id="figure_1">
  <g id="patch_1">
   <path d="M 0 345.6 
L 460.8 345.6 
L 460.8 0 
L 0 0 
z
" style="fill: #ffffff"/>
  </g>
  <g id="axes_1">
   <g id="patch_2">
    <path d="M 57.6 307.584 
L 414.72 307.584 
L 414.72 41.472 
L 57.6 41.472 
z
" style="fill: #ffffff"/>
   </g>
   <g id="matplotlib.axis_1">
    <g id="xtick_1">
     <g id="line2d_1">
      <defs>
       <path id="m4599dd42bc" d="M 0 0 
L 0 3.5 
" style="stroke: #000000; stroke-width: 0.8"/>
      </defs>
      <g>
       <use xlink:href="#m4599dd42bc" x="86.06864" y="307.584" style="stroke: #000000; stroke-width: 0.8"/>
      </g>
     </g>
     <g id="text_1">
      <!-- $\mathdefault{10^{-2}}$ -->
      <g transform="translate(74.31864 322.182437) scale(0.1 -0.1)">
       <defs>
        <path id="DejaVuSans-31" d="M 794 531 
L 1825 531 
L 1825 4091 
L 703 3866 
L 703 4441 
L 1819 4666 
L 2450 4666 
L 2450 531 
L 3481 531 
L 3481 0 
L 794 0 
L 794 531 
z
" transform="scale(0.015625)"/>
        <path id="DejaVuSans-30" d="M 2034 4250 
Q 1547 4250 1301 3770 
Q 1056 3291 1056 2328 
Q 1056 1369 1301 889 
Q 1547 409 2034 409 
Q 2525 409 2770 889 
Q 3016 1369 3016 2328 
Q 3016 3291 2770 3770 
Q 2525 4250 2034 4250 
z
M 2034 4750 
Q 2819 4750 3233 4129 
Q 3647 3509 3647 2328 
Q 3647 1150 3233 529 
Q 2819 -91 2034 -91 
Q 1250 -91 836 529 
Q 422 1150 422 2328 
Q 422 3509 836 4129 
Q 1250 4750 2034 4750 
z
" transform="scale(0.015625)"/>
        <path id="DejaVuSans-2212" d="M 678 2272 
L 4684 2272 
L 4684 1741 
L 678 1741 
L 678 2272 
z
" transform="scale(0.015625)"/>
        <path id="DejaVuSans-32" d="M 1228 531 
L 3431 531 
L 3431 0 
L 469 0 
L 469 531 
Q 828 903 1448 1529 
Q 2069 2156 2228 2338 
Q 2531 2678 2651 2914 
Q 2772 3150 2772 3378 
Q 2772 3750 2511 3984 
Q 2250 4219 1831 4219 
Q 1534 4219 1204 4116 
Q 875 4013 500 3803 
L 500 4441 
Q 881 4594 1212 4672 
Q 1544 4750 1819 4750 
Q 2544 4750 2975 4387 
Q 3406 4025 3406 3419 
Q 3406 3131 3298 2873 
Q 3191 2616 2906 2266 
Q 2828 2175 2409 1742 
Q 1991 1309 1228 531 
z
" transform="scale(0.015625)"/>
       </defs>
       <use xlink:href="#DejaVuSans-31" transform="translate(0 0.765625)"/>
       <use xlink:href="#DejaVuSans-30" transform="translate(63.623047 0.765625)"/>
       <use xlink:href="#DejaVuSans-2212" transform="translate(128.203125 39.046875) scale(0.7)"/>
       <use xlink:href="#DejaVuSans-32" transform="translate(186.855469 39.046875) scale(0.7)"/>
      </g>
     </g>
    </g>
    <g id="xtick_2">
     <g id="line2d_2">
      <g>
       <use xlink:href="#m4599dd42bc" x="149.198922" y="307.584" style="stroke: #000000; stroke-width: 0.8"/>
      </g>
     </g>
     <g id="text_2">
      <!-- $\mathdefault{10^{-1}}$ -->
      <g transform="translate(137.448922 322.182437) scale(0.1 -0.1)">
       <use xlink:href="#DejaVuSans-31" transform="translate(0 0.684375)"/>
       <use xlink:href="#DejaVuSans-30" transform="translate(63.623047 0.684375)"/>
       <use xlink:href="#DejaVuSans-2212" transform="translate(128.203125 38.965625) scale(0.7)"/>
       <use xlink:href="#DejaVuSans-31" transform="translate(186.855469 38.965625) scale(0.7)"/>
      </g>
     </g>
    </g>
    <g id="xtick_3">
     <g id="line2d_3">
      <g>
       <use xlink:href="#m4599dd42bc" x="212.329204" y="307.584" style="stroke: #000000; stroke-width: 0.8"/>
      </g>
     </g>
     <g id="text_3">
      <!-- $\mathdefault{10^{0}}$ -->
      <g transform="translate(203.529204 322.182437) scale(0.1 -0.1)">
       <use xlink:href="#DejaVuSans-31" transform="translate(0 0.765625)"/>
       <use xlink:href="#DejaVuSans-30" transform="translate(63.623047 0.765625)"/>
       <use xlink:href="#DejaVuSans-30" transform="translate(128.203125 39.046875) scale(0.7)"/>
      </g>
     </g>
    </g>
    <g id="xtick_4">
     <g id="line2d_4">
      <g>
       <use xlink:href="#m4599dd42bc" x="275.459486" y="307.584" style="stroke: #000000; stroke-width: 0.8"/>
      </g>
     </g>
     <g id="text_4">
      <!-- $\mathdefault{10^{1}}$ -->
      <g transform="translate(266.659486 322.182437) scale(0.1 -0.1)">
       <use xlink:href="#DejaVuSans-31" transform="translate(0 0.684375)"/>
       <use xlink:href="#DejaVuSans-30" transform="translate(63.623047 0.684375)"/>
       <use xlink:href="#DejaVuSans-31" transform="translate(128.203125 38.965625) scale(0.7)"/>
      </g>
     </g>
    </g>
    <g id="xtick_5">
     <g id="line2d_5">
      <g>
       <use xlink:href="#m4599dd42bc" x="338.589767" y="307.584" style="stroke: #000000; stroke-width: 0.8"/>
      </g>
     </g>
     <g id="text_5">
      <!-- $\mathdefault{10^{2}}$ -->
      <g transform="translate(329.789767 322.182437) scale(0.1 -0.1)">
       <use xlink:href="#DejaVuSans-31" transform="translate(0 0.765625)"/>
       <use xlink:href="#DejaVuSans-30" transform="translate(63.623047 0.765625)"/>
       <use xlink:href="#DejaVuSans-32" transform="translate(128.203125 39.046875) scale(0.7)"/>
      </g>
     </g>
    </g>
    <g id="xtick_6">
     <g id="line2d_6">
      <g>
       <use xlink:href="#m4599dd42bc" x="401.720049" y="307.584" style="stroke: #000000; stroke-width: 0.8"/>
      </g>
     </g>
     <g id="text_6">
      <!-- $\mathdefault{10^{3}}$ -->
      <g transform="translate(392.920049 322.182437) scale(0.1 -0.1)">
       <defs>
        <path id="DejaVuSans-33" d="M 2597 2516 
Q 3050 2419 3304 2112 
Q 3559 1806 3559 1356 
Q 3559 666 3084 287 
Q 2609 -91 1734 -91 
Q 1441 -91 1130 -33 
Q 819 25 488 141 
L 488 750 
Q 750 597 1062 519 
Q 1375 441 1716 441 
Q 2309 441 2620 675 
Q 2931 909 2931 1356 
Q 2931 1769 2642 2001 
Q 2353 2234 1838 2234 
L 1294 2234 
L 1294 2753 
L 1863 2753 
Q 2328 2753 2575 2939 
Q 2822 3125 2822 3475 
Q 2822 3834 2567 4026 
Q 2313 4219 1838 4219 
Q 1578 4219 1281 4162 
Q 984 4106 628 3988 
L 628 4550 
Q 988 4650 1302 4700 
Q 1616 4750 1894 4750 
Q 2613 4750 3031 4423 
Q 3450 4097 3450 3541 
Q 3450 3153 3228 2886 
Q 3006 2619 2597 2516 
z
" transform="scale(0.015625)"/>
       </defs>
       <use xlink:href="#DejaVuSans-31" transform="translate(0 0.765625)"/>
       <use xlink:href="#DejaVuSans-30" transform="translate(63.623047 0.765625)"/>
       <use xlink:href="#DejaVuSans-33" transform="translate(128.203125 39.046875) scale(0.7)"/>
      </g>
     </g>
    </g>
    <g id="xtick_7">
     <g id="line2d_7">
      <defs>
       <path id="m953d899363" d="M 0 0 
L 0 2 
" style="stroke: #000000; stroke-width: 0.6"/>
      </defs>
      <g>
       <use xlink:href="#m953d899363" x="60.946575" y="307.584" style="stroke: #000000; stroke-width: 0.6"/>
      </g>
     </g>
    </g>
    <g id="xtick_8">
     <g id="line2d_8">
      <g>
       <use xlink:href="#m953d899363" x="67.064532" y="307.584" style="stroke: #000000; stroke-width: 0.6"/>
      </g>
     </g>
    </g>
    <g id="xtick_9">
     <g id="line2d_9">
      <g>
       <use xlink:href="#m953d899363" x="72.063266" y="307.584" style="stroke: #000000; stroke-width: 0.6"/>
      </g>
     </g>
    </g>
    <g id="xtick_10">
     <g id="line2d_10">
      <g>
       <use xlink:href="#m953d899363" x="76.289636" y="307.584" style="stroke: #000000; stroke-width: 0.6"/>
      </g>
     </g>
    </g>
    <g id="xtick_11">
     <g id="line2d_11">
      <g>
       <use xlink:href="#m953d899363" x="79.950684" y="307.584" style="stroke: #000000; stroke-width: 0.6"/>
      </g>
     </g>
    </g>
    <g id="xtick_12">
     <g id="line2d_12">
      <g>
       <use xlink:href="#m953d899363" x="83.179957" y="307.584" style="stroke: #000000; stroke-width: 0.6"/>
      </g>
     </g>
    </g>
    <g id="xtick_13">
     <g id="line2d_13">
      <g>
       <use xlink:href="#m953d899363" x="105.072749" y="307.584" style="stroke: #000000; stroke-width: 0.6"/>
      </g>
     </g>
    </g>
    <g id="xtick_14">
     <g id="line2d_14">
      <g>
       <use xlink:href="#m953d899363" x="116.189439" y="307.584" style="stroke: #000000; stroke-width: 0.6"/>
      </g>
     </g>
    </g>
    <g id="xtick_15">
     <g id="line2d_15">
      <g>
       <use xlink:href="#m953d899363" x="124.076857" y="307.584" style="stroke: #000000; stroke-width: 0.6"/>
      </g>
     </g>
    </g>
    <g id="xtick_16">
     <g id="line2d_16">
      <g>
       <use xlink:href="#m953d899363" x="130.194813" y="307.584" style="stroke: #000000; stroke-width: 0.6"/>
      </g>
     </g>
    </g>
    <g id="xtick_17">
     <g id="line2d_17">
      <g>
       <use xlink:href="#m953d899363" x="135.193548" y="307.584" style="stroke: #000000; stroke-width: 0.6"/>
      </g>
     </g>
    </g>
    <g id="xtick_18">
     <g id="line2d_18">
      <g>
       <use xlink:href="#m953d899363" x="139.419918" y="307.584" style="stroke: #000000; stroke-width: 0.6"/>
      </g>
     </g>
    </g>
    <g id="xtick_19">
     <g id="line2d_19">
      <g>
       <use xlink:href="#m953d899363" x="143.080966" y="307.584" style="stroke: #000000; stroke-width: 0.6"/>
      </g>
     </g>
    </g>
    <g id="xtick_20">
     <g id="line2d_20">
      <g>
       <use xlink:href="#m953d899363" x="146.310239" y="307.584" style="stroke: #000000; stroke-width: 0.6"/>
      </g>
     </g>
    </g>
    <g id="xtick_21">
     <g id="line2d_21">
      <g>
       <use xlink:href="#m953d899363" x="168.20303" y="307.584" style="stroke: #000000; stroke-width: 0.6"/>
      </g>
     </g>
    </g>
    <g id="xtick_22">
     <g id="line2d_22">
      <g>
       <use xlink:href="#m953d899363" x="179.319721" y="307.584" style="stroke: #000000; stroke-width: 0.6"/>
      </g>
     </g>
    </g>
    <g id="xtick_23">
     <g id="line2d_23">
      <g>
       <use xlink:href="#m953d899363" x="187.207139" y="307.584" style="stroke: #000000; stroke-width: 0.6"/>
      </g>
     </g>
    </g>
    <g id="xtick_24">
     <g id="line2d_24">
      <g>
       <use xlink:href="#m953d899363" x="193.325095" y="307.584" style="stroke: #000000; stroke-width: 0.6"/>
      </g>
     </g>
    </g>
    <g id="xtick_25">
     <g id="line2d_25">
      <g>
       <use xlink:href="#m953d899363" x="198.32383" y="307.584" style="stroke: #000000; stroke-width: 0.6"/>
      </g>
     </g>
    </g>
    <g id="xtick_26">
     <g id="line2d_26">
      <g>
       <use xlink:href="#m953d899363" x="202.550199" y="307.584" style="stroke: #000000; stroke-width: 0.6"/>
      </g>
     </g>
    </g>
    <g id="xtick_27">
     <g id="line2d_27">
      <g>
       <use xlink:href="#m953d899363" x="206.211247" y="307.584" style="stroke: #000000; stroke-width: 0.6"/>
      </g>
     </g>
    </g>
    <g id="xtick_28">
     <g id="line2d_28">
      <g>
       <use xlink:href="#m953d899363" x="209.44052" y="307.584" style="stroke: #000000; stroke-width: 0.6"/>
      </g>
     </g>
    </g>
    <g id="xtick_29">
     <g id="line2d_29">
      <g>
       <use xlink:href="#m953d899363" x="231.333312" y="307.584" style="stroke: #000000; stroke-width: 0.6"/>
      </g>
     </g>
    </g>
    <g id="xtick_30">
     <g id="line2d_30">
      <g>
       <use xlink:href="#m953d899363" x="242.450003" y="307.584" style="stroke: #000000; stroke-width: 0.6"/>
      </g>
     </g>
    </g>
    <g id="xtick_31">
     <g id="line2d_31">
      <g>
       <use xlink:href="#m953d899363" x="250.337421" y="307.584" style="stroke: #000000; stroke-width: 0.6"/>
      </g>
     </g>
    </g>
    <g id="xtick_32">
     <g id="line2d_32">
      <g>
       <use xlink:href="#m953d899363" x="256.455377" y="307.584" style="stroke: #000000; stroke-width: 0.6"/>
      </g>
     </g>
    </g>
    <g id="xtick_33">
     <g id="line2d_33">
      <g>
       <use xlink:href="#m953d899363" x="261.454111" y="307.584" style="stroke: #000000; stroke-width: 0.6"/>
      </g>
     </g>
    </g>
    <g id="xtick_34">
     <g id="line2d_34">
      <g>
       <use xlink:href="#m953d899363" x="265.680481" y="307.584" style="stroke: #000000; stroke-width: 0.6"/>
      </g>
     </g>
    </g>
    <g id="xtick_35">
     <g id="line2d_35">
      <g>
       <use xlink:href="#m953d899363" x="269.341529" y="307.584" style="stroke: #000000; stroke-width: 0.6"/>
      </g>
     </g>
    </g>
    <g id="xtick_36">
     <g id="line2d_36">
      <g>
       <use xlink:href="#m953d899363" x="272.570802" y="307.584" style="stroke: #000000; stroke-width: 0.6"/>
      </g>
     </g>
    </g>
    <g id="xtick_37">
     <g id="line2d_37">
      <g>
       <use xlink:href="#m953d899363" x="294.463594" y="307.584" style="stroke: #000000; stroke-width: 0.6"/>
      </g>
     </g>
    </g>
    <g id="xtick_38">
     <g id="line2d_38">
      <g>
       <use xlink:href="#m953d899363" x="305.580285" y="307.584" style="stroke: #000000; stroke-width: 0.6"/>
      </g>
     </g>
    </g>
    <g id="xtick_39">
     <g id="line2d_39">
      <g>
       <use xlink:href="#m953d899363" x="313.467702" y="307.584" style="stroke: #000000; stroke-width: 0.6"/>
      </g>
     </g>
    </g>
    <g id="xtick_40">
     <g id="line2d_40">
      <g>
       <use xlink:href="#m953d899363" x="319.585659" y="307.584" style="stroke: #000000; stroke-width: 0.6"/>
      </g>
     </g>
    </g>
    <g id="xtick_41">
     <g id="line2d_41">
      <g>
       <use xlink:href="#m953d899363" x="324.584393" y="307.584" style="stroke: #000000; stroke-width: 0.6"/>
      </g>
     </g>
    </g>
    <g id="xtick_42">
     <g id="line2d_42">
      <g>
       <use xlink:href="#m953d899363" x="328.810763" y="307.584" style="stroke: #000000; stroke-width: 0.6"/>
      </g>
     </g>
    </g>
    <g id="xtick_43">
     <g id="line2d_43">
      <g>
       <use xlink:href="#m953d899363" x="332.471811" y="307.584" style="stroke: #000000; stroke-width: 0.6"/>
      </g>
     </g>
    </g>
    <g id="xtick_44">
     <g id="line2d_44">
      <g>
       <use xlink:href="#m953d899363" x="335.701084" y="307.584" style="stroke: #000000; stroke-width: 0.6"/>
      </g>
     </g>
    </g>
    <g id="xtick_45">
     <g id="line2d_45">
      <g>
       <use xlink:href="#m953d899363" x="357.593876" y="307.584" style="stroke: #000000; stroke-width: 0.6"/>
      </g>
     </g>
    </g>
    <g id="xtick_46">
     <g id="line2d_46">
      <g>
       <use xlink:href="#m953d899363" x="368.710567" y="307.584" style="stroke: #000000; stroke-width: 0.6"/>
      </g>
     </g>
    </g>
    <g id="xtick_47">
     <g id="line2d_47">
      <g>
       <use xlink:href="#m953d899363" x="376.597984" y="307.584" style="stroke: #000000; stroke-width: 0.6"/>
      </g>
     </g>
    </g>
    <g id="xtick_48">
     <g id="line2d_48">
      <g>
       <use xlink:href="#m953d899363" x="382.715941" y="307.584" style="stroke: #000000; stroke-width: 0.6"/>
      </g>
     </g>
    </g>
    <g id="xtick_49">
     <g id="line2d_49">
      <g>
       <use xlink:href="#m953d899363" x="387.714675" y="307.584" style="stroke: #000000; stroke-width: 0.6"/>
      </g>
     </g>
    </g>
    <g id="xtick_50">
     <g id="line2d_50">
      <g>
       <use xlink:href="#m953d899363" x="391.941045" y="307.584" style="stroke: #000000; stroke-width: 0.6"/>
      </g>
     </g>
    </g>
    <g id="xtick_51">
     <g id="line2d_51">
      <g>
       <use xlink:href="#m953d899363" x="395.602093" y="307.584" style="stroke: #000000; stroke-width: 0.6"/>
      </g>
     </g>
    </g>
    <g id="xtick_52">
     <g id="line2d_52">
      <g>
       <use xlink:href="#m953d899363" x="398.831366" y="307.584" style="stroke: #000000; stroke-width: 0.6"/>
      </g>
     </g>
    </g>
    <g id="text_7">
     <!-- Time in second (log-scale) -->
     <g transform="translate(170.556875 335.860562) scale(0.1 -0.1)">
      <defs>
       <path id="DejaVuSans-54" d="M -19 4666 
L 3928 4666 
L 3928 4134 
L 2272 4134 
L 2272 0 
L 1638 0 
L 1638 4134 
L -19 4134 
L -19 4666 
z
" transform="scale(0.015625)"/>
       <path id="DejaVuSans-69" d="M 603 3500 
L 1178 3500 
L 1178 0 
L 603 0 
L 603 3500 
z
M 603 4863 
L 1178 4863 
L 1178 4134 
L 603 4134 
L 603 4863 
z
" transform="scale(0.015625)"/>
       <path id="DejaVuSans-6d" d="M 3328 2828 
Q 3544 3216 3844 3400 
Q 4144 3584 4550 3584 
Q 5097 3584 5394 3201 
Q 5691 2819 5691 2113 
L 5691 0 
L 5113 0 
L 5113 2094 
Q 5113 2597 4934 2840 
Q 4756 3084 4391 3084 
Q 3944 3084 3684 2787 
Q 3425 2491 3425 1978 
L 3425 0 
L 2847 0 
L 2847 2094 
Q 2847 2600 2669 2842 
Q 2491 3084 2119 3084 
Q 1678 3084 1418 2786 
Q 1159 2488 1159 1978 
L 1159 0 
L 581 0 
L 581 3500 
L 1159 3500 
L 1159 2956 
Q 1356 3278 1631 3431 
Q 1906 3584 2284 3584 
Q 2666 3584 2933 3390 
Q 3200 3197 3328 2828 
z
" transform="scale(0.015625)"/>
       <path id="DejaVuSans-65" d="M 3597 1894 
L 3597 1613 
L 953 1613 
Q 991 1019 1311 708 
Q 1631 397 2203 397 
Q 2534 397 2845 478 
Q 3156 559 3463 722 
L 3463 178 
Q 3153 47 2828 -22 
Q 2503 -91 2169 -91 
Q 1331 -91 842 396 
Q 353 884 353 1716 
Q 353 2575 817 3079 
Q 1281 3584 2069 3584 
Q 2775 3584 3186 3129 
Q 3597 2675 3597 1894 
z
M 3022 2063 
Q 3016 2534 2758 2815 
Q 2500 3097 2075 3097 
Q 1594 3097 1305 2825 
Q 1016 2553 972 2059 
L 3022 2063 
z
" transform="scale(0.015625)"/>
       <path id="DejaVuSans-20" transform="scale(0.015625)"/>
       <path id="DejaVuSans-6e" d="M 3513 2113 
L 3513 0 
L 2938 0 
L 2938 2094 
Q 2938 2591 2744 2837 
Q 2550 3084 2163 3084 
Q 1697 3084 1428 2787 
Q 1159 2491 1159 1978 
L 1159 0 
L 581 0 
L 581 3500 
L 1159 3500 
L 1159 2956 
Q 1366 3272 1645 3428 
Q 1925 3584 2291 3584 
Q 2894 3584 3203 3211 
Q 3513 2838 3513 2113 
z
" transform="scale(0.015625)"/>
       <path id="DejaVuSans-73" d="M 2834 3397 
L 2834 2853 
Q 2591 2978 2328 3040 
Q 2066 3103 1784 3103 
Q 1356 3103 1142 2972 
Q 928 2841 928 2578 
Q 928 2378 1081 2264 
Q 1234 2150 1697 2047 
L 1894 2003 
Q 2506 1872 2764 1633 
Q 3022 1394 3022 966 
Q 3022 478 2636 193 
Q 2250 -91 1575 -91 
Q 1294 -91 989 -36 
Q 684 19 347 128 
L 347 722 
Q 666 556 975 473 
Q 1284 391 1588 391 
Q 1994 391 2212 530 
Q 2431 669 2431 922 
Q 2431 1156 2273 1281 
Q 2116 1406 1581 1522 
L 1381 1569 
Q 847 1681 609 1914 
Q 372 2147 372 2553 
Q 372 3047 722 3315 
Q 1072 3584 1716 3584 
Q 2034 3584 2315 3537 
Q 2597 3491 2834 3397 
z
" transform="scale(0.015625)"/>
       <path id="DejaVuSans-63" d="M 3122 3366 
L 3122 2828 
Q 2878 2963 2633 3030 
Q 2388 3097 2138 3097 
Q 1578 3097 1268 2742 
Q 959 2388 959 1747 
Q 959 1106 1268 751 
Q 1578 397 2138 397 
Q 2388 397 2633 464 
Q 2878 531 3122 666 
L 3122 134 
Q 2881 22 2623 -34 
Q 2366 -91 2075 -91 
Q 1284 -91 818 406 
Q 353 903 353 1747 
Q 353 2603 823 3093 
Q 1294 3584 2113 3584 
Q 2378 3584 2631 3529 
Q 2884 3475 3122 3366 
z
" transform="scale(0.015625)"/>
       <path id="DejaVuSans-6f" d="M 1959 3097 
Q 1497 3097 1228 2736 
Q 959 2375 959 1747 
Q 959 1119 1226 758 
Q 1494 397 1959 397 
Q 2419 397 2687 759 
Q 2956 1122 2956 1747 
Q 2956 2369 2687 2733 
Q 2419 3097 1959 3097 
z
M 1959 3584 
Q 2709 3584 3137 3096 
Q 3566 2609 3566 1747 
Q 3566 888 3137 398 
Q 2709 -91 1959 -91 
Q 1206 -91 779 398 
Q 353 888 353 1747 
Q 353 2609 779 3096 
Q 1206 3584 1959 3584 
z
" transform="scale(0.015625)"/>
       <path id="DejaVuSans-64" d="M 2906 2969 
L 2906 4863 
L 3481 4863 
L 3481 0 
L 2906 0 
L 2906 525 
Q 2725 213 2448 61 
Q 2172 -91 1784 -91 
Q 1150 -91 751 415 
Q 353 922 353 1747 
Q 353 2572 751 3078 
Q 1150 3584 1784 3584 
Q 2172 3584 2448 3432 
Q 2725 3281 2906 2969 
z
M 947 1747 
Q 947 1113 1208 752 
Q 1469 391 1925 391 
Q 2381 391 2643 752 
Q 2906 1113 2906 1747 
Q 2906 2381 2643 2742 
Q 2381 3103 1925 3103 
Q 1469 3103 1208 2742 
Q 947 2381 947 1747 
z
" transform="scale(0.015625)"/>
       <path id="DejaVuSans-28" d="M 1984 4856 
Q 1566 4138 1362 3434 
Q 1159 2731 1159 2009 
Q 1159 1288 1364 580 
Q 1569 -128 1984 -844 
L 1484 -844 
Q 1016 -109 783 600 
Q 550 1309 550 2009 
Q 550 2706 781 3412 
Q 1013 4119 1484 4856 
L 1984 4856 
z
" transform="scale(0.015625)"/>
       <path id="DejaVuSans-6c" d="M 603 4863 
L 1178 4863 
L 1178 0 
L 603 0 
L 603 4863 
z
" transform="scale(0.015625)"/>
       <path id="DejaVuSans-67" d="M 2906 1791 
Q 2906 2416 2648 2759 
Q 2391 3103 1925 3103 
Q 1463 3103 1205 2759 
Q 947 2416 947 1791 
Q 947 1169 1205 825 
Q 1463 481 1925 481 
Q 2391 481 2648 825 
Q 2906 1169 2906 1791 
z
M 3481 434 
Q 3481 -459 3084 -895 
Q 2688 -1331 1869 -1331 
Q 1566 -1331 1297 -1286 
Q 1028 -1241 775 -1147 
L 775 -588 
Q 1028 -725 1275 -790 
Q 1522 -856 1778 -856 
Q 2344 -856 2625 -561 
Q 2906 -266 2906 331 
L 2906 616 
Q 2728 306 2450 153 
Q 2172 0 1784 0 
Q 1141 0 747 490 
Q 353 981 353 1791 
Q 353 2603 747 3093 
Q 1141 3584 1784 3584 
Q 2172 3584 2450 3431 
Q 2728 3278 2906 2969 
L 2906 3500 
L 3481 3500 
L 3481 434 
z
" transform="scale(0.015625)"/>
       <path id="DejaVuSans-2d" d="M 313 2009 
L 1997 2009 
L 1997 1497 
L 313 1497 
L 313 2009 
z
" transform="scale(0.015625)"/>
       <path id="DejaVuSans-61" d="M 2194 1759 
Q 1497 1759 1228 1600 
Q 959 1441 959 1056 
Q 959 750 1161 570 
Q 1363 391 1709 391 
Q 2188 391 2477 730 
Q 2766 1069 2766 1631 
L 2766 1759 
L 2194 1759 
z
M 3341 1997 
L 3341 0 
L 2766 0 
L 2766 531 
Q 2569 213 2275 61 
Q 1981 -91 1556 -91 
Q 1019 -91 701 211 
Q 384 513 384 1019 
Q 384 1609 779 1909 
Q 1175 2209 1959 2209 
L 2766 2209 
L 2766 2266 
Q 2766 2663 2505 2880 
Q 2244 3097 1772 3097 
Q 1472 3097 1187 3025 
Q 903 2953 641 2809 
L 641 3341 
Q 956 3463 1253 3523 
Q 1550 3584 1831 3584 
Q 2591 3584 2966 3190 
Q 3341 2797 3341 1997 
z
" transform="scale(0.015625)"/>
       <path id="DejaVuSans-29" d="M 513 4856 
L 1013 4856 
Q 1481 4119 1714 3412 
Q 1947 2706 1947 2009 
Q 1947 1309 1714 600 
Q 1481 -109 1013 -844 
L 513 -844 
Q 928 -128 1133 580 
Q 1338 1288 1338 2009 
Q 1338 2731 1133 3434 
Q 928 4138 513 4856 
z
" transform="scale(0.015625)"/>
      </defs>
      <use xlink:href="#DejaVuSans-54"/>
      <use xlink:href="#DejaVuSans-69" x="57.958984"/>
      <use xlink:href="#DejaVuSans-6d" x="85.742188"/>
      <use xlink:href="#DejaVuSans-65" x="183.154297"/>
      <use xlink:href="#DejaVuSans-20" x="244.677734"/>
      <use xlink:href="#DejaVuSans-69" x="276.464844"/>
      <use xlink:href="#DejaVuSans-6e" x="304.248047"/>
      <use xlink:href="#DejaVuSans-20" x="367.626953"/>
      <use xlink:href="#DejaVuSans-73" x="399.414062"/>
      <use xlink:href="#DejaVuSans-65" x="451.513672"/>
      <use xlink:href="#DejaVuSans-63" x="513.037109"/>
      <use xlink:href="#DejaVuSans-6f" x="568.017578"/>
      <use xlink:href="#DejaVuSans-6e" x="629.199219"/>
      <use xlink:href="#DejaVuSans-64" x="692.578125"/>
      <use xlink:href="#DejaVuSans-20" x="756.054688"/>
      <use xlink:href="#DejaVuSans-28" x="787.841797"/>
      <use xlink:href="#DejaVuSans-6c" x="826.855469"/>
      <use xlink:href="#DejaVuSans-6f" x="854.638672"/>
      <use xlink:href="#DejaVuSans-67" x="915.820312"/>
      <use xlink:href="#DejaVuSans-2d" x="979.296875"/>
      <use xlink:href="#DejaVuSans-73" x="1015.380859"/>
      <use xlink:href="#DejaVuSans-63" x="1067.480469"/>
      <use xlink:href="#DejaVuSans-61" x="1122.460938"/>
      <use xlink:href="#DejaVuSans-6c" x="1183.740234"/>
      <use xlink:href="#DejaVuSans-65" x="1211.523438"/>
      <use xlink:href="#DejaVuSans-29" x="1273.046875"/>
     </g>
    </g>
   </g>
   <g id="matplotlib.axis_2">
    <g id="ytick_1">
     <g id="line2d_53">
      <defs>
       <path id="mbecc5b4e01" d="M 0 0 
L -3.5 0 
" style="stroke: #000000; stroke-width: 0.8"/>
      </defs>
      <g>
       <use xlink:href="#mbecc5b4e01" x="57.6" y="295.488" style="stroke: #000000; stroke-width: 0.8"/>
      </g>
     </g>
     <g id="text_8">
      <!-- 0 -->
      <g transform="translate(44.2375 299.287219) scale(0.1 -0.1)">
       <use xlink:href="#DejaVuSans-30"/>
      </g>
     </g>
    </g>
    <g id="ytick_2">
     <g id="line2d_54">
      <g>
       <use xlink:href="#mbecc5b4e01" x="57.6" y="257.330271" style="stroke: #000000; stroke-width: 0.8"/>
      </g>
     </g>
     <g id="text_9">
      <!-- 50 -->
      <g transform="translate(37.875 261.12949) scale(0.1 -0.1)">
       <defs>
        <path id="DejaVuSans-35" d="M 691 4666 
L 3169 4666 
L 3169 4134 
L 1269 4134 
L 1269 2991 
Q 1406 3038 1543 3061 
Q 1681 3084 1819 3084 
Q 2600 3084 3056 2656 
Q 3513 2228 3513 1497 
Q 3513 744 3044 326 
Q 2575 -91 1722 -91 
Q 1428 -91 1123 -41 
Q 819 9 494 109 
L 494 744 
Q 775 591 1075 516 
Q 1375 441 1709 441 
Q 2250 441 2565 725 
Q 2881 1009 2881 1497 
Q 2881 1984 2565 2268 
Q 2250 2553 1709 2553 
Q 1456 2553 1204 2497 
Q 953 2441 691 2322 
L 691 4666 
z
" transform="scale(0.015625)"/>
       </defs>
       <use xlink:href="#DejaVuSans-35"/>
       <use xlink:href="#DejaVuSans-30" x="63.623047"/>
      </g>
     </g>
    </g>
    <g id="ytick_3">
     <g id="line2d_55">
      <g>
       <use xlink:href="#mbecc5b4e01" x="57.6" y="219.172543" style="stroke: #000000; stroke-width: 0.8"/>
      </g>
     </g>
     <g id="text_10">
      <!-- 100 -->
      <g transform="translate(31.5125 222.971761) scale(0.1 -0.1)">
       <use xlink:href="#DejaVuSans-31"/>
       <use xlink:href="#DejaVuSans-30" x="63.623047"/>
       <use xlink:href="#DejaVuSans-30" x="127.246094"/>
      </g>
     </g>
    </g>
    <g id="ytick_4">
     <g id="line2d_56">
      <g>
       <use xlink:href="#mbecc5b4e01" x="57.6" y="181.014814" style="stroke: #000000; stroke-width: 0.8"/>
      </g>
     </g>
     <g id="text_11">
      <!-- 150 -->
      <g transform="translate(31.5125 184.814033) scale(0.1 -0.1)">
       <use xlink:href="#DejaVuSans-31"/>
       <use xlink:href="#DejaVuSans-35" x="63.623047"/>
       <use xlink:href="#DejaVuSans-30" x="127.246094"/>
      </g>
     </g>
    </g>
    <g id="ytick_5">
     <g id="line2d_57">
      <g>
       <use xlink:href="#mbecc5b4e01" x="57.6" y="142.857085" style="stroke: #000000; stroke-width: 0.8"/>
      </g>
     </g>
     <g id="text_12">
      <!-- 200 -->
      <g transform="translate(31.5125 146.656304) scale(0.1 -0.1)">
       <use xlink:href="#DejaVuSans-32"/>
       <use xlink:href="#DejaVuSans-30" x="63.623047"/>
       <use xlink:href="#DejaVuSans-30" x="127.246094"/>
      </g>
     </g>
    </g>
    <g id="ytick_6">
     <g id="line2d_58">
      <g>
       <use xlink:href="#mbecc5b4e01" x="57.6" y="104.699356" style="stroke: #000000; stroke-width: 0.8"/>
      </g>
     </g>
     <g id="text_13">
      <!-- 250 -->
      <g transform="translate(31.5125 108.498575) scale(0.1 -0.1)">
       <use xlink:href="#DejaVuSans-32"/>
       <use xlink:href="#DejaVuSans-35" x="63.623047"/>
       <use xlink:href="#DejaVuSans-30" x="127.246094"/>
      </g>
     </g>
    </g>
    <g id="ytick_7">
     <g id="line2d_59">
      <g>
       <use xlink:href="#mbecc5b4e01" x="57.6" y="66.541628" style="stroke: #000000; stroke-width: 0.8"/>
      </g>
     </g>
     <g id="text_14">
      <!-- 300 -->
      <g transform="translate(31.5125 70.340847) scale(0.1 -0.1)">
       <use xlink:href="#DejaVuSans-33"/>
       <use xlink:href="#DejaVuSans-30" x="63.623047"/>
       <use xlink:href="#DejaVuSans-30" x="127.246094"/>
      </g>
     </g>
    </g>
    <g id="text_15">
     <!-- Number of inst. solved -->
     <g transform="translate(25.432812 231.175656) rotate(-90) scale(0.1 -0.1)">
      <defs>
       <path id="DejaVuSans-4e" d="M 628 4666 
L 1478 4666 
L 3547 763 
L 3547 4666 
L 4159 4666 
L 4159 0 
L 3309 0 
L 1241 3903 
L 1241 0 
L 628 0 
L 628 4666 
z
" transform="scale(0.015625)"/>
       <path id="DejaVuSans-75" d="M 544 1381 
L 544 3500 
L 1119 3500 
L 1119 1403 
Q 1119 906 1312 657 
Q 1506 409 1894 409 
Q 2359 409 2629 706 
Q 2900 1003 2900 1516 
L 2900 3500 
L 3475 3500 
L 3475 0 
L 2900 0 
L 2900 538 
Q 2691 219 2414 64 
Q 2138 -91 1772 -91 
Q 1169 -91 856 284 
Q 544 659 544 1381 
z
M 1991 3584 
L 1991 3584 
z
" transform="scale(0.015625)"/>
       <path id="DejaVuSans-62" d="M 3116 1747 
Q 3116 2381 2855 2742 
Q 2594 3103 2138 3103 
Q 1681 3103 1420 2742 
Q 1159 2381 1159 1747 
Q 1159 1113 1420 752 
Q 1681 391 2138 391 
Q 2594 391 2855 752 
Q 3116 1113 3116 1747 
z
M 1159 2969 
Q 1341 3281 1617 3432 
Q 1894 3584 2278 3584 
Q 2916 3584 3314 3078 
Q 3713 2572 3713 1747 
Q 3713 922 3314 415 
Q 2916 -91 2278 -91 
Q 1894 -91 1617 61 
Q 1341 213 1159 525 
L 1159 0 
L 581 0 
L 581 4863 
L 1159 4863 
L 1159 2969 
z
" transform="scale(0.015625)"/>
       <path id="DejaVuSans-72" d="M 2631 2963 
Q 2534 3019 2420 3045 
Q 2306 3072 2169 3072 
Q 1681 3072 1420 2755 
Q 1159 2438 1159 1844 
L 1159 0 
L 581 0 
L 581 3500 
L 1159 3500 
L 1159 2956 
Q 1341 3275 1631 3429 
Q 1922 3584 2338 3584 
Q 2397 3584 2469 3576 
Q 2541 3569 2628 3553 
L 2631 2963 
z
" transform="scale(0.015625)"/>
       <path id="DejaVuSans-66" d="M 2375 4863 
L 2375 4384 
L 1825 4384 
Q 1516 4384 1395 4259 
Q 1275 4134 1275 3809 
L 1275 3500 
L 2222 3500 
L 2222 3053 
L 1275 3053 
L 1275 0 
L 697 0 
L 697 3053 
L 147 3053 
L 147 3500 
L 697 3500 
L 697 3744 
Q 697 4328 969 4595 
Q 1241 4863 1831 4863 
L 2375 4863 
z
" transform="scale(0.015625)"/>
       <path id="DejaVuSans-74" d="M 1172 4494 
L 1172 3500 
L 2356 3500 
L 2356 3053 
L 1172 3053 
L 1172 1153 
Q 1172 725 1289 603 
Q 1406 481 1766 481 
L 2356 481 
L 2356 0 
L 1766 0 
Q 1100 0 847 248 
Q 594 497 594 1153 
L 594 3053 
L 172 3053 
L 172 3500 
L 594 3500 
L 594 4494 
L 1172 4494 
z
" transform="scale(0.015625)"/>
       <path id="DejaVuSans-2e" d="M 684 794 
L 1344 794 
L 1344 0 
L 684 0 
L 684 794 
z
" transform="scale(0.015625)"/>
       <path id="DejaVuSans-76" d="M 191 3500 
L 800 3500 
L 1894 563 
L 2988 3500 
L 3597 3500 
L 2284 0 
L 1503 0 
L 191 3500 
z
" transform="scale(0.015625)"/>
      </defs>
      <use xlink:href="#DejaVuSans-4e"/>
      <use xlink:href="#DejaVuSans-75" x="74.804688"/>
      <use xlink:href="#DejaVuSans-6d" x="138.183594"/>
      <use xlink:href="#DejaVuSans-62" x="235.595703"/>
      <use xlink:href="#DejaVuSans-65" x="299.072266"/>
      <use xlink:href="#DejaVuSans-72" x="360.595703"/>
      <use xlink:href="#DejaVuSans-20" x="401.708984"/>
      <use xlink:href="#DejaVuSans-6f" x="433.496094"/>
      <use xlink:href="#DejaVuSans-66" x="494.677734"/>
      <use xlink:href="#DejaVuSans-20" x="529.882812"/>
      <use xlink:href="#DejaVuSans-69" x="561.669922"/>
      <use xlink:href="#DejaVuSans-6e" x="589.453125"/>
      <use xlink:href="#DejaVuSans-73" x="652.832031"/>
      <use xlink:href="#DejaVuSans-74" x="704.931641"/>
      <use xlink:href="#DejaVuSans-2e" x="744.140625"/>
      <use xlink:href="#DejaVuSans-20" x="775.927734"/>
      <use xlink:href="#DejaVuSans-73" x="807.714844"/>
      <use xlink:href="#DejaVuSans-6f" x="859.814453"/>
      <use xlink:href="#DejaVuSans-6c" x="920.996094"/>
      <use xlink:href="#DejaVuSans-76" x="948.779297"/>
      <use xlink:href="#DejaVuSans-65" x="1007.958984"/>
      <use xlink:href="#DejaVuSans-64" x="1069.482422"/>
     </g>
    </g>
   </g>
   <g id="line2d_60">
    <path d="M 79.256542 295.488 
L 79.256542 294.724845 
L 98.26065 294.724845 
L 98.26065 293.961691 
L 109.377341 293.961691 
L 109.377341 293.198536 
L 117.614026 293.198536 
L 117.614026 292.435382 
L 123.985314 292.435382 
L 123.985314 291.672227 
L 129.227487 291.672227 
L 129.227487 290.909073 
L 133.674769 290.909073 
L 133.674769 290.145918 
L 137.542316 290.145918 
L 137.542316 289.382763 
L 140.931131 289.382763 
L 140.931131 288.619609 
L 143.946782 288.619609 
L 143.946782 287.856454 
L 146.663362 287.856454 
L 146.663362 287.0933 
L 149.134874 287.0933 
L 149.134874 286.330145 
L 151.401898 286.330145 
L 151.401898 285.566991 
L 153.519132 285.566991 
L 153.519132 284.803836 
L 155.506315 284.803836 
L 155.506315 284.040681 
L 157.359149 284.040681 
L 157.359149 283.277527 
L 159.094657 283.277527 
L 159.094657 282.514372 
L 160.726817 282.514372 
L 160.726817 281.751218 
L 162.284265 281.751218 
L 162.284265 280.988063 
L 163.757977 280.988063 
L 163.757977 280.224909 
L 165.171814 280.224909 
L 165.171814 279.461754 
L 166.516305 279.461754 
L 166.516305 278.698599 
L 167.797934 278.698599 
L 167.797934 277.935445 
L 169.022319 277.935445 
L 169.022319 277.17229 
L 170.194356 277.17229 
L 170.194356 276.409136 
L 171.318337 276.409136 
L 171.318337 275.645981 
L 172.398048 275.645981 
L 172.398048 274.882826 
L 173.436846 274.882826 
L 173.436846 274.119672 
L 174.448636 274.119672 
L 174.448636 273.356517 
L 175.434944 273.356517 
L 175.434944 272.593363 
L 176.387 272.593363 
L 176.387 271.830208 
L 177.307102 271.830208 
L 177.307102 271.067054 
L 178.197326 271.067054 
L 178.197326 270.303899 
L 179.059551 270.303899 
L 179.059551 269.540744 
L 179.895486 269.540744 
L 179.895486 268.77759 
L 180.712477 268.77759 
L 180.712477 268.014435 
L 181.517075 268.014435 
L 181.517075 267.251281 
L 182.315123 267.251281 
L 182.315123 266.488126 
L 183.090598 266.488126 
L 183.090598 265.724972 
L 183.860234 265.724972 
L 183.860234 264.961817 
L 184.608854 264.961817 
L 184.608854 264.198662 
L 185.352247 264.198662 
L 185.352247 263.435508 
L 186.076014 263.435508 
L 186.076014 262.672353 
L 186.781166 262.672353 
L 186.781166 261.909199 
L 187.468635 261.909199 
L 187.468635 261.146044 
L 188.143704 261.146044 
L 188.143704 260.38289 
L 188.811171 260.38289 
L 188.811171 259.619735 
L 189.462774 259.619735 
L 189.462774 258.85658 
L 190.099249 258.85658 
L 190.099249 258.093426 
L 190.721284 258.093426 
L 190.721284 257.330271 
L 191.34131 257.330271 
L 191.34131 256.567117 
L 191.947625 256.567117 
L 191.947625 255.803962 
L 192.552104 255.803962 
L 192.552104 255.040808 
L 193.143542 255.040808 
L 193.143542 254.277653 
L 193.733298 254.277653 
L 193.733298 253.514498 
L 194.321213 253.514498 
L 194.321213 252.751344 
L 194.907138 252.751344 
L 194.907138 251.988189 
L 195.5112 251.988189 
L 195.5112 251.225035 
L 196.102238 251.225035 
L 196.102238 250.46188 
L 196.719591 250.46188 
L 196.719591 249.698726 
L 197.332825 249.698726 
L 197.332825 248.935571 
L 197.944228 248.935571 
L 197.944228 248.172416 
L 198.549093 248.172416 
L 198.549093 247.409262 
L 199.140901 247.409262 
L 199.140901 246.646107 
L 199.728888 246.646107 
L 199.728888 245.882953 
L 200.304529 245.882953 
L 200.304529 245.119798 
L 200.893309 245.119798 
L 200.893309 244.356644 
L 201.494143 244.356644 
L 201.494143 243.593489 
L 202.086077 243.593489 
L 202.086077 242.830334 
L 202.6655 242.830334 
L 202.6655 242.06718 
L 203.259661 242.06718 
L 203.259661 241.304025 
L 203.84869 241.304025 
L 203.84869 240.540871 
L 204.432646 240.540871 
L 204.432646 239.777716 
L 205.075956 239.777716 
L 205.075956 239.014562 
L 206.130591 239.014562 
L 206.130591 238.251407 
L 208.956473 238.251407 
L 208.956473 237.488252 
L 212.088248 237.488252 
L 212.088248 236.725098 
L 215.588923 236.725098 
L 215.588923 235.961943 
L 219.247993 235.961943 
L 219.247993 235.198789 
L 222.70954 235.198789 
L 222.70954 234.435634 
L 225.923267 234.435634 
L 225.923267 233.672479 
L 228.835569 233.672479 
L 228.835569 232.909325 
L 232.277163 232.909325 
L 232.277163 232.14617 
L 235.63146 232.14617 
L 235.63146 231.383016 
L 239.339565 231.383016 
L 239.339565 230.619861 
L 242.650782 230.619861 
L 242.650782 229.856707 
L 245.642696 229.856707 
L 245.642696 229.093552 
L 248.417668 229.093552 
L 248.417668 228.330397 
L 251.627412 228.330397 
L 251.627412 227.567243 
L 254.944968 227.567243 
L 254.944968 226.804088 
L 260.307268 226.804088 
L 260.307268 226.040934 
L 265.10579 226.040934 
L 265.10579 225.277779 
L 269.412037 225.277779 
L 269.412037 224.514625 
L 273.65725 224.514625 
L 273.65725 223.75147 
L 277.364156 223.75147 
L 277.364156 222.988315 
L 280.831285 222.988315 
L 280.831285 222.225161 
L 284.30757 222.225161 
L 284.30757 221.462006 
L 288.426057 221.462006 
L 288.426057 220.698852 
L 293.73428 220.698852 
L 293.73428 219.935697 
L 298.335966 219.935697 
L 298.335966 219.172543 
L 302.804894 219.172543 
L 302.804894 218.409388 
L 306.937983 218.409388 
L 306.937983 217.646233 
L 311.196068 217.646233 
L 311.196068 216.883079 
L 314.967583 216.883079 
L 314.967583 216.119924 
L 318.556878 216.119924 
L 318.556878 215.35677 
L 321.90037 215.35677 
L 321.90037 214.593615 
L 325.370755 214.593615 
L 325.370755 213.830461 
L 328.531413 213.830461 
L 328.531413 213.067306 
L 331.425248 213.067306 
L 331.425248 212.304151 
L 334.213552 212.304151 
L 334.213552 211.540997 
L 336.911078 211.540997 
L 336.911078 210.777842 
L 339.641482 210.777842 
L 339.641482 210.777842 
" clip-path="url(#pd4e1adf1e8)" style="fill: none; stroke: #1f77b4; stroke-width: 1.5; stroke-linecap: square"/>
   </g>
   <g id="line2d_61">
    <path d="M 121.035432 295.488 
L 121.035432 294.724845 
L 140.192282 294.724845 
L 140.192282 293.961691 
L 151.460869 293.961691 
L 151.460869 293.198536 
L 159.42392 293.198536 
L 159.42392 292.435382 
L 165.587157 292.435382 
L 165.587157 291.672227 
L 170.641132 291.672227 
L 170.641132 290.909073 
L 174.917625 290.909073 
L 174.917625 290.145918 
L 178.625579 290.145918 
L 178.625579 289.382763 
L 181.907917 289.382763 
L 181.907917 288.619609 
L 184.838978 288.619609 
L 184.838978 287.856454 
L 187.5003 287.856454 
L 187.5003 287.0933 
L 189.9291 287.0933 
L 189.9291 286.330145 
L 192.168721 286.330145 
L 192.168721 285.566991 
L 194.239129 285.566991 
L 194.239129 284.803836 
L 196.164109 284.803836 
L 196.164109 284.040681 
L 197.962755 284.040681 
L 197.962755 283.277527 
L 199.650634 283.277527 
L 199.650634 282.514372 
L 201.240601 282.514372 
L 201.240601 281.751218 
L 202.743395 281.751218 
L 202.743395 280.988063 
L 204.175465 280.988063 
L 204.175465 280.224909 
L 205.536431 280.224909 
L 205.536431 279.461754 
L 206.833024 279.461754 
L 206.833024 278.698599 
L 208.077461 278.698599 
L 208.077461 277.935445 
L 209.267859 277.935445 
L 209.267859 277.17229 
L 210.408716 277.17229 
L 210.408716 276.409136 
L 211.509641 276.409136 
L 211.509641 275.645981 
L 212.573496 275.645981 
L 212.573496 274.882826 
L 213.597607 274.882826 
L 213.597607 274.119672 
L 214.584838 274.119672 
L 214.584838 273.356517 
L 215.542631 273.356517 
L 215.542631 272.593363 
L 216.468091 272.593363 
L 216.468091 271.830208 
L 217.36447 271.830208 
L 217.36447 271.067054 
L 218.233573 271.067054 
L 218.233573 270.303899 
L 219.078115 270.303899 
L 219.078115 269.540744 
L 219.897417 269.540744 
L 219.897417 268.77759 
L 220.692945 268.77759 
L 220.692945 268.014435 
L 221.466039 268.014435 
L 221.466039 267.251281 
L 222.223665 267.251281 
L 222.223665 266.488126 
L 222.961537 266.488126 
L 222.961537 265.724972 
L 223.681278 265.724972 
L 223.681278 264.961817 
L 224.382607 264.961817 
L 224.382607 264.198662 
L 225.066443 264.198662 
L 225.066443 263.435508 
L 225.736999 263.435508 
L 225.736999 262.672353 
L 226.394829 262.672353 
L 226.394829 261.909199 
L 227.037245 261.909199 
L 227.037245 261.146044 
L 227.664952 261.146044 
L 227.664952 260.38289 
L 228.278609 260.38289 
L 228.278609 259.619735 
L 228.878831 259.619735 
L 228.878831 258.85658 
L 229.467662 258.85658 
L 229.467662 258.093426 
L 230.045548 258.093426 
L 230.045548 257.330271 
L 230.61432 257.330271 
L 230.61432 256.567117 
L 231.171532 256.567117 
L 231.171532 255.803962 
L 231.717644 255.803962 
L 231.717644 255.040808 
L 232.253091 255.040808 
L 232.253091 254.277653 
L 232.778281 254.277653 
L 232.778281 253.514498 
L 233.294876 253.514498 
L 233.294876 252.751344 
L 233.803169 252.751344 
L 233.803169 251.988189 
L 234.30221 251.988189 
L 234.30221 251.225035 
L 234.79233 251.225035 
L 234.79233 250.46188 
L 235.276217 250.46188 
L 235.276217 249.698726 
L 235.751711 249.698726 
L 235.751711 248.935571 
L 236.220246 248.935571 
L 236.220246 248.172416 
L 236.680909 248.172416 
L 236.680909 247.409262 
L 237.13433 247.409262 
L 237.13433 246.646107 
L 237.581101 246.646107 
L 237.581101 245.882953 
L 238.020708 245.882953 
L 238.020708 245.119798 
L 238.453378 245.119798 
L 238.453378 244.356644 
L 238.880367 244.356644 
L 238.880367 243.593489 
L 239.301833 243.593489 
L 239.301833 242.830334 
L 239.716918 242.830334 
L 239.716918 242.06718 
L 240.125813 242.06718 
L 240.125813 241.304025 
L 240.529679 241.304025 
L 240.529679 240.540871 
L 240.928648 240.540871 
L 240.928648 239.777716 
L 241.323799 239.777716 
L 241.323799 239.014562 
L 241.713336 239.014562 
L 241.713336 238.251407 
L 242.097416 238.251407 
L 242.097416 237.488252 
L 242.476189 237.488252 
L 242.476189 236.725098 
L 242.851602 236.725098 
L 242.851602 235.961943 
L 243.221945 235.961943 
L 243.221945 235.198789 
L 243.587351 235.198789 
L 243.587351 234.435634 
L 243.947951 234.435634 
L 243.947951 233.672479 
L 244.30387 233.672479 
L 244.30387 232.909325 
L 244.656915 232.909325 
L 244.656915 232.14617 
L 245.005471 232.14617 
L 245.005471 231.383016 
L 245.349651 231.383016 
L 245.349651 230.619861 
L 245.689564 230.619861 
L 245.689564 229.856707 
L 246.026117 229.856707 
L 246.026117 229.093552 
L 246.359381 229.093552 
L 246.359381 228.330397 
L 246.688642 228.330397 
L 246.688642 227.567243 
L 247.013997 227.567243 
L 247.013997 226.804088 
L 247.340123 226.804088 
L 247.340123 226.040934 
L 247.662416 226.040934 
L 247.662416 225.277779 
L 247.982458 225.277779 
L 247.982458 224.514625 
L 248.298808 224.514625 
L 248.298808 223.75147 
L 248.611548 223.75147 
L 248.611548 222.988315 
L 248.920762 222.988315 
L 248.920762 222.225161 
L 249.232237 222.225161 
L 249.232237 221.462006 
L 249.540213 221.462006 
L 249.540213 220.698852 
L 249.844767 220.698852 
L 249.844767 219.935697 
L 250.145976 219.935697 
L 250.145976 219.172543 
L 250.443912 219.172543 
L 250.443912 218.409388 
L 250.73932 218.409388 
L 250.73932 217.646233 
L 251.032248 217.646233 
L 251.032248 216.883079 
L 251.322079 216.883079 
L 251.322079 216.119924 
L 251.608878 216.119924 
L 251.608878 215.35677 
L 251.894003 215.35677 
L 251.894003 214.593615 
L 252.177476 214.593615 
L 252.177476 213.830461 
L 252.459316 213.830461 
L 252.459316 213.067306 
L 252.738289 213.067306 
L 252.738289 212.304151 
L 253.015695 212.304151 
L 253.015695 211.540997 
L 253.291553 211.540997 
L 253.291553 210.777842 
L 253.565881 210.777842 
L 253.565881 210.014688 
L 253.837492 210.014688 
L 253.837492 209.251533 
L 254.107634 209.251533 
L 254.107634 208.488379 
L 254.376323 208.488379 
L 254.376323 207.725224 
L 254.642404 207.725224 
L 254.642404 206.962069 
L 254.905928 206.962069 
L 254.905928 206.198915 
L 255.168092 206.198915 
L 255.168092 205.43576 
L 255.428912 205.43576 
L 255.428912 204.672606 
L 255.689529 204.672606 
L 255.689529 203.909451 
L 255.947693 203.909451 
L 255.947693 203.146297 
L 256.204555 203.146297 
L 256.204555 202.383142 
L 256.460129 202.383142 
L 256.460129 201.619987 
L 256.715516 201.619987 
L 256.715516 200.856833 
L 256.968546 200.856833 
L 256.968546 200.093678 
L 257.220328 200.093678 
L 257.220328 199.330524 
L 257.469819 199.330524 
L 257.469819 198.567369 
L 257.717061 198.567369 
L 257.717061 197.804215 
L 257.96313 197.804215 
L 257.96313 197.04106 
L 258.20804 197.04106 
L 258.20804 196.277905 
L 258.452821 196.277905 
L 258.452821 195.514751 
L 258.696446 195.514751 
L 258.696446 194.751596 
L 258.937926 194.751596 
L 258.937926 193.988442 
L 259.177297 193.988442 
L 259.177297 193.225287 
L 259.414596 193.225287 
L 259.414596 192.462132 
L 259.650835 192.462132 
L 259.650835 191.698978 
L 259.886024 191.698978 
L 259.886024 190.935823 
L 260.119212 190.935823 
L 260.119212 190.172669 
L 260.353288 190.172669 
L 260.353288 189.409514 
L 260.586326 189.409514 
L 260.586326 188.64636 
L 260.8174 188.64636 
L 260.8174 187.883205 
L 261.046542 187.883205 
L 261.046542 187.12005 
L 261.274705 187.12005 
L 261.274705 186.356896 
L 261.501897 186.356896 
L 261.501897 185.593741 
L 261.727223 185.593741 
L 261.727223 184.830587 
L 261.951609 184.830587 
L 261.951609 184.067432 
L 262.174173 184.067432 
L 262.174173 183.304278 
L 262.395828 183.304278 
L 262.395828 182.541123 
L 262.615706 182.541123 
L 262.615706 181.777968 
L 262.834703 181.777968 
L 262.834703 181.014814 
L 263.052827 181.014814 
L 263.052827 180.251659 
L 263.269658 180.251659 
L 263.269658 179.488505 
L 263.485211 179.488505 
L 263.485211 178.72535 
L 263.699924 178.72535 
L 263.699924 177.962196 
L 263.913805 177.962196 
L 263.913805 177.199041 
L 264.127688 177.199041 
L 264.127688 176.435886 
L 264.340738 176.435886 
L 264.340738 175.672732 
L 264.552962 175.672732 
L 264.552962 174.909577 
L 264.764365 174.909577 
L 264.764365 174.146423 
L 264.975759 174.146423 
L 264.975759 173.383268 
L 265.185535 173.383268 
L 265.185535 172.620114 
L 265.393718 172.620114 
L 265.393718 171.856959 
L 265.600332 171.856959 
L 265.600332 171.093804 
L 265.805401 171.093804 
L 265.805401 170.33065 
L 266.014365 170.33065 
L 266.014365 169.567495 
L 266.22482 169.567495 
L 266.22482 168.804341 
L 266.435959 168.804341 
L 266.435959 168.041186 
L 266.64624 168.041186 
L 266.64624 167.278032 
L 266.854921 167.278032 
L 266.854921 166.514877 
L 267.06277 166.514877 
L 267.06277 165.751722 
L 267.269055 165.751722 
L 267.269055 164.988568 
L 267.4738 164.988568 
L 267.4738 164.225413 
L 267.677755 164.225413 
L 267.677755 163.462259 
L 267.880204 163.462259 
L 267.880204 162.699104 
L 268.083323 162.699104 
L 268.083323 161.93595 
L 268.290646 161.93595 
L 268.290646 161.172795 
L 268.497119 161.172795 
L 268.497119 160.40964 
L 268.70205 160.40964 
L 268.70205 159.646486 
L 268.906156 159.646486 
L 268.906156 158.883331 
L 269.114976 158.883331 
L 269.114976 158.120177 
L 269.322902 158.120177 
L 269.322902 157.357022 
L 269.529944 157.357022 
L 269.529944 156.593868 
L 269.738137 156.593868 
L 269.738137 155.830713 
L 269.945432 155.830713 
L 269.945432 155.067558 
L 270.151836 155.067558 
L 270.151836 154.304404 
L 270.356698 154.304404 
L 270.356698 153.541249 
L 270.560696 153.541249 
L 270.560696 152.778095 
L 270.763839 152.778095 
L 270.763839 152.01494 
L 270.977113 152.01494 
L 270.977113 151.251785 
L 271.18874 151.251785 
L 271.18874 150.488631 
L 271.399383 150.488631 
L 271.399383 149.725476 
L 271.609682 149.725476 
L 271.609682 148.962322 
L 271.82151 148.962322 
L 271.82151 148.199167 
L 272.031715 148.199167 
L 272.031715 147.436013 
L 272.246486 147.436013 
L 272.246486 146.672858 
L 272.460812 146.672858 
L 272.460812 145.909703 
L 272.679544 145.909703 
L 272.679544 145.146549 
L 272.899555 145.146549 
L 272.899555 144.383394 
L 273.118412 144.383394 
L 273.118412 143.62024 
L 273.342645 143.62024 
L 273.342645 142.857085 
L 273.572109 142.857085 
L 273.572109 142.093931 
L 273.802581 142.093931 
L 273.802581 141.330776 
L 274.04557 141.330776 
L 274.04557 140.567621 
L 274.288713 140.567621 
L 274.288713 139.804467 
L 274.533689 139.804467 
L 274.533689 139.041312 
L 274.780993 139.041312 
L 274.780993 138.278158 
L 275.029985 138.278158 
L 275.029985 137.515003 
L 275.280049 137.515003 
L 275.280049 136.751849 
L 275.528946 136.751849 
L 275.528946 135.988694 
L 275.776688 135.988694 
L 275.776688 135.225539 
L 276.029194 135.225539 
L 276.029194 134.462385 
L 276.290037 134.462385 
L 276.290037 133.69923 
L 276.552111 133.69923 
L 276.552111 132.936076 
L 276.811704 132.936076 
L 276.811704 132.172921 
L 277.069378 132.172921 
L 277.069378 131.409767 
L 277.326191 131.409767 
L 277.326191 130.646612 
L 277.586202 130.646612 
L 277.586202 129.883457 
L 277.844273 129.883457 
L 277.844273 129.120303 
L 278.124826 129.120303 
L 278.124826 128.357148 
L 278.416325 128.357148 
L 278.416325 127.593994 
L 278.714011 127.593994 
L 278.714011 126.830839 
L 279.011391 126.830839 
L 279.011391 126.067685 
L 279.308438 126.067685 
L 279.308438 125.30453 
L 279.622566 125.30453 
L 279.622566 124.541375 
L 279.936396 124.541375 
L 279.936396 123.778221 
L 280.255423 123.778221 
L 280.255423 123.015066 
L 280.577605 123.015066 
L 280.577605 122.251912 
L 280.896945 122.251912 
L 280.896945 121.488757 
L 281.213496 121.488757 
L 281.213496 120.725603 
L 281.532148 120.725603 
L 281.532148 119.962448 
L 281.859299 119.962448 
L 281.859299 119.199293 
L 282.185166 119.199293 
L 282.185166 118.436139 
L 282.512294 118.436139 
L 282.512294 117.672984 
L 282.838497 117.672984 
L 282.838497 116.90983 
L 283.162935 116.90983 
L 283.162935 116.146675 
L 283.566116 116.146675 
L 283.566116 115.383521 
L 283.966267 115.383521 
L 283.966267 114.620366 
L 284.365022 114.620366 
L 284.365022 113.857211 
L 284.791243 113.857211 
L 284.791243 113.094057 
L 285.232448 113.094057 
L 285.232448 112.330902 
L 285.669311 112.330902 
L 285.669311 111.567748 
L 286.145407 111.567748 
L 286.145407 110.804593 
L 286.615203 110.804593 
L 286.615203 110.041438 
L 287.08785 110.041438 
L 287.08785 109.278284 
L 287.592321 109.278284 
L 287.592321 108.515129 
L 288.089408 108.515129 
L 288.089408 107.751975 
L 288.608209 107.751975 
L 288.608209 106.98882 
L 289.174959 106.98882 
L 289.174959 106.225666 
L 289.922774 106.225666 
L 289.922774 105.462511 
L 290.667741 105.462511 
L 290.667741 104.699356 
L 291.415377 104.699356 
L 291.415377 103.936202 
L 292.202184 103.936202 
L 292.202184 103.173047 
L 293.054633 103.173047 
L 293.054633 102.409893 
L 294.008506 102.409893 
L 294.008506 101.646738 
L 294.941085 101.646738 
L 294.941085 100.883584 
L 295.846373 100.883584 
L 295.846373 100.120429 
L 296.794838 100.120429 
L 296.794838 99.357274 
L 297.731305 99.357274 
L 297.731305 98.59412 
L 298.674018 98.59412 
L 298.674018 97.830965 
L 299.641968 97.830965 
L 299.641968 97.067811 
L 300.613957 97.067811 
L 300.613957 96.304656 
L 301.621592 96.304656 
L 301.621592 95.541502 
L 302.59819 95.541502 
L 302.59819 94.778347 
L 303.546708 94.778347 
L 303.546708 94.015192 
L 304.477591 94.015192 
L 304.477591 93.252038 
L 305.382137 93.252038 
L 305.382137 92.488883 
L 306.3228 92.488883 
L 306.3228 91.725729 
L 307.279714 91.725729 
L 307.279714 90.962574 
L 308.235231 90.962574 
L 308.235231 90.19942 
L 309.198639 90.19942 
L 309.198639 89.436265 
L 310.170187 89.436265 
L 310.170187 88.67311 
L 311.121776 88.67311 
L 311.121776 87.909956 
L 312.041731 87.909956 
L 312.041731 87.146801 
L 313.019188 87.146801 
L 313.019188 86.383647 
L 314.005504 86.383647 
L 314.005504 85.620492 
L 314.993896 85.620492 
L 314.993896 84.857338 
L 315.953026 84.857338 
L 315.953026 84.094183 
L 316.893894 84.094183 
L 316.893894 83.331028 
L 317.821676 83.331028 
L 317.821676 82.567874 
L 318.860549 82.567874 
L 318.860549 81.804719 
L 319.886884 81.804719 
L 319.886884 81.041565 
L 320.971644 81.041565 
L 320.971644 80.27841 
L 322.019028 80.27841 
L 322.019028 79.515256 
L 323.053778 79.515256 
L 323.053778 78.752101 
L 324.145221 78.752101 
L 324.145221 77.988946 
L 325.230244 77.988946 
L 325.230244 77.225792 
L 326.279112 77.225792 
L 326.279112 76.462637 
L 327.319536 76.462637 
L 327.319536 75.699483 
L 328.329413 75.699483 
L 328.329413 74.936328 
L 329.329325 74.936328 
L 329.329325 74.173174 
L 330.38022 74.173174 
L 330.38022 73.410019 
L 331.411133 73.410019 
L 331.411133 72.646864 
L 332.738636 72.646864 
L 332.738636 71.88371 
L 334.023353 71.88371 
L 334.023353 71.120555 
L 335.252288 71.120555 
L 335.252288 70.357401 
L 336.553044 70.357401 
L 336.553044 69.594246 
L 337.868495 69.594246 
L 337.868495 68.831091 
L 339.48655 68.831091 
L 339.48655 68.067937 
L 341.232137 68.067937 
L 341.232137 67.304782 
L 343.196751 67.304782 
L 343.196751 66.541628 
L 345.045685 66.541628 
L 345.045685 65.778473 
L 346.812609 65.778473 
L 346.812609 65.015319 
L 348.76441 65.015319 
L 348.76441 64.252164 
L 350.743044 64.252164 
L 350.743044 63.489009 
L 352.663932 63.489009 
L 352.663932 62.725855 
L 355.616923 62.725855 
L 355.616923 61.9627 
L 358.454446 61.9627 
L 358.454446 61.199546 
L 361.347218 61.199546 
L 361.347218 60.436391 
L 364.178941 60.436391 
L 364.178941 59.673237 
L 367.080402 59.673237 
L 367.080402 58.910082 
L 370.037124 58.910082 
L 370.037124 58.146927 
L 373.858937 58.146927 
L 373.858937 57.383773 
L 378.021454 57.383773 
L 378.021454 56.620618 
L 381.641769 56.620618 
L 381.641769 55.857464 
L 386.310648 55.857464 
L 386.310648 55.094309 
L 390.481467 55.094309 
L 390.481467 54.331155 
L 394.687453 54.331155 
L 394.687453 53.568 
L 398.487273 53.568 
L 398.487273 53.568 
" clip-path="url(#pd4e1adf1e8)" style="fill: none; stroke: #ff7f0e; stroke-width: 1.5; stroke-linecap: square"/>
   </g>
   <g id="line2d_62">
    <path d="M 73.832727 295.488 
L 73.832727 294.724845 
L 93.47201 294.724845 
L 93.47201 293.961691 
L 104.797197 293.961691 
L 104.797197 293.198536 
L 112.891538 293.198536 
L 112.891538 292.435382 
L 119.296587 292.435382 
L 119.296587 291.672227 
L 124.48506 291.672227 
L 124.48506 290.909073 
L 128.961115 290.909073 
L 128.961115 290.145918 
L 132.807945 290.145918 
L 132.807945 289.382763 
L 136.180851 289.382763 
L 136.180851 288.619609 
L 139.262799 288.619609 
L 139.262799 287.856454 
L 142.068633 287.856454 
L 142.068633 287.0933 
L 144.646181 287.0933 
L 144.646181 286.330145 
L 147.002096 286.330145 
L 147.002096 285.566991 
L 149.171491 285.566991 
L 149.171491 284.803836 
L 151.181747 284.803836 
L 151.181747 284.040681 
L 153.054624 284.040681 
L 153.054624 283.277527 
L 154.807704 283.277527 
L 154.807704 282.514372 
L 156.455395 282.514372 
L 156.455395 281.751218 
L 158.009653 281.751218 
L 158.009653 280.988063 
L 159.480509 280.988063 
L 159.480509 280.224909 
L 160.88541 280.224909 
L 160.88541 279.461754 
L 162.230342 279.461754 
L 162.230342 278.698599 
L 163.520504 278.698599 
L 163.520504 277.935445 
L 164.760447 277.935445 
L 164.760447 277.17229 
L 165.946731 277.17229 
L 165.946731 276.409136 
L 167.083808 276.409136 
L 167.083808 275.645981 
L 168.1756 275.645981 
L 168.1756 274.882826 
L 169.238777 274.882826 
L 169.238777 274.119672 
L 170.274976 274.119672 
L 170.274976 273.356517 
L 171.273434 273.356517 
L 171.273434 272.593363 
L 172.244693 272.593363 
L 172.244693 271.830208 
L 173.197957 271.830208 
L 173.197957 271.067054 
L 174.119187 271.067054 
L 174.119187 270.303899 
L 175.015814 270.303899 
L 175.015814 269.540744 
L 175.899579 269.540744 
L 175.899579 268.77759 
L 176.755744 268.77759 
L 176.755744 268.014435 
L 177.585981 268.014435 
L 177.585981 267.251281 
L 178.391814 267.251281 
L 178.391814 266.488126 
L 179.174636 266.488126 
L 179.174636 265.724972 
L 179.935727 265.724972 
L 179.935727 264.961817 
L 180.676259 264.961817 
L 180.676259 264.198662 
L 181.397315 264.198662 
L 181.397315 263.435508 
L 182.099892 263.435508 
L 182.099892 262.672353 
L 182.784915 262.672353 
L 182.784915 261.909199 
L 183.453238 261.909199 
L 183.453238 261.146044 
L 184.113331 261.146044 
L 184.113331 260.38289 
L 184.765398 260.38289 
L 184.765398 259.619735 
L 185.402317 259.619735 
L 185.402317 258.85658 
L 186.024775 258.85658 
L 186.024775 258.093426 
L 186.633415 258.093426 
L 186.633415 257.330271 
L 187.228835 257.330271 
L 187.228835 256.567117 
L 187.818304 256.567117 
L 187.818304 255.803962 
L 188.401928 255.803962 
L 188.401928 255.040808 
L 188.973387 255.040808 
L 188.973387 254.277653 
L 189.533178 254.277653 
L 189.533178 253.514498 
L 190.081767 253.514498 
L 190.081767 252.751344 
L 190.631697 252.751344 
L 190.631697 251.988189 
L 191.170812 251.988189 
L 191.170812 251.225035 
L 191.711165 251.225035 
L 191.711165 250.46188 
L 192.241074 250.46188 
L 192.241074 249.698726 
L 192.772128 249.698726 
L 192.772128 248.935571 
L 193.29309 248.935571 
L 193.29309 248.172416 
L 193.804338 248.172416 
L 193.804338 247.409262 
L 194.306226 247.409262 
L 194.306226 246.646107 
L 194.809484 246.646107 
L 194.809484 245.882953 
L 195.303669 245.882953 
L 195.303669 245.119798 
L 195.799128 245.119798 
L 195.799128 244.356644 
L 196.285791 244.356644 
L 196.285791 243.593489 
L 196.773639 243.593489 
L 196.773639 242.830334 
L 197.262459 242.830334 
L 197.262459 242.06718 
L 197.742716 242.06718 
L 197.742716 241.304025 
L 198.214706 241.304025 
L 198.214706 240.540871 
L 198.678707 240.540871 
L 198.678707 239.777716 
L 199.134987 239.777716 
L 199.134987 239.014562 
L 199.592524 239.014562 
L 199.592524 238.251407 
L 200.042551 238.251407 
L 200.042551 237.488252 
L 200.48531 237.488252 
L 200.48531 236.725098 
L 200.921033 236.725098 
L 200.921033 235.961943 
L 201.349939 235.961943 
L 201.349939 235.198789 
L 201.788352 235.198789 
L 201.788352 234.435634 
L 202.219865 234.435634 
L 202.219865 233.672479 
L 202.644691 233.672479 
L 202.644691 232.909325 
L 203.070722 232.909325 
L 203.070722 232.14617 
L 203.490234 232.14617 
L 203.490234 231.383016 
L 203.918332 231.383016 
L 203.918332 230.619861 
L 204.339849 230.619861 
L 204.339849 229.856707 
L 204.754983 229.856707 
L 204.754983 229.093552 
L 205.171045 229.093552 
L 205.171045 228.330397 
L 205.580888 228.330397 
L 205.580888 227.567243 
L 205.991604 227.567243 
L 205.991604 226.804088 
L 206.403066 226.804088 
L 206.403066 226.040934 
L 206.808444 226.040934 
L 206.808444 225.277779 
L 207.227737 225.277779 
L 207.227737 224.514625 
L 207.640714 224.514625 
L 207.640714 223.75147 
L 208.066787 223.75147 
L 208.066787 222.988315 
L 208.48634 222.988315 
L 208.48634 222.225161 
L 208.911995 222.225161 
L 208.911995 221.462006 
L 209.337258 221.462006 
L 209.337258 220.698852 
L 209.762048 220.698852 
L 209.762048 219.935697 
L 210.180357 219.935697 
L 210.180357 219.172543 
L 210.598221 219.172543 
L 210.598221 218.409388 
L 211.015565 218.409388 
L 211.015565 217.646233 
L 211.432318 217.646233 
L 211.432318 216.883079 
L 211.84283 216.883079 
L 211.84283 216.119924 
L 212.252786 216.119924 
L 212.252786 215.35677 
L 212.656702 215.35677 
L 212.656702 214.593615 
L 213.060094 214.593615 
L 213.060094 213.830461 
L 213.462898 213.830461 
L 213.462898 213.067306 
L 213.865055 213.067306 
L 213.865055 212.304151 
L 214.261399 212.304151 
L 214.261399 211.540997 
L 214.672239 211.540997 
L 214.672239 210.777842 
L 215.09189 210.777842 
L 215.09189 210.014688 
L 215.505216 210.014688 
L 215.505216 209.251533 
L 215.919619 209.251533 
L 215.919619 208.488379 
L 216.330221 208.488379 
L 216.330221 207.725224 
L 216.734765 207.725224 
L 216.734765 206.962069 
L 217.142628 206.962069 
L 217.142628 206.198915 
L 217.546025 206.198915 
L 217.546025 205.43576 
L 217.964415 205.43576 
L 217.964415 204.672606 
L 218.380914 204.672606 
L 218.380914 203.909451 
L 218.795512 203.909451 
L 218.795512 203.146297 
L 219.216732 203.146297 
L 219.216732 202.383142 
L 219.669365 202.383142 
L 219.669365 201.619987 
L 220.1229 201.619987 
L 220.1229 200.856833 
L 220.577175 200.856833 
L 220.577175 200.093678 
L 221.044003 200.093678 
L 221.044003 199.330524 
L 221.50694 199.330524 
L 221.50694 198.567369 
L 221.966048 198.567369 
L 221.966048 197.804215 
L 222.428978 197.804215 
L 222.428978 197.04106 
L 222.887953 197.04106 
L 222.887953 196.277905 
L 223.346709 196.277905 
L 223.346709 195.514751 
L 223.805132 195.514751 
L 223.805132 194.751596 
L 224.259565 194.751596 
L 224.259565 193.988442 
L 224.71008 193.988442 
L 224.71008 193.225287 
L 225.168764 193.225287 
L 225.168764 192.462132 
L 225.631717 192.462132 
L 225.631717 191.698978 
L 226.086983 191.698978 
L 226.086983 190.935823 
L 226.538078 190.935823 
L 226.538078 190.172669 
L 227.001145 190.172669 
L 227.001145 189.409514 
L 227.462835 189.409514 
L 227.462835 188.64636 
L 227.919985 188.64636 
L 227.919985 187.883205 
L 228.3788 187.883205 
L 228.3788 187.12005 
L 228.845077 187.12005 
L 228.845077 186.356896 
L 229.341912 186.356896 
L 229.341912 185.593741 
L 229.858851 185.593741 
L 229.858851 184.830587 
L 230.488078 184.830587 
L 230.488078 184.067432 
L 231.117008 184.067432 
L 231.117008 183.304278 
L 231.86661 183.304278 
L 231.86661 182.541123 
L 232.606732 182.541123 
L 232.606732 181.777968 
L 233.350334 181.777968 
L 233.350334 181.014814 
L 234.118919 181.014814 
L 234.118919 180.251659 
L 234.885819 180.251659 
L 234.885819 179.488505 
L 235.636538 179.488505 
L 235.636538 178.72535 
L 236.542388 178.72535 
L 236.542388 177.962196 
L 237.975736 177.962196 
L 237.975736 177.199041 
L 239.849039 177.199041 
L 239.849039 176.435886 
L 241.615684 176.435886 
L 241.615684 175.672732 
L 243.443329 175.672732 
L 243.443329 174.909577 
L 245.583114 174.909577 
L 245.583114 174.146423 
L 247.948204 174.146423 
L 247.948204 173.383268 
L 250.471323 173.383268 
L 250.471323 172.620114 
L 252.863073 172.620114 
L 252.863073 171.856959 
L 255.140013 171.856959 
L 255.140013 171.093804 
L 257.401656 171.093804 
L 257.401656 170.33065 
L 260.137037 170.33065 
L 260.137037 169.567495 
L 262.897708 169.567495 
L 262.897708 168.804341 
L 265.662393 168.804341 
L 265.662393 168.041186 
L 268.902036 168.041186 
L 268.902036 167.278032 
L 272.759583 167.278032 
L 272.759583 166.514877 
L 276.658911 166.514877 
L 276.658911 165.751722 
L 280.441498 165.751722 
L 280.441498 164.988568 
L 284.886114 164.988568 
L 284.886114 164.225413 
L 291.559802 164.225413 
L 291.559802 163.462259 
L 297.977116 163.462259 
L 297.977116 162.699104 
L 304.203664 162.699104 
L 304.203664 161.93595 
L 309.560272 161.93595 
L 309.560272 161.172795 
L 314.355924 161.172795 
L 314.355924 160.40964 
L 318.468769 160.40964 
L 318.468769 159.646486 
L 323.149243 159.646486 
L 323.149243 158.883331 
L 328.827554 158.883331 
L 328.827554 158.120177 
L 334.033428 158.120177 
L 334.033428 157.357022 
L 338.555278 157.357022 
L 338.555278 156.593868 
L 342.487952 156.593868 
L 342.487952 155.830713 
L 347.087706 155.830713 
L 347.087706 155.067558 
L 351.854745 155.067558 
L 351.854745 154.304404 
L 356.561435 154.304404 
L 356.561435 153.541249 
L 361.202438 153.541249 
L 361.202438 152.778095 
L 365.406798 152.778095 
L 365.406798 152.01494 
L 369.493685 152.01494 
L 369.493685 152.01494 
" clip-path="url(#pd4e1adf1e8)" style="fill: none; stroke: #2ca02c; stroke-width: 1.5; stroke-linecap: square"/>
   </g>
   <g id="patch_3">
    <path d="M 57.6 307.584 
L 57.6 41.472 
" style="fill: none; stroke: #000000; stroke-width: 0.8; stroke-linejoin: miter; stroke-linecap: square"/>
   </g>
   <g id="patch_4">
    <path d="M 414.72 307.584 
L 414.72 41.472 
" style="fill: none; stroke: #000000; stroke-width: 0.8; stroke-linejoin: miter; stroke-linecap: square"/>
   </g>
   <g id="patch_5">
    <path d="M 57.6 307.584 
L 414.72 307.584 
" style="fill: none; stroke: #000000; stroke-width: 0.8; stroke-linejoin: miter; stroke-linecap: square"/>
   </g>
   <g id="patch_6">
    <path d="M 57.6 41.472 
L 414.72 41.472 
" style="fill: none; stroke: #000000; stroke-width: 0.8; stroke-linejoin: miter; stroke-linecap: square"/>
   </g>
   <g id="legend_1">
    <g id="patch_7">
     <path d="M 64.6 93.506375 
L 149.353125 93.506375 
Q 151.353125 93.506375 151.353125 91.506375 
L 151.353125 48.472 
Q 151.353125 46.472 149.353125 46.472 
L 64.6 46.472 
Q 62.6 46.472 62.6 48.472 
L 62.6 91.506375 
Q 62.6 93.506375 64.6 93.506375 
z
" style="fill: #ffffff; opacity: 0.8; stroke: #cccccc; stroke-linejoin: miter"/>
    </g>
    <g id="line2d_63">
     <path d="M 66.6 54.570438 
L 66.6 54.570438 
L 76.6 54.570438 
L 76.6 54.570438 
L 86.6 54.570438 
" style="fill: none; stroke: #1f77b4; stroke-width: 1.5; stroke-linecap: square"/>
    </g>
    <g id="text_16">
     <!-- ganak -->
     <g transform="translate(94.6 58.070438) scale(0.1 -0.1)">
      <defs>
       <path id="DejaVuSans-6b" d="M 581 4863 
L 1159 4863 
L 1159 1991 
L 2875 3500 
L 3609 3500 
L 1753 1863 
L 3688 0 
L 2938 0 
L 1159 1709 
L 1159 0 
L 581 0 
L 581 4863 
z
" transform="scale(0.015625)"/>
      </defs>
      <use xlink:href="#DejaVuSans-67"/>
      <use xlink:href="#DejaVuSans-61" x="63.476562"/>
      <use xlink:href="#DejaVuSans-6e" x="124.755859"/>
      <use xlink:href="#DejaVuSans-61" x="188.134766"/>
      <use xlink:href="#DejaVuSans-6b" x="249.414062"/>
     </g>
    </g>
    <g id="line2d_64">
     <path d="M 66.6 69.248563 
L 66.6 69.248563 
L 76.6 69.248563 
L 76.6 69.248563 
L 86.6 69.248563 
" style="fill: none; stroke: #ff7f0e; stroke-width: 1.5; stroke-linecap: square"/>
    </g>
    <g id="text_17">
     <!-- projMC -->
     <g transform="translate(94.6 72.748563) scale(0.1 -0.1)">
      <defs>
       <path id="DejaVuSans-70" d="M 1159 525 
L 1159 -1331 
L 581 -1331 
L 581 3500 
L 1159 3500 
L 1159 2969 
Q 1341 3281 1617 3432 
Q 1894 3584 2278 3584 
Q 2916 3584 3314 3078 
Q 3713 2572 3713 1747 
Q 3713 922 3314 415 
Q 2916 -91 2278 -91 
Q 1894 -91 1617 61 
Q 1341 213 1159 525 
z
M 3116 1747 
Q 3116 2381 2855 2742 
Q 2594 3103 2138 3103 
Q 1681 3103 1420 2742 
Q 1159 2381 1159 1747 
Q 1159 1113 1420 752 
Q 1681 391 2138 391 
Q 2594 391 2855 752 
Q 3116 1113 3116 1747 
z
" transform="scale(0.015625)"/>
       <path id="DejaVuSans-6a" d="M 603 3500 
L 1178 3500 
L 1178 -63 
Q 1178 -731 923 -1031 
Q 669 -1331 103 -1331 
L -116 -1331 
L -116 -844 
L 38 -844 
Q 366 -844 484 -692 
Q 603 -541 603 -63 
L 603 3500 
z
M 603 4863 
L 1178 4863 
L 1178 4134 
L 603 4134 
L 603 4863 
z
" transform="scale(0.015625)"/>
       <path id="DejaVuSans-4d" d="M 628 4666 
L 1569 4666 
L 2759 1491 
L 3956 4666 
L 4897 4666 
L 4897 0 
L 4281 0 
L 4281 4097 
L 3078 897 
L 2444 897 
L 1241 4097 
L 1241 0 
L 628 0 
L 628 4666 
z
" transform="scale(0.015625)"/>
       <path id="DejaVuSans-43" d="M 4122 4306 
L 4122 3641 
Q 3803 3938 3442 4084 
Q 3081 4231 2675 4231 
Q 1875 4231 1450 3742 
Q 1025 3253 1025 2328 
Q 1025 1406 1450 917 
Q 1875 428 2675 428 
Q 3081 428 3442 575 
Q 3803 722 4122 1019 
L 4122 359 
Q 3791 134 3420 21 
Q 3050 -91 2638 -91 
Q 1578 -91 968 557 
Q 359 1206 359 2328 
Q 359 3453 968 4101 
Q 1578 4750 2638 4750 
Q 3056 4750 3426 4639 
Q 3797 4528 4122 4306 
z
" transform="scale(0.015625)"/>
      </defs>
      <use xlink:href="#DejaVuSans-70"/>
      <use xlink:href="#DejaVuSans-72" x="63.476562"/>
      <use xlink:href="#DejaVuSans-6f" x="102.339844"/>
      <use xlink:href="#DejaVuSans-6a" x="163.521484"/>
      <use xlink:href="#DejaVuSans-4d" x="191.304688"/>
      <use xlink:href="#DejaVuSans-43" x="277.583984"/>
     </g>
    </g>
    <g id="line2d_65">
     <path d="M 66.6 83.926688 
L 66.6 83.926688 
L 76.6 83.926688 
L 76.6 83.926688 
L 86.6 83.926688 
" style="fill: none; stroke: #2ca02c; stroke-width: 1.5; stroke-linecap: square"/>
    </g>
    <g id="text_18">
     <!-- schlandals -->
     <g transform="translate(94.6 87.426688) scale(0.1 -0.1)">
      <defs>
       <path id="DejaVuSans-68" d="M 3513 2113 
L 3513 0 
L 2938 0 
L 2938 2094 
Q 2938 2591 2744 2837 
Q 2550 3084 2163 3084 
Q 1697 3084 1428 2787 
Q 1159 2491 1159 1978 
L 1159 0 
L 581 0 
L 581 4863 
L 1159 4863 
L 1159 2956 
Q 1366 3272 1645 3428 
Q 1925 3584 2291 3584 
Q 2894 3584 3203 3211 
Q 3513 2838 3513 2113 
z
" transform="scale(0.015625)"/>
      </defs>
      <use xlink:href="#DejaVuSans-73"/>
      <use xlink:href="#DejaVuSans-63" x="52.099609"/>
      <use xlink:href="#DejaVuSans-68" x="107.080078"/>
      <use xlink:href="#DejaVuSans-6c" x="170.458984"/>
      <use xlink:href="#DejaVuSans-61" x="198.242188"/>
      <use xlink:href="#DejaVuSans-6e" x="259.521484"/>
      <use xlink:href="#DejaVuSans-64" x="322.900391"/>
      <use xlink:href="#DejaVuSans-61" x="386.376953"/>
      <use xlink:href="#DejaVuSans-6c" x="447.65625"/>
      <use xlink:href="#DejaVuSans-73" x="475.439453"/>
     </g>
    </g>
   </g>
  </g>
 </g>
 <defs>
  <clipPath id="pd4e1adf1e8">
   <rect x="57.6" y="41.472" width="357.12" height="266.112"/>
  </clipPath>
 </defs>
</svg>
