<?xml version="1.0" encoding="utf-8" standalone="no"?>
<!DOCTYPE svg PUBLIC "-//W3C//DTD SVG 1.1//EN"
  "http://www.w3.org/Graphics/SVG/1.1/DTD/svg11.dtd">
<svg xmlns:xlink="http://www.w3.org/1999/xlink" width="460.8pt" height="345.6pt" viewBox="0 0 460.8 345.6" xmlns="http://www.w3.org/2000/svg" version="1.1">
 <metadata>
  <rdf:RDF xmlns:dc="http://purl.org/dc/elements/1.1/" xmlns:cc="http://creativecommons.org/ns#" xmlns:rdf="http://www.w3.org/1999/02/22-rdf-syntax-ns#">
   <cc:Work>
    <dc:type rdf:resource="http://purl.org/dc/dcmitype/StillImage"/>
    <dc:date>2023-02-01T14:31:30.494566</dc:date>
    <dc:format>image/svg+xml</dc:format>
    <dc:creator>
     <cc:Agent>
      <dc:title>Matplotlib v3.6.2, https://matplotlib.org/</dc:title>
     </cc:Agent>
    </dc:creator>
   </cc:Work>
  </rdf:RDF>
 </metadata>
 <defs>
  <style type="text/css">*{stroke-linejoin: round; stroke-linecap: butt}</style>
 </defs>
 <g id="figure_1">
  <g id="patch_1">
   <path d="M 0 345.6 
L 460.8 345.6 
L 460.8 0 
L 0 0 
z
" style="fill: #ffffff"/>
  </g>
  <g id="axes_1">
   <g id="patch_2">
    <path d="M 57.6 307.584 
L 414.72 307.584 
L 414.72 41.472 
L 57.6 41.472 
z
" style="fill: #ffffff"/>
   </g>
   <g id="matplotlib.axis_1">
    <g id="xtick_1">
     <g id="line2d_1">
      <defs>
       <path id="m45ccb0329e" d="M 0 0 
L 0 3.5 
" style="stroke: #000000; stroke-width: 0.8"/>
      </defs>
      <g>
       <use xlink:href="#m45ccb0329e" x="79.267711" y="307.584" style="stroke: #000000; stroke-width: 0.8"/>
      </g>
     </g>
     <g id="text_1">
      <!-- $\mathdefault{10^{-2}}$ -->
      <g transform="translate(67.517711 322.182437) scale(0.1 -0.1)">
       <defs>
        <path id="DejaVuSans-31" d="M 794 531 
L 1825 531 
L 1825 4091 
L 703 3866 
L 703 4441 
L 1819 4666 
L 2450 4666 
L 2450 531 
L 3481 531 
L 3481 0 
L 794 0 
L 794 531 
z
" transform="scale(0.015625)"/>
        <path id="DejaVuSans-30" d="M 2034 4250 
Q 1547 4250 1301 3770 
Q 1056 3291 1056 2328 
Q 1056 1369 1301 889 
Q 1547 409 2034 409 
Q 2525 409 2770 889 
Q 3016 1369 3016 2328 
Q 3016 3291 2770 3770 
Q 2525 4250 2034 4250 
z
M 2034 4750 
Q 2819 4750 3233 4129 
Q 3647 3509 3647 2328 
Q 3647 1150 3233 529 
Q 2819 -91 2034 -91 
Q 1250 -91 836 529 
Q 422 1150 422 2328 
Q 422 3509 836 4129 
Q 1250 4750 2034 4750 
z
" transform="scale(0.015625)"/>
        <path id="DejaVuSans-2212" d="M 678 2272 
L 4684 2272 
L 4684 1741 
L 678 1741 
L 678 2272 
z
" transform="scale(0.015625)"/>
        <path id="DejaVuSans-32" d="M 1228 531 
L 3431 531 
L 3431 0 
L 469 0 
L 469 531 
Q 828 903 1448 1529 
Q 2069 2156 2228 2338 
Q 2531 2678 2651 2914 
Q 2772 3150 2772 3378 
Q 2772 3750 2511 3984 
Q 2250 4219 1831 4219 
Q 1534 4219 1204 4116 
Q 875 4013 500 3803 
L 500 4441 
Q 881 4594 1212 4672 
Q 1544 4750 1819 4750 
Q 2544 4750 2975 4387 
Q 3406 4025 3406 3419 
Q 3406 3131 3298 2873 
Q 3191 2616 2906 2266 
Q 2828 2175 2409 1742 
Q 1991 1309 1228 531 
z
" transform="scale(0.015625)"/>
       </defs>
       <use xlink:href="#DejaVuSans-31" transform="translate(0 0.765625)"/>
       <use xlink:href="#DejaVuSans-30" transform="translate(63.623047 0.765625)"/>
       <use xlink:href="#DejaVuSans-2212" transform="translate(128.203125 39.046875) scale(0.7)"/>
       <use xlink:href="#DejaVuSans-32" transform="translate(186.855469 39.046875) scale(0.7)"/>
      </g>
     </g>
    </g>
    <g id="xtick_2">
     <g id="line2d_2">
      <g>
       <use xlink:href="#m45ccb0329e" x="139.837162" y="307.584" style="stroke: #000000; stroke-width: 0.8"/>
      </g>
     </g>
     <g id="text_2">
      <!-- $\mathdefault{10^{-1}}$ -->
      <g transform="translate(128.087162 322.182437) scale(0.1 -0.1)">
       <use xlink:href="#DejaVuSans-31" transform="translate(0 0.684375)"/>
       <use xlink:href="#DejaVuSans-30" transform="translate(63.623047 0.684375)"/>
       <use xlink:href="#DejaVuSans-2212" transform="translate(128.203125 38.965625) scale(0.7)"/>
       <use xlink:href="#DejaVuSans-31" transform="translate(186.855469 38.965625) scale(0.7)"/>
      </g>
     </g>
    </g>
    <g id="xtick_3">
     <g id="line2d_3">
      <g>
       <use xlink:href="#m45ccb0329e" x="200.406613" y="307.584" style="stroke: #000000; stroke-width: 0.8"/>
      </g>
     </g>
     <g id="text_3">
      <!-- $\mathdefault{10^{0}}$ -->
      <g transform="translate(191.606613 322.182437) scale(0.1 -0.1)">
       <use xlink:href="#DejaVuSans-31" transform="translate(0 0.765625)"/>
       <use xlink:href="#DejaVuSans-30" transform="translate(63.623047 0.765625)"/>
       <use xlink:href="#DejaVuSans-30" transform="translate(128.203125 39.046875) scale(0.7)"/>
      </g>
     </g>
    </g>
    <g id="xtick_4">
     <g id="line2d_4">
      <g>
       <use xlink:href="#m45ccb0329e" x="260.976064" y="307.584" style="stroke: #000000; stroke-width: 0.8"/>
      </g>
     </g>
     <g id="text_4">
      <!-- $\mathdefault{10^{1}}$ -->
      <g transform="translate(252.176064 322.182437) scale(0.1 -0.1)">
       <use xlink:href="#DejaVuSans-31" transform="translate(0 0.684375)"/>
       <use xlink:href="#DejaVuSans-30" transform="translate(63.623047 0.684375)"/>
       <use xlink:href="#DejaVuSans-31" transform="translate(128.203125 38.965625) scale(0.7)"/>
      </g>
     </g>
    </g>
    <g id="xtick_5">
     <g id="line2d_5">
      <g>
       <use xlink:href="#m45ccb0329e" x="321.545515" y="307.584" style="stroke: #000000; stroke-width: 0.8"/>
      </g>
     </g>
     <g id="text_5">
      <!-- $\mathdefault{10^{2}}$ -->
      <g transform="translate(312.745515 322.182437) scale(0.1 -0.1)">
       <use xlink:href="#DejaVuSans-31" transform="translate(0 0.765625)"/>
       <use xlink:href="#DejaVuSans-30" transform="translate(63.623047 0.765625)"/>
       <use xlink:href="#DejaVuSans-32" transform="translate(128.203125 39.046875) scale(0.7)"/>
      </g>
     </g>
    </g>
    <g id="xtick_6">
     <g id="line2d_6">
      <g>
       <use xlink:href="#m45ccb0329e" x="382.114966" y="307.584" style="stroke: #000000; stroke-width: 0.8"/>
      </g>
     </g>
     <g id="text_6">
      <!-- $\mathdefault{10^{3}}$ -->
      <g transform="translate(373.314966 322.182437) scale(0.1 -0.1)">
       <defs>
        <path id="DejaVuSans-33" d="M 2597 2516 
Q 3050 2419 3304 2112 
Q 3559 1806 3559 1356 
Q 3559 666 3084 287 
Q 2609 -91 1734 -91 
Q 1441 -91 1130 -33 
Q 819 25 488 141 
L 488 750 
Q 750 597 1062 519 
Q 1375 441 1716 441 
Q 2309 441 2620 675 
Q 2931 909 2931 1356 
Q 2931 1769 2642 2001 
Q 2353 2234 1838 2234 
L 1294 2234 
L 1294 2753 
L 1863 2753 
Q 2328 2753 2575 2939 
Q 2822 3125 2822 3475 
Q 2822 3834 2567 4026 
Q 2313 4219 1838 4219 
Q 1578 4219 1281 4162 
Q 984 4106 628 3988 
L 628 4550 
Q 988 4650 1302 4700 
Q 1616 4750 1894 4750 
Q 2613 4750 3031 4423 
Q 3450 4097 3450 3541 
Q 3450 3153 3228 2886 
Q 3006 2619 2597 2516 
z
" transform="scale(0.015625)"/>
       </defs>
       <use xlink:href="#DejaVuSans-31" transform="translate(0 0.765625)"/>
       <use xlink:href="#DejaVuSans-30" transform="translate(63.623047 0.765625)"/>
       <use xlink:href="#DejaVuSans-33" transform="translate(128.203125 39.046875) scale(0.7)"/>
      </g>
     </g>
    </g>
    <g id="xtick_7">
     <g id="line2d_7">
      <defs>
       <path id="m6d14fd7972" d="M 0 0 
L 0 2 
" style="stroke: #000000; stroke-width: 0.6"/>
      </defs>
      <g>
       <use xlink:href="#m6d14fd7972" x="61.034489" y="307.584" style="stroke: #000000; stroke-width: 0.6"/>
      </g>
     </g>
    </g>
    <g id="xtick_8">
     <g id="line2d_8">
      <g>
       <use xlink:href="#m6d14fd7972" x="65.830454" y="307.584" style="stroke: #000000; stroke-width: 0.6"/>
      </g>
     </g>
    </g>
    <g id="xtick_9">
     <g id="line2d_9">
      <g>
       <use xlink:href="#m6d14fd7972" x="69.885384" y="307.584" style="stroke: #000000; stroke-width: 0.6"/>
      </g>
     </g>
    </g>
    <g id="xtick_10">
     <g id="line2d_10">
      <g>
       <use xlink:href="#m6d14fd7972" x="73.397924" y="307.584" style="stroke: #000000; stroke-width: 0.6"/>
      </g>
     </g>
    </g>
    <g id="xtick_11">
     <g id="line2d_11">
      <g>
       <use xlink:href="#m6d14fd7972" x="76.496205" y="307.584" style="stroke: #000000; stroke-width: 0.6"/>
      </g>
     </g>
    </g>
    <g id="xtick_12">
     <g id="line2d_12">
      <g>
       <use xlink:href="#m6d14fd7972" x="97.500932" y="307.584" style="stroke: #000000; stroke-width: 0.6"/>
      </g>
     </g>
    </g>
    <g id="xtick_13">
     <g id="line2d_13">
      <g>
       <use xlink:href="#m6d14fd7972" x="108.166683" y="307.584" style="stroke: #000000; stroke-width: 0.6"/>
      </g>
     </g>
    </g>
    <g id="xtick_14">
     <g id="line2d_14">
      <g>
       <use xlink:href="#m6d14fd7972" x="115.734154" y="307.584" style="stroke: #000000; stroke-width: 0.6"/>
      </g>
     </g>
    </g>
    <g id="xtick_15">
     <g id="line2d_15">
      <g>
       <use xlink:href="#m6d14fd7972" x="121.60394" y="307.584" style="stroke: #000000; stroke-width: 0.6"/>
      </g>
     </g>
    </g>
    <g id="xtick_16">
     <g id="line2d_16">
      <g>
       <use xlink:href="#m6d14fd7972" x="126.399905" y="307.584" style="stroke: #000000; stroke-width: 0.6"/>
      </g>
     </g>
    </g>
    <g id="xtick_17">
     <g id="line2d_17">
      <g>
       <use xlink:href="#m6d14fd7972" x="130.454835" y="307.584" style="stroke: #000000; stroke-width: 0.6"/>
      </g>
     </g>
    </g>
    <g id="xtick_18">
     <g id="line2d_18">
      <g>
       <use xlink:href="#m6d14fd7972" x="133.967375" y="307.584" style="stroke: #000000; stroke-width: 0.6"/>
      </g>
     </g>
    </g>
    <g id="xtick_19">
     <g id="line2d_19">
      <g>
       <use xlink:href="#m6d14fd7972" x="137.065656" y="307.584" style="stroke: #000000; stroke-width: 0.6"/>
      </g>
     </g>
    </g>
    <g id="xtick_20">
     <g id="line2d_20">
      <g>
       <use xlink:href="#m6d14fd7972" x="158.070383" y="307.584" style="stroke: #000000; stroke-width: 0.6"/>
      </g>
     </g>
    </g>
    <g id="xtick_21">
     <g id="line2d_21">
      <g>
       <use xlink:href="#m6d14fd7972" x="168.736134" y="307.584" style="stroke: #000000; stroke-width: 0.6"/>
      </g>
     </g>
    </g>
    <g id="xtick_22">
     <g id="line2d_22">
      <g>
       <use xlink:href="#m6d14fd7972" x="176.303605" y="307.584" style="stroke: #000000; stroke-width: 0.6"/>
      </g>
     </g>
    </g>
    <g id="xtick_23">
     <g id="line2d_23">
      <g>
       <use xlink:href="#m6d14fd7972" x="182.173391" y="307.584" style="stroke: #000000; stroke-width: 0.6"/>
      </g>
     </g>
    </g>
    <g id="xtick_24">
     <g id="line2d_24">
      <g>
       <use xlink:href="#m6d14fd7972" x="186.969356" y="307.584" style="stroke: #000000; stroke-width: 0.6"/>
      </g>
     </g>
    </g>
    <g id="xtick_25">
     <g id="line2d_25">
      <g>
       <use xlink:href="#m6d14fd7972" x="191.024286" y="307.584" style="stroke: #000000; stroke-width: 0.6"/>
      </g>
     </g>
    </g>
    <g id="xtick_26">
     <g id="line2d_26">
      <g>
       <use xlink:href="#m6d14fd7972" x="194.536826" y="307.584" style="stroke: #000000; stroke-width: 0.6"/>
      </g>
     </g>
    </g>
    <g id="xtick_27">
     <g id="line2d_27">
      <g>
       <use xlink:href="#m6d14fd7972" x="197.635107" y="307.584" style="stroke: #000000; stroke-width: 0.6"/>
      </g>
     </g>
    </g>
    <g id="xtick_28">
     <g id="line2d_28">
      <g>
       <use xlink:href="#m6d14fd7972" x="218.639834" y="307.584" style="stroke: #000000; stroke-width: 0.6"/>
      </g>
     </g>
    </g>
    <g id="xtick_29">
     <g id="line2d_29">
      <g>
       <use xlink:href="#m6d14fd7972" x="229.305585" y="307.584" style="stroke: #000000; stroke-width: 0.6"/>
      </g>
     </g>
    </g>
    <g id="xtick_30">
     <g id="line2d_30">
      <g>
       <use xlink:href="#m6d14fd7972" x="236.873056" y="307.584" style="stroke: #000000; stroke-width: 0.6"/>
      </g>
     </g>
    </g>
    <g id="xtick_31">
     <g id="line2d_31">
      <g>
       <use xlink:href="#m6d14fd7972" x="242.742842" y="307.584" style="stroke: #000000; stroke-width: 0.6"/>
      </g>
     </g>
    </g>
    <g id="xtick_32">
     <g id="line2d_32">
      <g>
       <use xlink:href="#m6d14fd7972" x="247.538807" y="307.584" style="stroke: #000000; stroke-width: 0.6"/>
      </g>
     </g>
    </g>
    <g id="xtick_33">
     <g id="line2d_33">
      <g>
       <use xlink:href="#m6d14fd7972" x="251.593737" y="307.584" style="stroke: #000000; stroke-width: 0.6"/>
      </g>
     </g>
    </g>
    <g id="xtick_34">
     <g id="line2d_34">
      <g>
       <use xlink:href="#m6d14fd7972" x="255.106277" y="307.584" style="stroke: #000000; stroke-width: 0.6"/>
      </g>
     </g>
    </g>
    <g id="xtick_35">
     <g id="line2d_35">
      <g>
       <use xlink:href="#m6d14fd7972" x="258.204557" y="307.584" style="stroke: #000000; stroke-width: 0.6"/>
      </g>
     </g>
    </g>
    <g id="xtick_36">
     <g id="line2d_36">
      <g>
       <use xlink:href="#m6d14fd7972" x="279.209285" y="307.584" style="stroke: #000000; stroke-width: 0.6"/>
      </g>
     </g>
    </g>
    <g id="xtick_37">
     <g id="line2d_37">
      <g>
       <use xlink:href="#m6d14fd7972" x="289.875036" y="307.584" style="stroke: #000000; stroke-width: 0.6"/>
      </g>
     </g>
    </g>
    <g id="xtick_38">
     <g id="line2d_38">
      <g>
       <use xlink:href="#m6d14fd7972" x="297.442507" y="307.584" style="stroke: #000000; stroke-width: 0.6"/>
      </g>
     </g>
    </g>
    <g id="xtick_39">
     <g id="line2d_39">
      <g>
       <use xlink:href="#m6d14fd7972" x="303.312293" y="307.584" style="stroke: #000000; stroke-width: 0.6"/>
      </g>
     </g>
    </g>
    <g id="xtick_40">
     <g id="line2d_40">
      <g>
       <use xlink:href="#m6d14fd7972" x="308.108258" y="307.584" style="stroke: #000000; stroke-width: 0.6"/>
      </g>
     </g>
    </g>
    <g id="xtick_41">
     <g id="line2d_41">
      <g>
       <use xlink:href="#m6d14fd7972" x="312.163188" y="307.584" style="stroke: #000000; stroke-width: 0.6"/>
      </g>
     </g>
    </g>
    <g id="xtick_42">
     <g id="line2d_42">
      <g>
       <use xlink:href="#m6d14fd7972" x="315.675728" y="307.584" style="stroke: #000000; stroke-width: 0.6"/>
      </g>
     </g>
    </g>
    <g id="xtick_43">
     <g id="line2d_43">
      <g>
       <use xlink:href="#m6d14fd7972" x="318.774008" y="307.584" style="stroke: #000000; stroke-width: 0.6"/>
      </g>
     </g>
    </g>
    <g id="xtick_44">
     <g id="line2d_44">
      <g>
       <use xlink:href="#m6d14fd7972" x="339.778736" y="307.584" style="stroke: #000000; stroke-width: 0.6"/>
      </g>
     </g>
    </g>
    <g id="xtick_45">
     <g id="line2d_45">
      <g>
       <use xlink:href="#m6d14fd7972" x="350.444487" y="307.584" style="stroke: #000000; stroke-width: 0.6"/>
      </g>
     </g>
    </g>
    <g id="xtick_46">
     <g id="line2d_46">
      <g>
       <use xlink:href="#m6d14fd7972" x="358.011958" y="307.584" style="stroke: #000000; stroke-width: 0.6"/>
      </g>
     </g>
    </g>
    <g id="xtick_47">
     <g id="line2d_47">
      <g>
       <use xlink:href="#m6d14fd7972" x="363.881744" y="307.584" style="stroke: #000000; stroke-width: 0.6"/>
      </g>
     </g>
    </g>
    <g id="xtick_48">
     <g id="line2d_48">
      <g>
       <use xlink:href="#m6d14fd7972" x="368.677709" y="307.584" style="stroke: #000000; stroke-width: 0.6"/>
      </g>
     </g>
    </g>
    <g id="xtick_49">
     <g id="line2d_49">
      <g>
       <use xlink:href="#m6d14fd7972" x="372.732639" y="307.584" style="stroke: #000000; stroke-width: 0.6"/>
      </g>
     </g>
    </g>
    <g id="xtick_50">
     <g id="line2d_50">
      <g>
       <use xlink:href="#m6d14fd7972" x="376.245179" y="307.584" style="stroke: #000000; stroke-width: 0.6"/>
      </g>
     </g>
    </g>
    <g id="xtick_51">
     <g id="line2d_51">
      <g>
       <use xlink:href="#m6d14fd7972" x="379.343459" y="307.584" style="stroke: #000000; stroke-width: 0.6"/>
      </g>
     </g>
    </g>
    <g id="xtick_52">
     <g id="line2d_52">
      <g>
       <use xlink:href="#m6d14fd7972" x="400.348187" y="307.584" style="stroke: #000000; stroke-width: 0.6"/>
      </g>
     </g>
    </g>
    <g id="xtick_53">
     <g id="line2d_53">
      <g>
       <use xlink:href="#m6d14fd7972" x="411.013938" y="307.584" style="stroke: #000000; stroke-width: 0.6"/>
      </g>
     </g>
    </g>
    <g id="text_7">
     <!-- Time in second (log-scale) -->
     <g transform="translate(170.556875 335.860562) scale(0.1 -0.1)">
      <defs>
       <path id="DejaVuSans-54" d="M -19 4666 
L 3928 4666 
L 3928 4134 
L 2272 4134 
L 2272 0 
L 1638 0 
L 1638 4134 
L -19 4134 
L -19 4666 
z
" transform="scale(0.015625)"/>
       <path id="DejaVuSans-69" d="M 603 3500 
L 1178 3500 
L 1178 0 
L 603 0 
L 603 3500 
z
M 603 4863 
L 1178 4863 
L 1178 4134 
L 603 4134 
L 603 4863 
z
" transform="scale(0.015625)"/>
       <path id="DejaVuSans-6d" d="M 3328 2828 
Q 3544 3216 3844 3400 
Q 4144 3584 4550 3584 
Q 5097 3584 5394 3201 
Q 5691 2819 5691 2113 
L 5691 0 
L 5113 0 
L 5113 2094 
Q 5113 2597 4934 2840 
Q 4756 3084 4391 3084 
Q 3944 3084 3684 2787 
Q 3425 2491 3425 1978 
L 3425 0 
L 2847 0 
L 2847 2094 
Q 2847 2600 2669 2842 
Q 2491 3084 2119 3084 
Q 1678 3084 1418 2786 
Q 1159 2488 1159 1978 
L 1159 0 
L 581 0 
L 581 3500 
L 1159 3500 
L 1159 2956 
Q 1356 3278 1631 3431 
Q 1906 3584 2284 3584 
Q 2666 3584 2933 3390 
Q 3200 3197 3328 2828 
z
" transform="scale(0.015625)"/>
       <path id="DejaVuSans-65" d="M 3597 1894 
L 3597 1613 
L 953 1613 
Q 991 1019 1311 708 
Q 1631 397 2203 397 
Q 2534 397 2845 478 
Q 3156 559 3463 722 
L 3463 178 
Q 3153 47 2828 -22 
Q 2503 -91 2169 -91 
Q 1331 -91 842 396 
Q 353 884 353 1716 
Q 353 2575 817 3079 
Q 1281 3584 2069 3584 
Q 2775 3584 3186 3129 
Q 3597 2675 3597 1894 
z
M 3022 2063 
Q 3016 2534 2758 2815 
Q 2500 3097 2075 3097 
Q 1594 3097 1305 2825 
Q 1016 2553 972 2059 
L 3022 2063 
z
" transform="scale(0.015625)"/>
       <path id="DejaVuSans-20" transform="scale(0.015625)"/>
       <path id="DejaVuSans-6e" d="M 3513 2113 
L 3513 0 
L 2938 0 
L 2938 2094 
Q 2938 2591 2744 2837 
Q 2550 3084 2163 3084 
Q 1697 3084 1428 2787 
Q 1159 2491 1159 1978 
L 1159 0 
L 581 0 
L 581 3500 
L 1159 3500 
L 1159 2956 
Q 1366 3272 1645 3428 
Q 1925 3584 2291 3584 
Q 2894 3584 3203 3211 
Q 3513 2838 3513 2113 
z
" transform="scale(0.015625)"/>
       <path id="DejaVuSans-73" d="M 2834 3397 
L 2834 2853 
Q 2591 2978 2328 3040 
Q 2066 3103 1784 3103 
Q 1356 3103 1142 2972 
Q 928 2841 928 2578 
Q 928 2378 1081 2264 
Q 1234 2150 1697 2047 
L 1894 2003 
Q 2506 1872 2764 1633 
Q 3022 1394 3022 966 
Q 3022 478 2636 193 
Q 2250 -91 1575 -91 
Q 1294 -91 989 -36 
Q 684 19 347 128 
L 347 722 
Q 666 556 975 473 
Q 1284 391 1588 391 
Q 1994 391 2212 530 
Q 2431 669 2431 922 
Q 2431 1156 2273 1281 
Q 2116 1406 1581 1522 
L 1381 1569 
Q 847 1681 609 1914 
Q 372 2147 372 2553 
Q 372 3047 722 3315 
Q 1072 3584 1716 3584 
Q 2034 3584 2315 3537 
Q 2597 3491 2834 3397 
z
" transform="scale(0.015625)"/>
       <path id="DejaVuSans-63" d="M 3122 3366 
L 3122 2828 
Q 2878 2963 2633 3030 
Q 2388 3097 2138 3097 
Q 1578 3097 1268 2742 
Q 959 2388 959 1747 
Q 959 1106 1268 751 
Q 1578 397 2138 397 
Q 2388 397 2633 464 
Q 2878 531 3122 666 
L 3122 134 
Q 2881 22 2623 -34 
Q 2366 -91 2075 -91 
Q 1284 -91 818 406 
Q 353 903 353 1747 
Q 353 2603 823 3093 
Q 1294 3584 2113 3584 
Q 2378 3584 2631 3529 
Q 2884 3475 3122 3366 
z
" transform="scale(0.015625)"/>
       <path id="DejaVuSans-6f" d="M 1959 3097 
Q 1497 3097 1228 2736 
Q 959 2375 959 1747 
Q 959 1119 1226 758 
Q 1494 397 1959 397 
Q 2419 397 2687 759 
Q 2956 1122 2956 1747 
Q 2956 2369 2687 2733 
Q 2419 3097 1959 3097 
z
M 1959 3584 
Q 2709 3584 3137 3096 
Q 3566 2609 3566 1747 
Q 3566 888 3137 398 
Q 2709 -91 1959 -91 
Q 1206 -91 779 398 
Q 353 888 353 1747 
Q 353 2609 779 3096 
Q 1206 3584 1959 3584 
z
" transform="scale(0.015625)"/>
       <path id="DejaVuSans-64" d="M 2906 2969 
L 2906 4863 
L 3481 4863 
L 3481 0 
L 2906 0 
L 2906 525 
Q 2725 213 2448 61 
Q 2172 -91 1784 -91 
Q 1150 -91 751 415 
Q 353 922 353 1747 
Q 353 2572 751 3078 
Q 1150 3584 1784 3584 
Q 2172 3584 2448 3432 
Q 2725 3281 2906 2969 
z
M 947 1747 
Q 947 1113 1208 752 
Q 1469 391 1925 391 
Q 2381 391 2643 752 
Q 2906 1113 2906 1747 
Q 2906 2381 2643 2742 
Q 2381 3103 1925 3103 
Q 1469 3103 1208 2742 
Q 947 2381 947 1747 
z
" transform="scale(0.015625)"/>
       <path id="DejaVuSans-28" d="M 1984 4856 
Q 1566 4138 1362 3434 
Q 1159 2731 1159 2009 
Q 1159 1288 1364 580 
Q 1569 -128 1984 -844 
L 1484 -844 
Q 1016 -109 783 600 
Q 550 1309 550 2009 
Q 550 2706 781 3412 
Q 1013 4119 1484 4856 
L 1984 4856 
z
" transform="scale(0.015625)"/>
       <path id="DejaVuSans-6c" d="M 603 4863 
L 1178 4863 
L 1178 0 
L 603 0 
L 603 4863 
z
" transform="scale(0.015625)"/>
       <path id="DejaVuSans-67" d="M 2906 1791 
Q 2906 2416 2648 2759 
Q 2391 3103 1925 3103 
Q 1463 3103 1205 2759 
Q 947 2416 947 1791 
Q 947 1169 1205 825 
Q 1463 481 1925 481 
Q 2391 481 2648 825 
Q 2906 1169 2906 1791 
z
M 3481 434 
Q 3481 -459 3084 -895 
Q 2688 -1331 1869 -1331 
Q 1566 -1331 1297 -1286 
Q 1028 -1241 775 -1147 
L 775 -588 
Q 1028 -725 1275 -790 
Q 1522 -856 1778 -856 
Q 2344 -856 2625 -561 
Q 2906 -266 2906 331 
L 2906 616 
Q 2728 306 2450 153 
Q 2172 0 1784 0 
Q 1141 0 747 490 
Q 353 981 353 1791 
Q 353 2603 747 3093 
Q 1141 3584 1784 3584 
Q 2172 3584 2450 3431 
Q 2728 3278 2906 2969 
L 2906 3500 
L 3481 3500 
L 3481 434 
z
" transform="scale(0.015625)"/>
       <path id="DejaVuSans-2d" d="M 313 2009 
L 1997 2009 
L 1997 1497 
L 313 1497 
L 313 2009 
z
" transform="scale(0.015625)"/>
       <path id="DejaVuSans-61" d="M 2194 1759 
Q 1497 1759 1228 1600 
Q 959 1441 959 1056 
Q 959 750 1161 570 
Q 1363 391 1709 391 
Q 2188 391 2477 730 
Q 2766 1069 2766 1631 
L 2766 1759 
L 2194 1759 
z
M 3341 1997 
L 3341 0 
L 2766 0 
L 2766 531 
Q 2569 213 2275 61 
Q 1981 -91 1556 -91 
Q 1019 -91 701 211 
Q 384 513 384 1019 
Q 384 1609 779 1909 
Q 1175 2209 1959 2209 
L 2766 2209 
L 2766 2266 
Q 2766 2663 2505 2880 
Q 2244 3097 1772 3097 
Q 1472 3097 1187 3025 
Q 903 2953 641 2809 
L 641 3341 
Q 956 3463 1253 3523 
Q 1550 3584 1831 3584 
Q 2591 3584 2966 3190 
Q 3341 2797 3341 1997 
z
" transform="scale(0.015625)"/>
       <path id="DejaVuSans-29" d="M 513 4856 
L 1013 4856 
Q 1481 4119 1714 3412 
Q 1947 2706 1947 2009 
Q 1947 1309 1714 600 
Q 1481 -109 1013 -844 
L 513 -844 
Q 928 -128 1133 580 
Q 1338 1288 1338 2009 
Q 1338 2731 1133 3434 
Q 928 4138 513 4856 
z
" transform="scale(0.015625)"/>
      </defs>
      <use xlink:href="#DejaVuSans-54"/>
      <use xlink:href="#DejaVuSans-69" x="57.958984"/>
      <use xlink:href="#DejaVuSans-6d" x="85.742188"/>
      <use xlink:href="#DejaVuSans-65" x="183.154297"/>
      <use xlink:href="#DejaVuSans-20" x="244.677734"/>
      <use xlink:href="#DejaVuSans-69" x="276.464844"/>
      <use xlink:href="#DejaVuSans-6e" x="304.248047"/>
      <use xlink:href="#DejaVuSans-20" x="367.626953"/>
      <use xlink:href="#DejaVuSans-73" x="399.414062"/>
      <use xlink:href="#DejaVuSans-65" x="451.513672"/>
      <use xlink:href="#DejaVuSans-63" x="513.037109"/>
      <use xlink:href="#DejaVuSans-6f" x="568.017578"/>
      <use xlink:href="#DejaVuSans-6e" x="629.199219"/>
      <use xlink:href="#DejaVuSans-64" x="692.578125"/>
      <use xlink:href="#DejaVuSans-20" x="756.054688"/>
      <use xlink:href="#DejaVuSans-28" x="787.841797"/>
      <use xlink:href="#DejaVuSans-6c" x="826.855469"/>
      <use xlink:href="#DejaVuSans-6f" x="854.638672"/>
      <use xlink:href="#DejaVuSans-67" x="915.820312"/>
      <use xlink:href="#DejaVuSans-2d" x="979.296875"/>
      <use xlink:href="#DejaVuSans-73" x="1015.380859"/>
      <use xlink:href="#DejaVuSans-63" x="1067.480469"/>
      <use xlink:href="#DejaVuSans-61" x="1122.460938"/>
      <use xlink:href="#DejaVuSans-6c" x="1183.740234"/>
      <use xlink:href="#DejaVuSans-65" x="1211.523438"/>
      <use xlink:href="#DejaVuSans-29" x="1273.046875"/>
     </g>
    </g>
   </g>
   <g id="matplotlib.axis_2">
    <g id="ytick_1">
     <g id="line2d_54">
      <defs>
       <path id="m40b87ecc52" d="M 0 0 
L -3.5 0 
" style="stroke: #000000; stroke-width: 0.8"/>
      </defs>
      <g>
       <use xlink:href="#m40b87ecc52" x="57.6" y="295.488" style="stroke: #000000; stroke-width: 0.8"/>
      </g>
     </g>
     <g id="text_8">
      <!-- 0 -->
      <g transform="translate(44.2375 299.287219) scale(0.1 -0.1)">
       <use xlink:href="#DejaVuSans-30"/>
      </g>
     </g>
    </g>
    <g id="ytick_2">
     <g id="line2d_55">
      <g>
       <use xlink:href="#m40b87ecc52" x="57.6" y="243.124364" style="stroke: #000000; stroke-width: 0.8"/>
      </g>
     </g>
     <g id="text_9">
      <!-- 50 -->
      <g transform="translate(37.875 246.923582) scale(0.1 -0.1)">
       <defs>
        <path id="DejaVuSans-35" d="M 691 4666 
L 3169 4666 
L 3169 4134 
L 1269 4134 
L 1269 2991 
Q 1406 3038 1543 3061 
Q 1681 3084 1819 3084 
Q 2600 3084 3056 2656 
Q 3513 2228 3513 1497 
Q 3513 744 3044 326 
Q 2575 -91 1722 -91 
Q 1428 -91 1123 -41 
Q 819 9 494 109 
L 494 744 
Q 775 591 1075 516 
Q 1375 441 1709 441 
Q 2250 441 2565 725 
Q 2881 1009 2881 1497 
Q 2881 1984 2565 2268 
Q 2250 2553 1709 2553 
Q 1456 2553 1204 2497 
Q 953 2441 691 2322 
L 691 4666 
z
" transform="scale(0.015625)"/>
       </defs>
       <use xlink:href="#DejaVuSans-35"/>
       <use xlink:href="#DejaVuSans-30" x="63.623047"/>
      </g>
     </g>
    </g>
    <g id="ytick_3">
     <g id="line2d_56">
      <g>
       <use xlink:href="#m40b87ecc52" x="57.6" y="190.760727" style="stroke: #000000; stroke-width: 0.8"/>
      </g>
     </g>
     <g id="text_10">
      <!-- 100 -->
      <g transform="translate(31.5125 194.559946) scale(0.1 -0.1)">
       <use xlink:href="#DejaVuSans-31"/>
       <use xlink:href="#DejaVuSans-30" x="63.623047"/>
       <use xlink:href="#DejaVuSans-30" x="127.246094"/>
      </g>
     </g>
    </g>
    <g id="ytick_4">
     <g id="line2d_57">
      <g>
       <use xlink:href="#m40b87ecc52" x="57.6" y="138.397091" style="stroke: #000000; stroke-width: 0.8"/>
      </g>
     </g>
     <g id="text_11">
      <!-- 150 -->
      <g transform="translate(31.5125 142.19631) scale(0.1 -0.1)">
       <use xlink:href="#DejaVuSans-31"/>
       <use xlink:href="#DejaVuSans-35" x="63.623047"/>
       <use xlink:href="#DejaVuSans-30" x="127.246094"/>
      </g>
     </g>
    </g>
    <g id="ytick_5">
     <g id="line2d_58">
      <g>
       <use xlink:href="#m40b87ecc52" x="57.6" y="86.033455" style="stroke: #000000; stroke-width: 0.8"/>
      </g>
     </g>
     <g id="text_12">
      <!-- 200 -->
      <g transform="translate(31.5125 89.832673) scale(0.1 -0.1)">
       <use xlink:href="#DejaVuSans-32"/>
       <use xlink:href="#DejaVuSans-30" x="63.623047"/>
       <use xlink:href="#DejaVuSans-30" x="127.246094"/>
      </g>
     </g>
    </g>
    <g id="text_13">
     <!-- Number of inst. solved -->
     <g transform="translate(25.432812 231.175656) rotate(-90) scale(0.1 -0.1)">
      <defs>
       <path id="DejaVuSans-4e" d="M 628 4666 
L 1478 4666 
L 3547 763 
L 3547 4666 
L 4159 4666 
L 4159 0 
L 3309 0 
L 1241 3903 
L 1241 0 
L 628 0 
L 628 4666 
z
" transform="scale(0.015625)"/>
       <path id="DejaVuSans-75" d="M 544 1381 
L 544 3500 
L 1119 3500 
L 1119 1403 
Q 1119 906 1312 657 
Q 1506 409 1894 409 
Q 2359 409 2629 706 
Q 2900 1003 2900 1516 
L 2900 3500 
L 3475 3500 
L 3475 0 
L 2900 0 
L 2900 538 
Q 2691 219 2414 64 
Q 2138 -91 1772 -91 
Q 1169 -91 856 284 
Q 544 659 544 1381 
z
M 1991 3584 
L 1991 3584 
z
" transform="scale(0.015625)"/>
       <path id="DejaVuSans-62" d="M 3116 1747 
Q 3116 2381 2855 2742 
Q 2594 3103 2138 3103 
Q 1681 3103 1420 2742 
Q 1159 2381 1159 1747 
Q 1159 1113 1420 752 
Q 1681 391 2138 391 
Q 2594 391 2855 752 
Q 3116 1113 3116 1747 
z
M 1159 2969 
Q 1341 3281 1617 3432 
Q 1894 3584 2278 3584 
Q 2916 3584 3314 3078 
Q 3713 2572 3713 1747 
Q 3713 922 3314 415 
Q 2916 -91 2278 -91 
Q 1894 -91 1617 61 
Q 1341 213 1159 525 
L 1159 0 
L 581 0 
L 581 4863 
L 1159 4863 
L 1159 2969 
z
" transform="scale(0.015625)"/>
       <path id="DejaVuSans-72" d="M 2631 2963 
Q 2534 3019 2420 3045 
Q 2306 3072 2169 3072 
Q 1681 3072 1420 2755 
Q 1159 2438 1159 1844 
L 1159 0 
L 581 0 
L 581 3500 
L 1159 3500 
L 1159 2956 
Q 1341 3275 1631 3429 
Q 1922 3584 2338 3584 
Q 2397 3584 2469 3576 
Q 2541 3569 2628 3553 
L 2631 2963 
z
" transform="scale(0.015625)"/>
       <path id="DejaVuSans-66" d="M 2375 4863 
L 2375 4384 
L 1825 4384 
Q 1516 4384 1395 4259 
Q 1275 4134 1275 3809 
L 1275 3500 
L 2222 3500 
L 2222 3053 
L 1275 3053 
L 1275 0 
L 697 0 
L 697 3053 
L 147 3053 
L 147 3500 
L 697 3500 
L 697 3744 
Q 697 4328 969 4595 
Q 1241 4863 1831 4863 
L 2375 4863 
z
" transform="scale(0.015625)"/>
       <path id="DejaVuSans-74" d="M 1172 4494 
L 1172 3500 
L 2356 3500 
L 2356 3053 
L 1172 3053 
L 1172 1153 
Q 1172 725 1289 603 
Q 1406 481 1766 481 
L 2356 481 
L 2356 0 
L 1766 0 
Q 1100 0 847 248 
Q 594 497 594 1153 
L 594 3053 
L 172 3053 
L 172 3500 
L 594 3500 
L 594 4494 
L 1172 4494 
z
" transform="scale(0.015625)"/>
       <path id="DejaVuSans-2e" d="M 684 794 
L 1344 794 
L 1344 0 
L 684 0 
L 684 794 
z
" transform="scale(0.015625)"/>
       <path id="DejaVuSans-76" d="M 191 3500 
L 800 3500 
L 1894 563 
L 2988 3500 
L 3597 3500 
L 2284 0 
L 1503 0 
L 191 3500 
z
" transform="scale(0.015625)"/>
      </defs>
      <use xlink:href="#DejaVuSans-4e"/>
      <use xlink:href="#DejaVuSans-75" x="74.804688"/>
      <use xlink:href="#DejaVuSans-6d" x="138.183594"/>
      <use xlink:href="#DejaVuSans-62" x="235.595703"/>
      <use xlink:href="#DejaVuSans-65" x="299.072266"/>
      <use xlink:href="#DejaVuSans-72" x="360.595703"/>
      <use xlink:href="#DejaVuSans-20" x="401.708984"/>
      <use xlink:href="#DejaVuSans-6f" x="433.496094"/>
      <use xlink:href="#DejaVuSans-66" x="494.677734"/>
      <use xlink:href="#DejaVuSans-20" x="529.882812"/>
      <use xlink:href="#DejaVuSans-69" x="561.669922"/>
      <use xlink:href="#DejaVuSans-6e" x="589.453125"/>
      <use xlink:href="#DejaVuSans-73" x="652.832031"/>
      <use xlink:href="#DejaVuSans-74" x="704.931641"/>
      <use xlink:href="#DejaVuSans-2e" x="744.140625"/>
      <use xlink:href="#DejaVuSans-20" x="775.927734"/>
      <use xlink:href="#DejaVuSans-73" x="807.714844"/>
      <use xlink:href="#DejaVuSans-6f" x="859.814453"/>
      <use xlink:href="#DejaVuSans-6c" x="920.996094"/>
      <use xlink:href="#DejaVuSans-76" x="948.779297"/>
      <use xlink:href="#DejaVuSans-65" x="1007.958984"/>
      <use xlink:href="#DejaVuSans-64" x="1069.482422"/>
     </g>
    </g>
   </g>
   <g id="line2d_59">
    <path d="M 88.118606 295.488 
L 88.118606 294.440727 
L 107.724572 294.440727 
L 107.724572 293.393455 
L 118.949086 293.393455 
L 118.949086 292.346182 
L 126.791549 292.346182 
L 126.791549 291.298909 
L 149.264169 291.298909 
L 149.264169 290.251636 
L 164.087066 290.251636 
L 164.087066 289.204364 
L 179.9686 289.204364 
" clip-path="url(#pcadf226690)" style="fill: none; stroke: #1f77b4; stroke-width: 1.5; stroke-linecap: square"/>
   </g>
   <g id="line2d_60">
    <path d="M 116.060928 295.488 
L 116.060928 294.440727 
L 134.456027 294.440727 
L 134.456027 293.393455 
L 145.196981 293.393455 
L 145.196981 292.346182 
L 152.978141 292.346182 
L 152.978141 291.298909 
L 159.000715 291.298909 
L 159.000715 290.251636 
L 164.430112 290.251636 
L 164.430112 289.204364 
L 169.493807 289.204364 
L 169.493807 288.157091 
L 174.086416 288.157091 
L 174.086416 287.109818 
L 178.299632 287.109818 
L 178.299632 286.062545 
L 181.976244 286.062545 
L 181.976244 285.015273 
L 188.466248 285.015273 
L 188.466248 283.968 
L 193.925194 283.968 
L 193.925194 282.920727 
L 198.801732 282.920727 
L 198.801732 281.873455 
L 204.923733 281.873455 
L 204.923733 280.826182 
L 210.829474 280.826182 
L 210.829474 279.778909 
L 216.483817 279.778909 
L 216.483817 278.731636 
L 221.168639 278.731636 
L 221.168639 277.684364 
L 225.236856 277.684364 
L 225.236856 276.637091 
L 228.876668 276.637091 
L 228.876668 275.589818 
L 232.861887 275.589818 
L 232.861887 274.542545 
L 237.274935 274.542545 
L 237.274935 273.495273 
L 243.467791 273.495273 
L 243.467791 272.448 
L 249.813002 272.448 
L 249.813002 271.400727 
L 256.492882 271.400727 
L 256.492882 270.353455 
L 262.155096 270.353455 
L 262.155096 269.306182 
L 268.541325 269.306182 
L 268.541325 268.258909 
L 274.515941 268.258909 
L 274.515941 267.211636 
L 279.535687 267.211636 
L 279.535687 266.164364 
L 283.79895 266.164364 
L 283.79895 265.117091 
L 287.547735 265.117091 
L 287.547735 264.069818 
L 291.669634 264.069818 
L 291.669634 263.022545 
L 295.251667 263.022545 
L 295.251667 261.975273 
L 298.437134 261.975273 
L 298.437134 260.928 
L 301.280798 260.928 
L 301.280798 259.880727 
L 304.273641 259.880727 
L 304.273641 258.833455 
L 307.047135 258.833455 
L 307.047135 257.786182 
L 309.636227 257.786182 
L 309.636227 256.738909 
L 312.064288 256.738909 
L 312.064288 255.691636 
L 314.420199 255.691636 
L 314.420199 254.644364 
L 317.147998 254.644364 
L 317.147998 253.597091 
L 319.623109 253.597091 
L 319.623109 252.549818 
L 323.399833 252.549818 
L 323.399833 251.502545 
L 327.706367 251.502545 
L 327.706367 250.455273 
L 331.489845 250.455273 
L 331.489845 249.408 
L 335.044177 249.408 
L 335.044177 248.360727 
L 338.190851 248.360727 
L 338.190851 247.313455 
L 341.055355 247.313455 
L 341.055355 246.266182 
L 343.654501 246.266182 
L 343.654501 245.218909 
L 346.079394 245.218909 
L 346.079394 244.171636 
L 348.315635 244.171636 
L 348.315635 243.124364 
L 350.380689 243.124364 
L 350.380689 242.077091 
L 352.309324 242.077091 
L 352.309324 241.029818 
L 354.126249 241.029818 
L 354.126249 239.982545 
L 355.85435 239.982545 
L 355.85435 238.935273 
L 357.540488 238.935273 
L 357.540488 237.888 
L 359.132618 237.888 
L 359.132618 236.840727 
L 360.746444 236.840727 
L 360.746444 235.793455 
L 362.306067 235.793455 
L 362.306067 234.746182 
L 363.809295 234.746182 
L 363.809295 233.698909 
L 365.363408 233.698909 
L 365.363408 232.651636 
L 366.847552 232.651636 
L 366.847552 231.604364 
L 368.377234 231.604364 
L 368.377234 230.557091 
L 369.828672 230.557091 
L 369.828672 229.509818 
L 371.210757 229.509818 
L 371.210757 228.462545 
L 372.606941 228.462545 
L 372.606941 227.415273 
L 373.952002 227.415273 
L 373.952002 226.368 
L 375.395041 226.368 
L 375.395041 225.320727 
L 376.981436 225.320727 
L 376.981436 224.273455 
L 378.491629 224.273455 
L 378.491629 223.226182 
L 379.989675 223.226182 
L 379.989675 222.178909 
L 381.429405 222.178909 
L 381.429405 221.131636 
L 382.856362 221.131636 
L 382.856362 220.084364 
L 384.274852 220.084364 
L 384.274852 219.037091 
L 385.632393 219.037091 
L 385.632393 217.989818 
L 386.953253 217.989818 
L 386.953253 216.942545 
L 388.231678 216.942545 
L 388.231678 215.895273 
L 389.4661 215.895273 
L 389.4661 214.848 
L 390.732868 214.848 
L 390.732868 213.800727 
L 392.095111 213.800727 
L 392.095111 212.753455 
L 393.702674 212.753455 
L 393.702674 211.706182 
L 395.331985 211.706182 
L 395.331985 210.658909 
L 396.87895 210.658909 
L 396.87895 209.611636 
L 398.487273 209.611636 
L 398.487273 209.611636 
" clip-path="url(#pcadf226690)" style="fill: none; stroke: #ff7f0e; stroke-width: 1.5; stroke-linecap: square"/>
   </g>
   <g id="line2d_61">
    <path d="M 73.832727 295.488 
L 73.832727 294.440727 
L 93.584469 294.440727 
L 93.584469 293.393455 
L 104.903481 293.393455 
L 104.903481 292.346182 
L 112.93828 292.346182 
L 112.93828 291.298909 
L 119.276818 291.298909 
L 119.276818 290.251636 
L 124.756722 290.251636 
L 124.756722 289.204364 
L 129.563055 289.204364 
L 129.563055 288.157091 
L 134.893475 288.157091 
L 134.893475 287.109818 
L 139.377211 287.109818 
L 139.377211 286.062545 
L 143.299236 286.062545 
L 143.299236 285.015273 
L 146.819462 285.015273 
L 146.819462 283.968 
L 149.935667 283.968 
L 149.935667 282.920727 
L 152.86617 282.920727 
L 152.86617 281.873455 
L 155.546147 281.873455 
L 155.546147 280.826182 
L 158.214664 280.826182 
L 158.214664 279.778909 
L 160.678952 279.778909 
L 160.678952 278.731636 
L 163.252593 278.731636 
L 163.252593 277.684364 
L 165.606598 277.684364 
L 165.606598 276.637091 
L 167.821668 276.637091 
L 167.821668 275.589818 
L 169.90658 275.589818 
L 169.90658 274.542545 
L 171.861679 274.542545 
L 171.861679 273.495273 
L 173.695993 273.495273 
L 173.695993 272.448 
L 175.410691 272.448 
L 175.410691 271.400727 
L 177.058792 271.400727 
L 177.058792 270.353455 
L 178.657844 270.353455 
L 178.657844 269.306182 
L 180.204955 269.306182 
L 180.204955 268.258909 
L 181.837178 268.258909 
L 181.837178 267.211636 
L 183.39411 267.211636 
L 183.39411 266.164364 
L 184.920949 266.164364 
L 184.920949 265.117091 
L 186.422261 265.117091 
L 186.422261 264.069818 
L 188.066316 264.069818 
L 188.066316 263.022545 
L 189.748095 263.022545 
L 189.748095 261.975273 
L 191.359719 261.975273 
L 191.359719 260.928 
L 192.940076 260.928 
L 192.940076 259.880727 
L 194.519832 259.880727 
L 194.519832 258.833455 
L 196.189775 258.833455 
L 196.189775 257.786182 
L 197.81231 257.786182 
L 197.81231 256.738909 
L 199.343293 256.738909 
L 199.343293 255.691636 
L 200.797825 255.691636 
L 200.797825 254.644364 
L 202.181045 254.644364 
L 202.181045 253.597091 
L 203.499826 253.597091 
L 203.499826 252.549818 
L 204.757865 252.549818 
L 204.757865 251.502545 
L 205.959007 251.502545 
L 205.959007 250.455273 
L 207.123486 250.455273 
L 207.123486 249.408 
L 208.240547 249.408 
L 208.240547 248.360727 
L 209.377641 248.360727 
L 209.377641 247.313455 
L 210.564333 247.313455 
L 210.564333 246.266182 
L 211.732308 246.266182 
L 211.732308 245.218909 
L 212.865368 245.218909 
L 212.865368 244.171636 
L 213.986188 244.171636 
L 213.986188 243.124364 
L 215.29374 243.124364 
L 215.29374 242.077091 
L 216.58491 242.077091 
L 216.58491 241.029818 
L 217.826512 241.029818 
L 217.826512 239.982545 
L 220.249517 239.982545 
L 220.249517 238.935273 
L 222.516131 238.935273 
L 222.516131 237.888 
L 224.76242 237.888 
L 224.76242 236.840727 
L 226.89491 236.840727 
L 226.89491 235.793455 
L 228.927524 235.793455 
L 228.927524 234.746182 
L 230.82031 234.746182 
L 230.82031 233.698909 
L 232.607438 233.698909 
L 232.607438 232.651636 
L 234.298662 232.651636 
L 234.298662 231.604364 
L 235.921074 231.604364 
L 235.921074 230.557091 
L 237.486174 230.557091 
L 237.486174 229.509818 
L 239.005642 229.509818 
L 239.005642 228.462545 
L 240.510542 228.462545 
L 240.510542 227.415273 
L 242.015781 227.415273 
L 242.015781 226.368 
L 244.473194 226.368 
L 244.473194 225.320727 
L 246.724742 225.320727 
L 246.724742 224.273455 
L 248.798674 224.273455 
L 248.798674 223.226182 
L 250.75281 223.226182 
L 250.75281 222.178909 
L 252.575866 222.178909 
L 252.575866 221.131636 
L 254.285021 221.131636 
L 254.285021 220.084364 
L 255.89476 220.084364 
L 255.89476 219.037091 
L 257.414056 219.037091 
L 257.414056 217.989818 
L 258.850752 217.989818 
L 258.850752 216.942545 
L 260.215375 216.942545 
L 260.215375 215.895273 
L 261.513198 215.895273 
L 261.513198 214.848 
L 262.752776 214.848 
L 262.752776 213.800727 
L 263.937344 213.800727 
L 263.937344 212.753455 
L 265.071459 212.753455 
L 265.071459 211.706182 
L 266.16042 211.706182 
L 266.16042 210.658909 
L 267.206364 210.658909 
L 267.206364 209.611636 
L 268.212571 209.611636 
L 268.212571 208.564364 
L 269.18273 208.564364 
L 269.18273 207.517091 
L 270.119244 207.517091 
L 270.119244 206.469818 
L 271.023799 206.469818 
L 271.023799 205.422545 
L 271.899322 205.422545 
L 271.899322 204.375273 
L 272.746753 204.375273 
L 272.746753 203.328 
L 273.568059 203.328 
L 273.568059 202.280727 
L 274.366183 202.280727 
L 274.366183 201.233455 
L 275.141314 201.233455 
L 275.141314 200.186182 
L 275.895052 200.186182 
L 275.895052 199.138909 
L 276.629148 199.138909 
L 276.629148 198.091636 
L 277.343405 198.091636 
L 277.343405 197.044364 
L 278.039422 197.044364 
L 278.039422 195.997091 
L 278.717586 195.997091 
L 278.717586 194.949818 
L 279.380011 194.949818 
L 279.380011 193.902545 
L 280.027354 193.902545 
L 280.027354 192.855273 
L 280.659314 192.855273 
L 280.659314 191.808 
L 281.277825 191.808 
L 281.277825 190.760727 
L 281.882444 190.760727 
L 281.882444 189.713455 
L 282.473709 189.713455 
L 282.473709 188.666182 
L 283.052506 188.666182 
L 283.052506 187.618909 
L 283.620398 187.618909 
L 283.620398 186.571636 
L 284.17658 186.571636 
L 284.17658 185.524364 
L 284.721671 185.524364 
L 284.721671 184.477091 
L 285.256463 184.477091 
L 285.256463 183.429818 
L 285.780939 183.429818 
L 285.780939 182.382545 
L 286.295632 182.382545 
L 286.295632 181.335273 
L 286.801695 181.335273 
L 286.801695 180.288 
L 287.298528 180.288 
L 287.298528 179.240727 
L 287.786594 179.240727 
L 287.786594 178.193455 
L 288.266639 178.193455 
L 288.266639 177.146182 
L 288.738996 177.146182 
L 288.738996 176.098909 
L 289.204639 176.098909 
L 289.204639 175.051636 
L 289.664422 175.051636 
L 289.664422 174.004364 
L 290.116596 174.004364 
L 290.116596 172.957091 
L 290.56409 172.957091 
L 290.56409 171.909818 
L 291.00449 171.909818 
L 291.00449 170.862545 
L 291.438189 170.862545 
L 291.438189 169.815273 
L 291.865938 169.815273 
L 291.865938 168.768 
L 292.287108 168.768 
L 292.287108 167.720727 
L 292.704004 167.720727 
L 292.704004 166.673455 
L 293.116824 166.673455 
L 293.116824 165.626182 
L 293.528252 165.626182 
L 293.528252 164.578909 
L 293.935848 164.578909 
L 293.935848 163.531636 
L 294.339544 163.531636 
L 294.339544 162.484364 
L 294.737235 162.484364 
L 294.737235 161.437091 
L 295.136231 161.437091 
L 295.136231 160.389818 
L 295.534546 160.389818 
L 295.534546 159.342545 
L 295.929937 159.342545 
L 295.929937 158.295273 
L 296.333881 158.295273 
L 296.333881 157.248 
L 296.734419 157.248 
L 296.734419 156.200727 
L 297.130546 156.200727 
L 297.130546 155.153455 
L 297.521759 155.153455 
L 297.521759 154.106182 
L 297.907711 154.106182 
L 297.907711 153.058909 
L 298.28872 153.058909 
L 298.28872 152.011636 
L 298.667302 152.011636 
L 298.667302 150.964364 
L 299.040843 150.964364 
L 299.040843 149.917091 
L 299.413058 149.917091 
L 299.413058 148.869818 
L 299.781204 148.869818 
L 299.781204 147.822545 
L 300.148896 147.822545 
L 300.148896 146.775273 
L 300.5123 146.775273 
L 300.5123 145.728 
L 300.87079 145.728 
L 300.87079 144.680727 
L 301.227726 144.680727 
L 301.227726 143.633455 
L 301.581719 143.633455 
L 301.581719 142.586182 
L 301.934005 142.586182 
L 301.934005 141.538909 
L 302.284954 141.538909 
L 302.284954 140.491636 
L 302.635385 140.491636 
L 302.635385 139.444364 
L 302.987851 139.444364 
L 302.987851 138.397091 
L 303.346026 138.397091 
L 303.346026 137.349818 
L 303.700738 137.349818 
L 303.700738 136.302545 
L 304.060857 136.302545 
L 304.060857 135.255273 
L 304.448815 135.255273 
L 304.448815 134.208 
L 304.832261 134.208 
L 304.832261 133.160727 
L 305.213264 133.160727 
L 305.213264 132.113455 
L 305.594103 132.113455 
L 305.594103 131.066182 
L 305.980853 131.066182 
L 305.980853 130.018909 
L 306.364124 130.018909 
L 306.364124 128.971636 
L 306.767768 128.971636 
L 306.767768 127.924364 
L 307.167978 127.924364 
L 307.167978 126.877091 
L 307.570723 126.877091 
L 307.570723 125.829818 
L 307.999552 125.829818 
L 307.999552 124.782545 
L 308.427133 124.782545 
L 308.427133 123.735273 
L 308.866765 123.735273 
L 308.866765 122.688 
L 309.300707 122.688 
L 309.300707 121.640727 
L 309.74854 121.640727 
L 309.74854 120.593455 
L 310.195735 120.593455 
L 310.195735 119.546182 
L 310.6457 119.546182 
L 310.6457 118.498909 
L 311.101196 118.498909 
L 311.101196 117.451636 
L 311.584278 117.451636 
L 311.584278 116.404364 
L 312.059427 116.404364 
L 312.059427 115.357091 
L 312.535337 115.357091 
L 312.535337 114.309818 
L 313.003395 114.309818 
L 313.003395 113.262545 
L 313.466537 113.262545 
L 313.466537 112.215273 
L 313.935815 112.215273 
L 313.935815 111.168 
L 314.408164 111.168 
L 314.408164 110.120727 
L 314.88009 110.120727 
L 314.88009 109.073455 
L 315.344165 109.073455 
L 315.344165 108.026182 
L 315.804142 108.026182 
L 315.804142 106.978909 
L 316.269827 106.978909 
L 316.269827 105.931636 
L 316.756586 105.931636 
L 316.756586 104.884364 
L 317.359052 104.884364 
L 317.359052 103.837091 
L 317.955467 103.837091 
L 317.955467 102.789818 
L 318.541135 102.789818 
L 318.541135 101.742545 
L 319.133601 101.742545 
L 319.133601 100.695273 
L 319.874443 100.695273 
L 319.874443 99.648 
L 320.689149 99.648 
L 320.689149 98.600727 
L 321.599619 98.600727 
L 321.599619 97.553455 
L 322.514267 97.553455 
L 322.514267 96.506182 
L 323.400237 96.506182 
L 323.400237 95.458909 
L 324.282729 95.458909 
L 324.282729 94.411636 
L 325.193539 94.411636 
L 325.193539 93.364364 
L 326.103956 93.364364 
L 326.103956 92.317091 
L 327.113707 92.317091 
L 327.113707 91.269818 
L 328.124371 91.269818 
L 328.124371 90.222545 
L 329.285197 90.222545 
L 329.285197 89.175273 
L 330.518667 89.175273 
L 330.518667 88.128 
L 331.744576 88.128 
L 331.744576 87.080727 
L 333.049144 87.080727 
L 333.049144 86.033455 
L 334.32904 86.033455 
L 334.32904 84.986182 
L 335.560207 84.986182 
L 335.560207 83.938909 
L 336.760477 83.938909 
L 336.760477 82.891636 
L 337.937112 82.891636 
L 337.937112 81.844364 
L 339.116793 81.844364 
L 339.116793 80.797091 
L 340.529599 80.797091 
L 340.529599 79.749818 
L 341.875154 79.749818 
L 341.875154 78.702545 
L 343.692016 78.702545 
L 343.692016 77.655273 
L 345.497318 77.655273 
L 345.497318 76.608 
L 347.747681 76.608 
L 347.747681 75.560727 
L 350.08709 75.560727 
L 350.08709 74.513455 
L 352.342543 74.513455 
L 352.342543 73.466182 
L 355.7763 73.466182 
L 355.7763 72.418909 
L 358.857204 72.418909 
L 358.857204 71.371636 
L 361.618065 71.371636 
L 361.618065 70.324364 
L 364.19121 70.324364 
L 364.19121 69.277091 
L 366.55841 69.277091 
L 366.55841 68.229818 
L 368.768654 68.229818 
L 368.768654 67.182545 
L 371.362063 67.182545 
L 371.362063 66.135273 
L 373.955182 66.135273 
L 373.955182 65.088 
L 376.328338 65.088 
L 376.328338 64.040727 
L 378.508083 64.040727 
L 378.508083 62.993455 
L 380.531472 62.993455 
L 380.531472 61.946182 
L 382.423078 61.946182 
L 382.423078 60.898909 
L 384.20816 60.898909 
L 384.20816 59.851636 
L 385.90118 59.851636 
L 385.90118 58.804364 
L 387.618532 58.804364 
L 387.618532 57.757091 
L 389.553483 57.757091 
L 389.553483 56.709818 
L 391.434608 56.709818 
L 391.434608 55.662545 
L 393.194831 55.662545 
L 393.194831 54.615273 
L 394.901627 54.615273 
L 394.901627 53.568 
L 396.750327 53.568 
L 396.750327 53.568 
" clip-path="url(#pcadf226690)" style="fill: none; stroke: #2ca02c; stroke-width: 1.5; stroke-linecap: square"/>
   </g>
   <g id="patch_3">
    <path d="M 57.6 307.584 
L 57.6 41.472 
" style="fill: none; stroke: #000000; stroke-width: 0.8; stroke-linejoin: miter; stroke-linecap: square"/>
   </g>
   <g id="patch_4">
    <path d="M 414.72 307.584 
L 414.72 41.472 
" style="fill: none; stroke: #000000; stroke-width: 0.8; stroke-linejoin: miter; stroke-linecap: square"/>
   </g>
   <g id="patch_5">
    <path d="M 57.6 307.584 
L 414.72 307.584 
" style="fill: none; stroke: #000000; stroke-width: 0.8; stroke-linejoin: miter; stroke-linecap: square"/>
   </g>
   <g id="patch_6">
    <path d="M 57.6 41.472 
L 414.72 41.472 
" style="fill: none; stroke: #000000; stroke-width: 0.8; stroke-linejoin: miter; stroke-linecap: square"/>
   </g>
   <g id="legend_1">
    <g id="patch_7">
     <path d="M 64.6 93.506375 
L 149.353125 93.506375 
Q 151.353125 93.506375 151.353125 91.506375 
L 151.353125 48.472 
Q 151.353125 46.472 149.353125 46.472 
L 64.6 46.472 
Q 62.6 46.472 62.6 48.472 
L 62.6 91.506375 
Q 62.6 93.506375 64.6 93.506375 
z
" style="fill: #ffffff; opacity: 0.8; stroke: #cccccc; stroke-linejoin: miter"/>
    </g>
    <g id="line2d_62">
     <path d="M 66.6 54.570438 
L 66.6 54.570438 
L 76.6 54.570438 
L 76.6 54.570438 
L 86.6 54.570438 
" style="fill: none; stroke: #1f77b4; stroke-width: 1.5; stroke-linecap: square"/>
    </g>
    <g id="text_14">
     <!-- ganak -->
     <g transform="translate(94.6 58.070438) scale(0.1 -0.1)">
      <defs>
       <path id="DejaVuSans-6b" d="M 581 4863 
L 1159 4863 
L 1159 1991 
L 2875 3500 
L 3609 3500 
L 1753 1863 
L 3688 0 
L 2938 0 
L 1159 1709 
L 1159 0 
L 581 0 
L 581 4863 
z
" transform="scale(0.015625)"/>
      </defs>
      <use xlink:href="#DejaVuSans-67"/>
      <use xlink:href="#DejaVuSans-61" x="63.476562"/>
      <use xlink:href="#DejaVuSans-6e" x="124.755859"/>
      <use xlink:href="#DejaVuSans-61" x="188.134766"/>
      <use xlink:href="#DejaVuSans-6b" x="249.414062"/>
     </g>
    </g>
    <g id="line2d_63">
     <path d="M 66.6 69.248563 
L 66.6 69.248563 
L 76.6 69.248563 
L 76.6 69.248563 
L 86.6 69.248563 
" style="fill: none; stroke: #ff7f0e; stroke-width: 1.5; stroke-linecap: square"/>
    </g>
    <g id="text_15">
     <!-- projMC -->
     <g transform="translate(94.6 72.748563) scale(0.1 -0.1)">
      <defs>
       <path id="DejaVuSans-70" d="M 1159 525 
L 1159 -1331 
L 581 -1331 
L 581 3500 
L 1159 3500 
L 1159 2969 
Q 1341 3281 1617 3432 
Q 1894 3584 2278 3584 
Q 2916 3584 3314 3078 
Q 3713 2572 3713 1747 
Q 3713 922 3314 415 
Q 2916 -91 2278 -91 
Q 1894 -91 1617 61 
Q 1341 213 1159 525 
z
M 3116 1747 
Q 3116 2381 2855 2742 
Q 2594 3103 2138 3103 
Q 1681 3103 1420 2742 
Q 1159 2381 1159 1747 
Q 1159 1113 1420 752 
Q 1681 391 2138 391 
Q 2594 391 2855 752 
Q 3116 1113 3116 1747 
z
" transform="scale(0.015625)"/>
       <path id="DejaVuSans-6a" d="M 603 3500 
L 1178 3500 
L 1178 -63 
Q 1178 -731 923 -1031 
Q 669 -1331 103 -1331 
L -116 -1331 
L -116 -844 
L 38 -844 
Q 366 -844 484 -692 
Q 603 -541 603 -63 
L 603 3500 
z
M 603 4863 
L 1178 4863 
L 1178 4134 
L 603 4134 
L 603 4863 
z
" transform="scale(0.015625)"/>
       <path id="DejaVuSans-4d" d="M 628 4666 
L 1569 4666 
L 2759 1491 
L 3956 4666 
L 4897 4666 
L 4897 0 
L 4281 0 
L 4281 4097 
L 3078 897 
L 2444 897 
L 1241 4097 
L 1241 0 
L 628 0 
L 628 4666 
z
" transform="scale(0.015625)"/>
       <path id="DejaVuSans-43" d="M 4122 4306 
L 4122 3641 
Q 3803 3938 3442 4084 
Q 3081 4231 2675 4231 
Q 1875 4231 1450 3742 
Q 1025 3253 1025 2328 
Q 1025 1406 1450 917 
Q 1875 428 2675 428 
Q 3081 428 3442 575 
Q 3803 722 4122 1019 
L 4122 359 
Q 3791 134 3420 21 
Q 3050 -91 2638 -91 
Q 1578 -91 968 557 
Q 359 1206 359 2328 
Q 359 3453 968 4101 
Q 1578 4750 2638 4750 
Q 3056 4750 3426 4639 
Q 3797 4528 4122 4306 
z
" transform="scale(0.015625)"/>
      </defs>
      <use xlink:href="#DejaVuSans-70"/>
      <use xlink:href="#DejaVuSans-72" x="63.476562"/>
      <use xlink:href="#DejaVuSans-6f" x="102.339844"/>
      <use xlink:href="#DejaVuSans-6a" x="163.521484"/>
      <use xlink:href="#DejaVuSans-4d" x="191.304688"/>
      <use xlink:href="#DejaVuSans-43" x="277.583984"/>
     </g>
    </g>
    <g id="line2d_64">
     <path d="M 66.6 83.926688 
L 66.6 83.926688 
L 76.6 83.926688 
L 76.6 83.926688 
L 86.6 83.926688 
" style="fill: none; stroke: #2ca02c; stroke-width: 1.5; stroke-linecap: square"/>
    </g>
    <g id="text_16">
     <!-- schlandals -->
     <g transform="translate(94.6 87.426688) scale(0.1 -0.1)">
      <defs>
       <path id="DejaVuSans-68" d="M 3513 2113 
L 3513 0 
L 2938 0 
L 2938 2094 
Q 2938 2591 2744 2837 
Q 2550 3084 2163 3084 
Q 1697 3084 1428 2787 
Q 1159 2491 1159 1978 
L 1159 0 
L 581 0 
L 581 4863 
L 1159 4863 
L 1159 2956 
Q 1366 3272 1645 3428 
Q 1925 3584 2291 3584 
Q 2894 3584 3203 3211 
Q 3513 2838 3513 2113 
z
" transform="scale(0.015625)"/>
      </defs>
      <use xlink:href="#DejaVuSans-73"/>
      <use xlink:href="#DejaVuSans-63" x="52.099609"/>
      <use xlink:href="#DejaVuSans-68" x="107.080078"/>
      <use xlink:href="#DejaVuSans-6c" x="170.458984"/>
      <use xlink:href="#DejaVuSans-61" x="198.242188"/>
      <use xlink:href="#DejaVuSans-6e" x="259.521484"/>
      <use xlink:href="#DejaVuSans-64" x="322.900391"/>
      <use xlink:href="#DejaVuSans-61" x="386.376953"/>
      <use xlink:href="#DejaVuSans-6c" x="447.65625"/>
      <use xlink:href="#DejaVuSans-73" x="475.439453"/>
     </g>
    </g>
   </g>
  </g>
 </g>
 <defs>
  <clipPath id="pcadf226690">
   <rect x="57.6" y="41.472" width="357.12" height="266.112"/>
  </clipPath>
 </defs>
</svg>
