<?xml version="1.0" encoding="utf-8" standalone="no"?>
<!DOCTYPE svg PUBLIC "-//W3C//DTD SVG 1.1//EN"
  "http://www.w3.org/Graphics/SVG/1.1/DTD/svg11.dtd">
<svg xmlns:xlink="http://www.w3.org/1999/xlink" width="460.8pt" height="345.6pt" viewBox="0 0 460.8 345.6" xmlns="http://www.w3.org/2000/svg" version="1.1">
 <metadata>
  <rdf:RDF xmlns:dc="http://purl.org/dc/elements/1.1/" xmlns:cc="http://creativecommons.org/ns#" xmlns:rdf="http://www.w3.org/1999/02/22-rdf-syntax-ns#">
   <cc:Work>
    <dc:type rdf:resource="http://purl.org/dc/dcmitype/StillImage"/>
    <dc:date>2023-02-01T14:31:33.513893</dc:date>
    <dc:format>image/svg+xml</dc:format>
    <dc:creator>
     <cc:Agent>
      <dc:title>Matplotlib v3.6.2, https://matplotlib.org/</dc:title>
     </cc:Agent>
    </dc:creator>
   </cc:Work>
  </rdf:RDF>
 </metadata>
 <defs>
  <style type="text/css">*{stroke-linejoin: round; stroke-linecap: butt}</style>
 </defs>
 <g id="figure_1">
  <g id="patch_1">
   <path d="M 0 345.6 
L 460.8 345.6 
L 460.8 0 
L 0 0 
z
" style="fill: #ffffff"/>
  </g>
  <g id="axes_1">
   <g id="patch_2">
    <path d="M 57.6 307.584 
L 414.72 307.584 
L 414.72 41.472 
L 57.6 41.472 
z
" style="fill: #ffffff"/>
   </g>
   <g id="matplotlib.axis_1">
    <g id="xtick_1">
     <g id="line2d_1">
      <defs>
       <path id="mb5ef2aca0a" d="M 0 0 
L 0 3.5 
" style="stroke: #000000; stroke-width: 0.8"/>
      </defs>
      <g>
       <use xlink:href="#mb5ef2aca0a" x="99.242478" y="307.584" style="stroke: #000000; stroke-width: 0.8"/>
      </g>
     </g>
     <g id="text_1">
      <!-- $\mathdefault{10^{-2}}$ -->
      <g transform="translate(87.492478 322.182437) scale(0.1 -0.1)">
       <defs>
        <path id="DejaVuSans-31" d="M 794 531 
L 1825 531 
L 1825 4091 
L 703 3866 
L 703 4441 
L 1819 4666 
L 2450 4666 
L 2450 531 
L 3481 531 
L 3481 0 
L 794 0 
L 794 531 
z
" transform="scale(0.015625)"/>
        <path id="DejaVuSans-30" d="M 2034 4250 
Q 1547 4250 1301 3770 
Q 1056 3291 1056 2328 
Q 1056 1369 1301 889 
Q 1547 409 2034 409 
Q 2525 409 2770 889 
Q 3016 1369 3016 2328 
Q 3016 3291 2770 3770 
Q 2525 4250 2034 4250 
z
M 2034 4750 
Q 2819 4750 3233 4129 
Q 3647 3509 3647 2328 
Q 3647 1150 3233 529 
Q 2819 -91 2034 -91 
Q 1250 -91 836 529 
Q 422 1150 422 2328 
Q 422 3509 836 4129 
Q 1250 4750 2034 4750 
z
" transform="scale(0.015625)"/>
        <path id="DejaVuSans-2212" d="M 678 2272 
L 4684 2272 
L 4684 1741 
L 678 1741 
L 678 2272 
z
" transform="scale(0.015625)"/>
        <path id="DejaVuSans-32" d="M 1228 531 
L 3431 531 
L 3431 0 
L 469 0 
L 469 531 
Q 828 903 1448 1529 
Q 2069 2156 2228 2338 
Q 2531 2678 2651 2914 
Q 2772 3150 2772 3378 
Q 2772 3750 2511 3984 
Q 2250 4219 1831 4219 
Q 1534 4219 1204 4116 
Q 875 4013 500 3803 
L 500 4441 
Q 881 4594 1212 4672 
Q 1544 4750 1819 4750 
Q 2544 4750 2975 4387 
Q 3406 4025 3406 3419 
Q 3406 3131 3298 2873 
Q 3191 2616 2906 2266 
Q 2828 2175 2409 1742 
Q 1991 1309 1228 531 
z
" transform="scale(0.015625)"/>
       </defs>
       <use xlink:href="#DejaVuSans-31" transform="translate(0 0.765625)"/>
       <use xlink:href="#DejaVuSans-30" transform="translate(63.623047 0.765625)"/>
       <use xlink:href="#DejaVuSans-2212" transform="translate(128.203125 39.046875) scale(0.7)"/>
       <use xlink:href="#DejaVuSans-32" transform="translate(186.855469 39.046875) scale(0.7)"/>
      </g>
     </g>
    </g>
    <g id="xtick_2">
     <g id="line2d_2">
      <g>
       <use xlink:href="#mb5ef2aca0a" x="159.710729" y="307.584" style="stroke: #000000; stroke-width: 0.8"/>
      </g>
     </g>
     <g id="text_2">
      <!-- $\mathdefault{10^{-1}}$ -->
      <g transform="translate(147.960729 322.182437) scale(0.1 -0.1)">
       <use xlink:href="#DejaVuSans-31" transform="translate(0 0.684375)"/>
       <use xlink:href="#DejaVuSans-30" transform="translate(63.623047 0.684375)"/>
       <use xlink:href="#DejaVuSans-2212" transform="translate(128.203125 38.965625) scale(0.7)"/>
       <use xlink:href="#DejaVuSans-31" transform="translate(186.855469 38.965625) scale(0.7)"/>
      </g>
     </g>
    </g>
    <g id="xtick_3">
     <g id="line2d_3">
      <g>
       <use xlink:href="#mb5ef2aca0a" x="220.17898" y="307.584" style="stroke: #000000; stroke-width: 0.8"/>
      </g>
     </g>
     <g id="text_3">
      <!-- $\mathdefault{10^{0}}$ -->
      <g transform="translate(211.37898 322.182437) scale(0.1 -0.1)">
       <use xlink:href="#DejaVuSans-31" transform="translate(0 0.765625)"/>
       <use xlink:href="#DejaVuSans-30" transform="translate(63.623047 0.765625)"/>
       <use xlink:href="#DejaVuSans-30" transform="translate(128.203125 39.046875) scale(0.7)"/>
      </g>
     </g>
    </g>
    <g id="xtick_4">
     <g id="line2d_4">
      <g>
       <use xlink:href="#mb5ef2aca0a" x="280.64723" y="307.584" style="stroke: #000000; stroke-width: 0.8"/>
      </g>
     </g>
     <g id="text_4">
      <!-- $\mathdefault{10^{1}}$ -->
      <g transform="translate(271.84723 322.182437) scale(0.1 -0.1)">
       <use xlink:href="#DejaVuSans-31" transform="translate(0 0.684375)"/>
       <use xlink:href="#DejaVuSans-30" transform="translate(63.623047 0.684375)"/>
       <use xlink:href="#DejaVuSans-31" transform="translate(128.203125 38.965625) scale(0.7)"/>
      </g>
     </g>
    </g>
    <g id="xtick_5">
     <g id="line2d_5">
      <g>
       <use xlink:href="#mb5ef2aca0a" x="341.115481" y="307.584" style="stroke: #000000; stroke-width: 0.8"/>
      </g>
     </g>
     <g id="text_5">
      <!-- $\mathdefault{10^{2}}$ -->
      <g transform="translate(332.315481 322.182437) scale(0.1 -0.1)">
       <use xlink:href="#DejaVuSans-31" transform="translate(0 0.765625)"/>
       <use xlink:href="#DejaVuSans-30" transform="translate(63.623047 0.765625)"/>
       <use xlink:href="#DejaVuSans-32" transform="translate(128.203125 39.046875) scale(0.7)"/>
      </g>
     </g>
    </g>
    <g id="xtick_6">
     <g id="line2d_6">
      <g>
       <use xlink:href="#mb5ef2aca0a" x="401.583732" y="307.584" style="stroke: #000000; stroke-width: 0.8"/>
      </g>
     </g>
     <g id="text_6">
      <!-- $\mathdefault{10^{3}}$ -->
      <g transform="translate(392.783732 322.182437) scale(0.1 -0.1)">
       <defs>
        <path id="DejaVuSans-33" d="M 2597 2516 
Q 3050 2419 3304 2112 
Q 3559 1806 3559 1356 
Q 3559 666 3084 287 
Q 2609 -91 1734 -91 
Q 1441 -91 1130 -33 
Q 819 25 488 141 
L 488 750 
Q 750 597 1062 519 
Q 1375 441 1716 441 
Q 2309 441 2620 675 
Q 2931 909 2931 1356 
Q 2931 1769 2642 2001 
Q 2353 2234 1838 2234 
L 1294 2234 
L 1294 2753 
L 1863 2753 
Q 2328 2753 2575 2939 
Q 2822 3125 2822 3475 
Q 2822 3834 2567 4026 
Q 2313 4219 1838 4219 
Q 1578 4219 1281 4162 
Q 984 4106 628 3988 
L 628 4550 
Q 988 4650 1302 4700 
Q 1616 4750 1894 4750 
Q 2613 4750 3031 4423 
Q 3450 4097 3450 3541 
Q 3450 3153 3228 2886 
Q 3006 2619 2597 2516 
z
" transform="scale(0.015625)"/>
       </defs>
       <use xlink:href="#DejaVuSans-31" transform="translate(0 0.765625)"/>
       <use xlink:href="#DejaVuSans-30" transform="translate(63.623047 0.765625)"/>
       <use xlink:href="#DejaVuSans-33" transform="translate(128.203125 39.046875) scale(0.7)"/>
      </g>
     </g>
    </g>
    <g id="xtick_7">
     <g id="line2d_7">
      <defs>
       <path id="m87b1634463" d="M 0 0 
L 0 2 
" style="stroke: #000000; stroke-width: 0.6"/>
      </defs>
      <g>
       <use xlink:href="#m87b1634463" x="67.624915" y="307.584" style="stroke: #000000; stroke-width: 0.6"/>
      </g>
     </g>
    </g>
    <g id="xtick_8">
     <g id="line2d_8">
      <g>
       <use xlink:href="#m87b1634463" x="75.179742" y="307.584" style="stroke: #000000; stroke-width: 0.6"/>
      </g>
     </g>
    </g>
    <g id="xtick_9">
     <g id="line2d_9">
      <g>
       <use xlink:href="#m87b1634463" x="81.039721" y="307.584" style="stroke: #000000; stroke-width: 0.6"/>
      </g>
     </g>
    </g>
    <g id="xtick_10">
     <g id="line2d_10">
      <g>
       <use xlink:href="#m87b1634463" x="85.827672" y="307.584" style="stroke: #000000; stroke-width: 0.6"/>
      </g>
     </g>
    </g>
    <g id="xtick_11">
     <g id="line2d_11">
      <g>
       <use xlink:href="#m87b1634463" x="89.875828" y="307.584" style="stroke: #000000; stroke-width: 0.6"/>
      </g>
     </g>
    </g>
    <g id="xtick_12">
     <g id="line2d_12">
      <g>
       <use xlink:href="#m87b1634463" x="93.382499" y="307.584" style="stroke: #000000; stroke-width: 0.6"/>
      </g>
     </g>
    </g>
    <g id="xtick_13">
     <g id="line2d_13">
      <g>
       <use xlink:href="#m87b1634463" x="96.475603" y="307.584" style="stroke: #000000; stroke-width: 0.6"/>
      </g>
     </g>
    </g>
    <g id="xtick_14">
     <g id="line2d_14">
      <g>
       <use xlink:href="#m87b1634463" x="117.445235" y="307.584" style="stroke: #000000; stroke-width: 0.6"/>
      </g>
     </g>
    </g>
    <g id="xtick_15">
     <g id="line2d_15">
      <g>
       <use xlink:href="#m87b1634463" x="128.093166" y="307.584" style="stroke: #000000; stroke-width: 0.6"/>
      </g>
     </g>
    </g>
    <g id="xtick_16">
     <g id="line2d_16">
      <g>
       <use xlink:href="#m87b1634463" x="135.647993" y="307.584" style="stroke: #000000; stroke-width: 0.6"/>
      </g>
     </g>
    </g>
    <g id="xtick_17">
     <g id="line2d_17">
      <g>
       <use xlink:href="#m87b1634463" x="141.507972" y="307.584" style="stroke: #000000; stroke-width: 0.6"/>
      </g>
     </g>
    </g>
    <g id="xtick_18">
     <g id="line2d_18">
      <g>
       <use xlink:href="#m87b1634463" x="146.295923" y="307.584" style="stroke: #000000; stroke-width: 0.6"/>
      </g>
     </g>
    </g>
    <g id="xtick_19">
     <g id="line2d_19">
      <g>
       <use xlink:href="#m87b1634463" x="150.344078" y="307.584" style="stroke: #000000; stroke-width: 0.6"/>
      </g>
     </g>
    </g>
    <g id="xtick_20">
     <g id="line2d_20">
      <g>
       <use xlink:href="#m87b1634463" x="153.85075" y="307.584" style="stroke: #000000; stroke-width: 0.6"/>
      </g>
     </g>
    </g>
    <g id="xtick_21">
     <g id="line2d_21">
      <g>
       <use xlink:href="#m87b1634463" x="156.943853" y="307.584" style="stroke: #000000; stroke-width: 0.6"/>
      </g>
     </g>
    </g>
    <g id="xtick_22">
     <g id="line2d_22">
      <g>
       <use xlink:href="#m87b1634463" x="177.913486" y="307.584" style="stroke: #000000; stroke-width: 0.6"/>
      </g>
     </g>
    </g>
    <g id="xtick_23">
     <g id="line2d_23">
      <g>
       <use xlink:href="#m87b1634463" x="188.561417" y="307.584" style="stroke: #000000; stroke-width: 0.6"/>
      </g>
     </g>
    </g>
    <g id="xtick_24">
     <g id="line2d_24">
      <g>
       <use xlink:href="#m87b1634463" x="196.116243" y="307.584" style="stroke: #000000; stroke-width: 0.6"/>
      </g>
     </g>
    </g>
    <g id="xtick_25">
     <g id="line2d_25">
      <g>
       <use xlink:href="#m87b1634463" x="201.976222" y="307.584" style="stroke: #000000; stroke-width: 0.6"/>
      </g>
     </g>
    </g>
    <g id="xtick_26">
     <g id="line2d_26">
      <g>
       <use xlink:href="#m87b1634463" x="206.764174" y="307.584" style="stroke: #000000; stroke-width: 0.6"/>
      </g>
     </g>
    </g>
    <g id="xtick_27">
     <g id="line2d_27">
      <g>
       <use xlink:href="#m87b1634463" x="210.812329" y="307.584" style="stroke: #000000; stroke-width: 0.6"/>
      </g>
     </g>
    </g>
    <g id="xtick_28">
     <g id="line2d_28">
      <g>
       <use xlink:href="#m87b1634463" x="214.319001" y="307.584" style="stroke: #000000; stroke-width: 0.6"/>
      </g>
     </g>
    </g>
    <g id="xtick_29">
     <g id="line2d_29">
      <g>
       <use xlink:href="#m87b1634463" x="217.412104" y="307.584" style="stroke: #000000; stroke-width: 0.6"/>
      </g>
     </g>
    </g>
    <g id="xtick_30">
     <g id="line2d_30">
      <g>
       <use xlink:href="#m87b1634463" x="238.381737" y="307.584" style="stroke: #000000; stroke-width: 0.6"/>
      </g>
     </g>
    </g>
    <g id="xtick_31">
     <g id="line2d_31">
      <g>
       <use xlink:href="#m87b1634463" x="249.029667" y="307.584" style="stroke: #000000; stroke-width: 0.6"/>
      </g>
     </g>
    </g>
    <g id="xtick_32">
     <g id="line2d_32">
      <g>
       <use xlink:href="#m87b1634463" x="256.584494" y="307.584" style="stroke: #000000; stroke-width: 0.6"/>
      </g>
     </g>
    </g>
    <g id="xtick_33">
     <g id="line2d_33">
      <g>
       <use xlink:href="#m87b1634463" x="262.444473" y="307.584" style="stroke: #000000; stroke-width: 0.6"/>
      </g>
     </g>
    </g>
    <g id="xtick_34">
     <g id="line2d_34">
      <g>
       <use xlink:href="#m87b1634463" x="267.232425" y="307.584" style="stroke: #000000; stroke-width: 0.6"/>
      </g>
     </g>
    </g>
    <g id="xtick_35">
     <g id="line2d_35">
      <g>
       <use xlink:href="#m87b1634463" x="271.28058" y="307.584" style="stroke: #000000; stroke-width: 0.6"/>
      </g>
     </g>
    </g>
    <g id="xtick_36">
     <g id="line2d_36">
      <g>
       <use xlink:href="#m87b1634463" x="274.787251" y="307.584" style="stroke: #000000; stroke-width: 0.6"/>
      </g>
     </g>
    </g>
    <g id="xtick_37">
     <g id="line2d_37">
      <g>
       <use xlink:href="#m87b1634463" x="277.880355" y="307.584" style="stroke: #000000; stroke-width: 0.6"/>
      </g>
     </g>
    </g>
    <g id="xtick_38">
     <g id="line2d_38">
      <g>
       <use xlink:href="#m87b1634463" x="298.849988" y="307.584" style="stroke: #000000; stroke-width: 0.6"/>
      </g>
     </g>
    </g>
    <g id="xtick_39">
     <g id="line2d_39">
      <g>
       <use xlink:href="#m87b1634463" x="309.497918" y="307.584" style="stroke: #000000; stroke-width: 0.6"/>
      </g>
     </g>
    </g>
    <g id="xtick_40">
     <g id="line2d_40">
      <g>
       <use xlink:href="#m87b1634463" x="317.052745" y="307.584" style="stroke: #000000; stroke-width: 0.6"/>
      </g>
     </g>
    </g>
    <g id="xtick_41">
     <g id="line2d_41">
      <g>
       <use xlink:href="#m87b1634463" x="322.912724" y="307.584" style="stroke: #000000; stroke-width: 0.6"/>
      </g>
     </g>
    </g>
    <g id="xtick_42">
     <g id="line2d_42">
      <g>
       <use xlink:href="#m87b1634463" x="327.700675" y="307.584" style="stroke: #000000; stroke-width: 0.6"/>
      </g>
     </g>
    </g>
    <g id="xtick_43">
     <g id="line2d_43">
      <g>
       <use xlink:href="#m87b1634463" x="331.748831" y="307.584" style="stroke: #000000; stroke-width: 0.6"/>
      </g>
     </g>
    </g>
    <g id="xtick_44">
     <g id="line2d_44">
      <g>
       <use xlink:href="#m87b1634463" x="335.255502" y="307.584" style="stroke: #000000; stroke-width: 0.6"/>
      </g>
     </g>
    </g>
    <g id="xtick_45">
     <g id="line2d_45">
      <g>
       <use xlink:href="#m87b1634463" x="338.348606" y="307.584" style="stroke: #000000; stroke-width: 0.6"/>
      </g>
     </g>
    </g>
    <g id="xtick_46">
     <g id="line2d_46">
      <g>
       <use xlink:href="#m87b1634463" x="359.318238" y="307.584" style="stroke: #000000; stroke-width: 0.6"/>
      </g>
     </g>
    </g>
    <g id="xtick_47">
     <g id="line2d_47">
      <g>
       <use xlink:href="#m87b1634463" x="369.966169" y="307.584" style="stroke: #000000; stroke-width: 0.6"/>
      </g>
     </g>
    </g>
    <g id="xtick_48">
     <g id="line2d_48">
      <g>
       <use xlink:href="#m87b1634463" x="377.520996" y="307.584" style="stroke: #000000; stroke-width: 0.6"/>
      </g>
     </g>
    </g>
    <g id="xtick_49">
     <g id="line2d_49">
      <g>
       <use xlink:href="#m87b1634463" x="383.380975" y="307.584" style="stroke: #000000; stroke-width: 0.6"/>
      </g>
     </g>
    </g>
    <g id="xtick_50">
     <g id="line2d_50">
      <g>
       <use xlink:href="#m87b1634463" x="388.168926" y="307.584" style="stroke: #000000; stroke-width: 0.6"/>
      </g>
     </g>
    </g>
    <g id="xtick_51">
     <g id="line2d_51">
      <g>
       <use xlink:href="#m87b1634463" x="392.217081" y="307.584" style="stroke: #000000; stroke-width: 0.6"/>
      </g>
     </g>
    </g>
    <g id="xtick_52">
     <g id="line2d_52">
      <g>
       <use xlink:href="#m87b1634463" x="395.723753" y="307.584" style="stroke: #000000; stroke-width: 0.6"/>
      </g>
     </g>
    </g>
    <g id="xtick_53">
     <g id="line2d_53">
      <g>
       <use xlink:href="#m87b1634463" x="398.816856" y="307.584" style="stroke: #000000; stroke-width: 0.6"/>
      </g>
     </g>
    </g>
    <g id="text_7">
     <!-- Time in second (log-scale) -->
     <g transform="translate(170.556875 335.860562) scale(0.1 -0.1)">
      <defs>
       <path id="DejaVuSans-54" d="M -19 4666 
L 3928 4666 
L 3928 4134 
L 2272 4134 
L 2272 0 
L 1638 0 
L 1638 4134 
L -19 4134 
L -19 4666 
z
" transform="scale(0.015625)"/>
       <path id="DejaVuSans-69" d="M 603 3500 
L 1178 3500 
L 1178 0 
L 603 0 
L 603 3500 
z
M 603 4863 
L 1178 4863 
L 1178 4134 
L 603 4134 
L 603 4863 
z
" transform="scale(0.015625)"/>
       <path id="DejaVuSans-6d" d="M 3328 2828 
Q 3544 3216 3844 3400 
Q 4144 3584 4550 3584 
Q 5097 3584 5394 3201 
Q 5691 2819 5691 2113 
L 5691 0 
L 5113 0 
L 5113 2094 
Q 5113 2597 4934 2840 
Q 4756 3084 4391 3084 
Q 3944 3084 3684 2787 
Q 3425 2491 3425 1978 
L 3425 0 
L 2847 0 
L 2847 2094 
Q 2847 2600 2669 2842 
Q 2491 3084 2119 3084 
Q 1678 3084 1418 2786 
Q 1159 2488 1159 1978 
L 1159 0 
L 581 0 
L 581 3500 
L 1159 3500 
L 1159 2956 
Q 1356 3278 1631 3431 
Q 1906 3584 2284 3584 
Q 2666 3584 2933 3390 
Q 3200 3197 3328 2828 
z
" transform="scale(0.015625)"/>
       <path id="DejaVuSans-65" d="M 3597 1894 
L 3597 1613 
L 953 1613 
Q 991 1019 1311 708 
Q 1631 397 2203 397 
Q 2534 397 2845 478 
Q 3156 559 3463 722 
L 3463 178 
Q 3153 47 2828 -22 
Q 2503 -91 2169 -91 
Q 1331 -91 842 396 
Q 353 884 353 1716 
Q 353 2575 817 3079 
Q 1281 3584 2069 3584 
Q 2775 3584 3186 3129 
Q 3597 2675 3597 1894 
z
M 3022 2063 
Q 3016 2534 2758 2815 
Q 2500 3097 2075 3097 
Q 1594 3097 1305 2825 
Q 1016 2553 972 2059 
L 3022 2063 
z
" transform="scale(0.015625)"/>
       <path id="DejaVuSans-20" transform="scale(0.015625)"/>
       <path id="DejaVuSans-6e" d="M 3513 2113 
L 3513 0 
L 2938 0 
L 2938 2094 
Q 2938 2591 2744 2837 
Q 2550 3084 2163 3084 
Q 1697 3084 1428 2787 
Q 1159 2491 1159 1978 
L 1159 0 
L 581 0 
L 581 3500 
L 1159 3500 
L 1159 2956 
Q 1366 3272 1645 3428 
Q 1925 3584 2291 3584 
Q 2894 3584 3203 3211 
Q 3513 2838 3513 2113 
z
" transform="scale(0.015625)"/>
       <path id="DejaVuSans-73" d="M 2834 3397 
L 2834 2853 
Q 2591 2978 2328 3040 
Q 2066 3103 1784 3103 
Q 1356 3103 1142 2972 
Q 928 2841 928 2578 
Q 928 2378 1081 2264 
Q 1234 2150 1697 2047 
L 1894 2003 
Q 2506 1872 2764 1633 
Q 3022 1394 3022 966 
Q 3022 478 2636 193 
Q 2250 -91 1575 -91 
Q 1294 -91 989 -36 
Q 684 19 347 128 
L 347 722 
Q 666 556 975 473 
Q 1284 391 1588 391 
Q 1994 391 2212 530 
Q 2431 669 2431 922 
Q 2431 1156 2273 1281 
Q 2116 1406 1581 1522 
L 1381 1569 
Q 847 1681 609 1914 
Q 372 2147 372 2553 
Q 372 3047 722 3315 
Q 1072 3584 1716 3584 
Q 2034 3584 2315 3537 
Q 2597 3491 2834 3397 
z
" transform="scale(0.015625)"/>
       <path id="DejaVuSans-63" d="M 3122 3366 
L 3122 2828 
Q 2878 2963 2633 3030 
Q 2388 3097 2138 3097 
Q 1578 3097 1268 2742 
Q 959 2388 959 1747 
Q 959 1106 1268 751 
Q 1578 397 2138 397 
Q 2388 397 2633 464 
Q 2878 531 3122 666 
L 3122 134 
Q 2881 22 2623 -34 
Q 2366 -91 2075 -91 
Q 1284 -91 818 406 
Q 353 903 353 1747 
Q 353 2603 823 3093 
Q 1294 3584 2113 3584 
Q 2378 3584 2631 3529 
Q 2884 3475 3122 3366 
z
" transform="scale(0.015625)"/>
       <path id="DejaVuSans-6f" d="M 1959 3097 
Q 1497 3097 1228 2736 
Q 959 2375 959 1747 
Q 959 1119 1226 758 
Q 1494 397 1959 397 
Q 2419 397 2687 759 
Q 2956 1122 2956 1747 
Q 2956 2369 2687 2733 
Q 2419 3097 1959 3097 
z
M 1959 3584 
Q 2709 3584 3137 3096 
Q 3566 2609 3566 1747 
Q 3566 888 3137 398 
Q 2709 -91 1959 -91 
Q 1206 -91 779 398 
Q 353 888 353 1747 
Q 353 2609 779 3096 
Q 1206 3584 1959 3584 
z
" transform="scale(0.015625)"/>
       <path id="DejaVuSans-64" d="M 2906 2969 
L 2906 4863 
L 3481 4863 
L 3481 0 
L 2906 0 
L 2906 525 
Q 2725 213 2448 61 
Q 2172 -91 1784 -91 
Q 1150 -91 751 415 
Q 353 922 353 1747 
Q 353 2572 751 3078 
Q 1150 3584 1784 3584 
Q 2172 3584 2448 3432 
Q 2725 3281 2906 2969 
z
M 947 1747 
Q 947 1113 1208 752 
Q 1469 391 1925 391 
Q 2381 391 2643 752 
Q 2906 1113 2906 1747 
Q 2906 2381 2643 2742 
Q 2381 3103 1925 3103 
Q 1469 3103 1208 2742 
Q 947 2381 947 1747 
z
" transform="scale(0.015625)"/>
       <path id="DejaVuSans-28" d="M 1984 4856 
Q 1566 4138 1362 3434 
Q 1159 2731 1159 2009 
Q 1159 1288 1364 580 
Q 1569 -128 1984 -844 
L 1484 -844 
Q 1016 -109 783 600 
Q 550 1309 550 2009 
Q 550 2706 781 3412 
Q 1013 4119 1484 4856 
L 1984 4856 
z
" transform="scale(0.015625)"/>
       <path id="DejaVuSans-6c" d="M 603 4863 
L 1178 4863 
L 1178 0 
L 603 0 
L 603 4863 
z
" transform="scale(0.015625)"/>
       <path id="DejaVuSans-67" d="M 2906 1791 
Q 2906 2416 2648 2759 
Q 2391 3103 1925 3103 
Q 1463 3103 1205 2759 
Q 947 2416 947 1791 
Q 947 1169 1205 825 
Q 1463 481 1925 481 
Q 2391 481 2648 825 
Q 2906 1169 2906 1791 
z
M 3481 434 
Q 3481 -459 3084 -895 
Q 2688 -1331 1869 -1331 
Q 1566 -1331 1297 -1286 
Q 1028 -1241 775 -1147 
L 775 -588 
Q 1028 -725 1275 -790 
Q 1522 -856 1778 -856 
Q 2344 -856 2625 -561 
Q 2906 -266 2906 331 
L 2906 616 
Q 2728 306 2450 153 
Q 2172 0 1784 0 
Q 1141 0 747 490 
Q 353 981 353 1791 
Q 353 2603 747 3093 
Q 1141 3584 1784 3584 
Q 2172 3584 2450 3431 
Q 2728 3278 2906 2969 
L 2906 3500 
L 3481 3500 
L 3481 434 
z
" transform="scale(0.015625)"/>
       <path id="DejaVuSans-2d" d="M 313 2009 
L 1997 2009 
L 1997 1497 
L 313 1497 
L 313 2009 
z
" transform="scale(0.015625)"/>
       <path id="DejaVuSans-61" d="M 2194 1759 
Q 1497 1759 1228 1600 
Q 959 1441 959 1056 
Q 959 750 1161 570 
Q 1363 391 1709 391 
Q 2188 391 2477 730 
Q 2766 1069 2766 1631 
L 2766 1759 
L 2194 1759 
z
M 3341 1997 
L 3341 0 
L 2766 0 
L 2766 531 
Q 2569 213 2275 61 
Q 1981 -91 1556 -91 
Q 1019 -91 701 211 
Q 384 513 384 1019 
Q 384 1609 779 1909 
Q 1175 2209 1959 2209 
L 2766 2209 
L 2766 2266 
Q 2766 2663 2505 2880 
Q 2244 3097 1772 3097 
Q 1472 3097 1187 3025 
Q 903 2953 641 2809 
L 641 3341 
Q 956 3463 1253 3523 
Q 1550 3584 1831 3584 
Q 2591 3584 2966 3190 
Q 3341 2797 3341 1997 
z
" transform="scale(0.015625)"/>
       <path id="DejaVuSans-29" d="M 513 4856 
L 1013 4856 
Q 1481 4119 1714 3412 
Q 1947 2706 1947 2009 
Q 1947 1309 1714 600 
Q 1481 -109 1013 -844 
L 513 -844 
Q 928 -128 1133 580 
Q 1338 1288 1338 2009 
Q 1338 2731 1133 3434 
Q 928 4138 513 4856 
z
" transform="scale(0.015625)"/>
      </defs>
      <use xlink:href="#DejaVuSans-54"/>
      <use xlink:href="#DejaVuSans-69" x="57.958984"/>
      <use xlink:href="#DejaVuSans-6d" x="85.742188"/>
      <use xlink:href="#DejaVuSans-65" x="183.154297"/>
      <use xlink:href="#DejaVuSans-20" x="244.677734"/>
      <use xlink:href="#DejaVuSans-69" x="276.464844"/>
      <use xlink:href="#DejaVuSans-6e" x="304.248047"/>
      <use xlink:href="#DejaVuSans-20" x="367.626953"/>
      <use xlink:href="#DejaVuSans-73" x="399.414062"/>
      <use xlink:href="#DejaVuSans-65" x="451.513672"/>
      <use xlink:href="#DejaVuSans-63" x="513.037109"/>
      <use xlink:href="#DejaVuSans-6f" x="568.017578"/>
      <use xlink:href="#DejaVuSans-6e" x="629.199219"/>
      <use xlink:href="#DejaVuSans-64" x="692.578125"/>
      <use xlink:href="#DejaVuSans-20" x="756.054688"/>
      <use xlink:href="#DejaVuSans-28" x="787.841797"/>
      <use xlink:href="#DejaVuSans-6c" x="826.855469"/>
      <use xlink:href="#DejaVuSans-6f" x="854.638672"/>
      <use xlink:href="#DejaVuSans-67" x="915.820312"/>
      <use xlink:href="#DejaVuSans-2d" x="979.296875"/>
      <use xlink:href="#DejaVuSans-73" x="1015.380859"/>
      <use xlink:href="#DejaVuSans-63" x="1067.480469"/>
      <use xlink:href="#DejaVuSans-61" x="1122.460938"/>
      <use xlink:href="#DejaVuSans-6c" x="1183.740234"/>
      <use xlink:href="#DejaVuSans-65" x="1211.523438"/>
      <use xlink:href="#DejaVuSans-29" x="1273.046875"/>
     </g>
    </g>
   </g>
   <g id="matplotlib.axis_2">
    <g id="ytick_1">
     <g id="line2d_54">
      <defs>
       <path id="m47d48ad6d7" d="M 0 0 
L -3.5 0 
" style="stroke: #000000; stroke-width: 0.8"/>
      </defs>
      <g>
       <use xlink:href="#m47d48ad6d7" x="57.6" y="295.488" style="stroke: #000000; stroke-width: 0.8"/>
      </g>
     </g>
     <g id="text_8">
      <!-- 0 -->
      <g transform="translate(44.2375 299.287219) scale(0.1 -0.1)">
       <use xlink:href="#DejaVuSans-30"/>
      </g>
     </g>
    </g>
    <g id="ytick_2">
     <g id="line2d_55">
      <g>
       <use xlink:href="#m47d48ad6d7" x="57.6" y="257.330271" style="stroke: #000000; stroke-width: 0.8"/>
      </g>
     </g>
     <g id="text_9">
      <!-- 50 -->
      <g transform="translate(37.875 261.12949) scale(0.1 -0.1)">
       <defs>
        <path id="DejaVuSans-35" d="M 691 4666 
L 3169 4666 
L 3169 4134 
L 1269 4134 
L 1269 2991 
Q 1406 3038 1543 3061 
Q 1681 3084 1819 3084 
Q 2600 3084 3056 2656 
Q 3513 2228 3513 1497 
Q 3513 744 3044 326 
Q 2575 -91 1722 -91 
Q 1428 -91 1123 -41 
Q 819 9 494 109 
L 494 744 
Q 775 591 1075 516 
Q 1375 441 1709 441 
Q 2250 441 2565 725 
Q 2881 1009 2881 1497 
Q 2881 1984 2565 2268 
Q 2250 2553 1709 2553 
Q 1456 2553 1204 2497 
Q 953 2441 691 2322 
L 691 4666 
z
" transform="scale(0.015625)"/>
       </defs>
       <use xlink:href="#DejaVuSans-35"/>
       <use xlink:href="#DejaVuSans-30" x="63.623047"/>
      </g>
     </g>
    </g>
    <g id="ytick_3">
     <g id="line2d_56">
      <g>
       <use xlink:href="#m47d48ad6d7" x="57.6" y="219.172543" style="stroke: #000000; stroke-width: 0.8"/>
      </g>
     </g>
     <g id="text_10">
      <!-- 100 -->
      <g transform="translate(31.5125 222.971761) scale(0.1 -0.1)">
       <use xlink:href="#DejaVuSans-31"/>
       <use xlink:href="#DejaVuSans-30" x="63.623047"/>
       <use xlink:href="#DejaVuSans-30" x="127.246094"/>
      </g>
     </g>
    </g>
    <g id="ytick_4">
     <g id="line2d_57">
      <g>
       <use xlink:href="#m47d48ad6d7" x="57.6" y="181.014814" style="stroke: #000000; stroke-width: 0.8"/>
      </g>
     </g>
     <g id="text_11">
      <!-- 150 -->
      <g transform="translate(31.5125 184.814033) scale(0.1 -0.1)">
       <use xlink:href="#DejaVuSans-31"/>
       <use xlink:href="#DejaVuSans-35" x="63.623047"/>
       <use xlink:href="#DejaVuSans-30" x="127.246094"/>
      </g>
     </g>
    </g>
    <g id="ytick_5">
     <g id="line2d_58">
      <g>
       <use xlink:href="#m47d48ad6d7" x="57.6" y="142.857085" style="stroke: #000000; stroke-width: 0.8"/>
      </g>
     </g>
     <g id="text_12">
      <!-- 200 -->
      <g transform="translate(31.5125 146.656304) scale(0.1 -0.1)">
       <use xlink:href="#DejaVuSans-32"/>
       <use xlink:href="#DejaVuSans-30" x="63.623047"/>
       <use xlink:href="#DejaVuSans-30" x="127.246094"/>
      </g>
     </g>
    </g>
    <g id="ytick_6">
     <g id="line2d_59">
      <g>
       <use xlink:href="#m47d48ad6d7" x="57.6" y="104.699356" style="stroke: #000000; stroke-width: 0.8"/>
      </g>
     </g>
     <g id="text_13">
      <!-- 250 -->
      <g transform="translate(31.5125 108.498575) scale(0.1 -0.1)">
       <use xlink:href="#DejaVuSans-32"/>
       <use xlink:href="#DejaVuSans-35" x="63.623047"/>
       <use xlink:href="#DejaVuSans-30" x="127.246094"/>
      </g>
     </g>
    </g>
    <g id="ytick_7">
     <g id="line2d_60">
      <g>
       <use xlink:href="#m47d48ad6d7" x="57.6" y="66.541628" style="stroke: #000000; stroke-width: 0.8"/>
      </g>
     </g>
     <g id="text_14">
      <!-- 300 -->
      <g transform="translate(31.5125 70.340847) scale(0.1 -0.1)">
       <use xlink:href="#DejaVuSans-33"/>
       <use xlink:href="#DejaVuSans-30" x="63.623047"/>
       <use xlink:href="#DejaVuSans-30" x="127.246094"/>
      </g>
     </g>
    </g>
    <g id="text_15">
     <!-- Number of inst. solved -->
     <g transform="translate(25.432812 231.175656) rotate(-90) scale(0.1 -0.1)">
      <defs>
       <path id="DejaVuSans-4e" d="M 628 4666 
L 1478 4666 
L 3547 763 
L 3547 4666 
L 4159 4666 
L 4159 0 
L 3309 0 
L 1241 3903 
L 1241 0 
L 628 0 
L 628 4666 
z
" transform="scale(0.015625)"/>
       <path id="DejaVuSans-75" d="M 544 1381 
L 544 3500 
L 1119 3500 
L 1119 1403 
Q 1119 906 1312 657 
Q 1506 409 1894 409 
Q 2359 409 2629 706 
Q 2900 1003 2900 1516 
L 2900 3500 
L 3475 3500 
L 3475 0 
L 2900 0 
L 2900 538 
Q 2691 219 2414 64 
Q 2138 -91 1772 -91 
Q 1169 -91 856 284 
Q 544 659 544 1381 
z
M 1991 3584 
L 1991 3584 
z
" transform="scale(0.015625)"/>
       <path id="DejaVuSans-62" d="M 3116 1747 
Q 3116 2381 2855 2742 
Q 2594 3103 2138 3103 
Q 1681 3103 1420 2742 
Q 1159 2381 1159 1747 
Q 1159 1113 1420 752 
Q 1681 391 2138 391 
Q 2594 391 2855 752 
Q 3116 1113 3116 1747 
z
M 1159 2969 
Q 1341 3281 1617 3432 
Q 1894 3584 2278 3584 
Q 2916 3584 3314 3078 
Q 3713 2572 3713 1747 
Q 3713 922 3314 415 
Q 2916 -91 2278 -91 
Q 1894 -91 1617 61 
Q 1341 213 1159 525 
L 1159 0 
L 581 0 
L 581 4863 
L 1159 4863 
L 1159 2969 
z
" transform="scale(0.015625)"/>
       <path id="DejaVuSans-72" d="M 2631 2963 
Q 2534 3019 2420 3045 
Q 2306 3072 2169 3072 
Q 1681 3072 1420 2755 
Q 1159 2438 1159 1844 
L 1159 0 
L 581 0 
L 581 3500 
L 1159 3500 
L 1159 2956 
Q 1341 3275 1631 3429 
Q 1922 3584 2338 3584 
Q 2397 3584 2469 3576 
Q 2541 3569 2628 3553 
L 2631 2963 
z
" transform="scale(0.015625)"/>
       <path id="DejaVuSans-66" d="M 2375 4863 
L 2375 4384 
L 1825 4384 
Q 1516 4384 1395 4259 
Q 1275 4134 1275 3809 
L 1275 3500 
L 2222 3500 
L 2222 3053 
L 1275 3053 
L 1275 0 
L 697 0 
L 697 3053 
L 147 3053 
L 147 3500 
L 697 3500 
L 697 3744 
Q 697 4328 969 4595 
Q 1241 4863 1831 4863 
L 2375 4863 
z
" transform="scale(0.015625)"/>
       <path id="DejaVuSans-74" d="M 1172 4494 
L 1172 3500 
L 2356 3500 
L 2356 3053 
L 1172 3053 
L 1172 1153 
Q 1172 725 1289 603 
Q 1406 481 1766 481 
L 2356 481 
L 2356 0 
L 1766 0 
Q 1100 0 847 248 
Q 594 497 594 1153 
L 594 3053 
L 172 3053 
L 172 3500 
L 594 3500 
L 594 4494 
L 1172 4494 
z
" transform="scale(0.015625)"/>
       <path id="DejaVuSans-2e" d="M 684 794 
L 1344 794 
L 1344 0 
L 684 0 
L 684 794 
z
" transform="scale(0.015625)"/>
       <path id="DejaVuSans-76" d="M 191 3500 
L 800 3500 
L 1894 563 
L 2988 3500 
L 3597 3500 
L 2284 0 
L 1503 0 
L 191 3500 
z
" transform="scale(0.015625)"/>
      </defs>
      <use xlink:href="#DejaVuSans-4e"/>
      <use xlink:href="#DejaVuSans-75" x="74.804688"/>
      <use xlink:href="#DejaVuSans-6d" x="138.183594"/>
      <use xlink:href="#DejaVuSans-62" x="235.595703"/>
      <use xlink:href="#DejaVuSans-65" x="299.072266"/>
      <use xlink:href="#DejaVuSans-72" x="360.595703"/>
      <use xlink:href="#DejaVuSans-20" x="401.708984"/>
      <use xlink:href="#DejaVuSans-6f" x="433.496094"/>
      <use xlink:href="#DejaVuSans-66" x="494.677734"/>
      <use xlink:href="#DejaVuSans-20" x="529.882812"/>
      <use xlink:href="#DejaVuSans-69" x="561.669922"/>
      <use xlink:href="#DejaVuSans-6e" x="589.453125"/>
      <use xlink:href="#DejaVuSans-73" x="652.832031"/>
      <use xlink:href="#DejaVuSans-74" x="704.931641"/>
      <use xlink:href="#DejaVuSans-2e" x="744.140625"/>
      <use xlink:href="#DejaVuSans-20" x="775.927734"/>
      <use xlink:href="#DejaVuSans-73" x="807.714844"/>
      <use xlink:href="#DejaVuSans-6f" x="859.814453"/>
      <use xlink:href="#DejaVuSans-6c" x="920.996094"/>
      <use xlink:href="#DejaVuSans-76" x="948.779297"/>
      <use xlink:href="#DejaVuSans-65" x="1007.958984"/>
      <use xlink:href="#DejaVuSans-64" x="1069.482422"/>
     </g>
    </g>
   </g>
   <g id="line2d_61">
    <path d="M 92.717627 295.488 
L 92.717627 294.724845 
L 110.920385 294.724845 
L 110.920385 293.961691 
L 121.568315 293.961691 
L 121.568315 293.198536 
L 129.457682 293.198536 
L 129.457682 292.435382 
L 135.56031 292.435382 
L 135.56031 291.672227 
L 140.581435 291.672227 
L 140.581435 290.909073 
L 144.841187 290.909073 
L 144.841187 290.145918 
L 148.54565 290.145918 
L 148.54565 289.382763 
L 151.791568 289.382763 
L 151.791568 288.619609 
L 154.680058 288.619609 
L 154.680058 287.856454 
L 157.282087 287.856454 
L 157.282087 287.0933 
L 159.649382 287.0933 
L 159.649382 286.330145 
L 161.820812 286.330145 
L 161.820812 285.566991 
L 163.848768 285.566991 
L 163.848768 284.803836 
L 165.752156 284.803836 
L 165.752156 284.040681 
L 167.526862 284.040681 
L 167.526862 283.277527 
L 169.189188 283.277527 
L 169.189188 282.514372 
L 170.752524 282.514372 
L 170.752524 281.751218 
L 172.244299 281.751218 
L 172.244299 280.988063 
L 173.655868 280.988063 
L 173.655868 280.224909 
L 175.010088 280.224909 
L 175.010088 279.461754 
L 176.297885 279.461754 
L 176.297885 278.698599 
L 177.525472 278.698599 
L 177.525472 277.935445 
L 178.698228 277.935445 
L 178.698228 277.17229 
L 179.820843 277.17229 
L 179.820843 276.409136 
L 180.897428 276.409136 
L 180.897428 275.645981 
L 181.931612 275.645981 
L 181.931612 274.882826 
L 182.926606 274.882826 
L 182.926606 274.119672 
L 183.895731 274.119672 
L 183.895731 273.356517 
L 184.84045 273.356517 
L 184.84045 272.593363 
L 185.75236 272.593363 
L 185.75236 271.830208 
L 186.633664 271.830208 
L 186.633664 271.067054 
L 187.486349 271.067054 
L 187.486349 270.303899 
L 188.312217 270.303899 
L 188.312217 269.540744 
L 189.112902 269.540744 
L 189.112902 268.77759 
L 189.895443 268.77759 
L 189.895443 268.014435 
L 190.666114 268.014435 
L 190.666114 267.251281 
L 191.430511 267.251281 
L 191.430511 266.488126 
L 192.173286 266.488126 
L 192.173286 265.724972 
L 192.910468 265.724972 
L 192.910468 264.961817 
L 193.627521 264.961817 
L 193.627521 264.198662 
L 194.339567 264.198662 
L 194.339567 263.435508 
L 195.032815 263.435508 
L 195.032815 262.672353 
L 195.708233 262.672353 
L 195.708233 261.909199 
L 196.366713 261.909199 
L 196.366713 261.146044 
L 197.013316 261.146044 
L 197.013316 260.38289 
L 197.652638 260.38289 
L 197.652638 259.619735 
L 198.276764 259.619735 
L 198.276764 258.85658 
L 198.886401 258.85658 
L 198.886401 258.093426 
L 199.482206 258.093426 
L 199.482206 257.330271 
L 200.076088 257.330271 
L 200.076088 256.567117 
L 200.656836 256.567117 
L 200.656836 255.803962 
L 201.235826 255.803962 
L 201.235826 255.040808 
L 201.802325 255.040808 
L 201.802325 254.277653 
L 202.367213 254.277653 
L 202.367213 253.514498 
L 202.930336 253.514498 
L 202.930336 252.751344 
L 203.491555 252.751344 
L 203.491555 251.988189 
L 204.070145 251.988189 
L 204.070145 251.225035 
L 204.636261 251.225035 
L 204.636261 250.46188 
L 205.227581 250.46188 
L 205.227581 249.698726 
L 205.814957 249.698726 
L 205.814957 248.935571 
L 206.400579 248.935571 
L 206.400579 248.172416 
L 206.979938 248.172416 
L 206.979938 247.409262 
L 207.546792 247.409262 
L 207.546792 246.646107 
L 208.109985 246.646107 
L 208.109985 245.882953 
L 208.661353 245.882953 
L 208.661353 245.119798 
L 209.225305 245.119798 
L 209.225305 244.356644 
L 209.800804 244.356644 
L 209.800804 243.593489 
L 210.367777 243.593489 
L 210.367777 242.830334 
L 210.922768 242.830334 
L 210.922768 242.06718 
L 211.491875 242.06718 
L 211.491875 241.304025 
L 212.056066 241.304025 
L 212.056066 240.540871 
L 212.615398 240.540871 
L 212.615398 239.777716 
L 213.231581 239.777716 
L 213.231581 239.014562 
L 214.241745 239.014562 
L 214.241745 238.251407 
L 216.948467 238.251407 
L 216.948467 237.488252 
L 219.948184 237.488252 
L 219.948184 236.725098 
L 223.301246 236.725098 
L 223.301246 235.961943 
L 226.806023 235.961943 
L 226.806023 235.198789 
L 230.121606 235.198789 
L 230.121606 234.435634 
L 233.199818 234.435634 
L 233.199818 233.672479 
L 235.989317 233.672479 
L 235.989317 232.909325 
L 239.285788 232.909325 
L 239.285788 232.14617 
L 242.498643 232.14617 
L 242.498643 231.383016 
L 246.050388 231.383016 
L 246.050388 230.619861 
L 249.22198 230.619861 
L 249.22198 229.856707 
L 252.087733 229.856707 
L 252.087733 229.093552 
L 254.745692 229.093552 
L 254.745692 228.330397 
L 257.82009 228.330397 
L 257.82009 227.567243 
L 260.997754 227.567243 
L 260.997754 226.804088 
L 266.13394 226.804088 
L 266.13394 226.040934 
L 270.730122 226.040934 
L 270.730122 225.277779 
L 274.854787 225.277779 
L 274.854787 224.514625 
L 278.920991 224.514625 
L 278.920991 223.75147 
L 282.471586 223.75147 
L 282.471586 222.988315 
L 285.792516 222.988315 
L 285.792516 222.225161 
L 289.122215 222.225161 
L 289.122215 221.462006 
L 293.067037 221.462006 
L 293.067037 220.698852 
L 298.151426 220.698852 
L 298.151426 219.935697 
L 302.559072 219.935697 
L 302.559072 219.172543 
L 306.839558 219.172543 
L 306.839558 218.409388 
L 310.798366 218.409388 
L 310.798366 217.646233 
L 314.876899 217.646233 
L 314.876899 216.883079 
L 318.48938 216.883079 
L 318.48938 216.119924 
L 321.927324 216.119924 
L 321.927324 215.35677 
L 325.12983 215.35677 
L 325.12983 214.593615 
L 328.453878 214.593615 
L 328.453878 213.830461 
L 331.48126 213.830461 
L 331.48126 213.067306 
L 334.25307 213.067306 
L 334.25307 212.304151 
L 336.923799 212.304151 
L 336.923799 211.540997 
L 339.507578 211.540997 
L 339.507578 210.777842 
L 342.122848 210.777842 
L 342.122848 210.777842 
" clip-path="url(#p6ac6ddf3d9)" style="fill: none; stroke: #1f77b4; stroke-width: 1.5; stroke-linecap: square"/>
   </g>
   <g id="line2d_62">
    <path d="M 132.734816 295.488 
L 132.734816 294.724845 
L 151.083874 294.724845 
L 151.083874 293.961691 
L 161.877296 293.961691 
L 161.877296 293.198536 
L 169.504567 293.198536 
L 169.504567 292.435382 
L 175.407917 292.435382 
L 175.407917 291.672227 
L 180.24878 291.672227 
L 180.24878 290.909073 
L 184.344944 290.909073 
L 184.344944 290.145918 
L 187.896545 290.145918 
L 187.896545 289.382763 
L 191.040475 289.382763 
L 191.040475 288.619609 
L 193.847941 288.619609 
L 193.847941 287.856454 
L 196.397043 287.856454 
L 196.397043 287.0933 
L 198.723427 287.0933 
L 198.723427 286.330145 
L 200.868609 286.330145 
L 200.868609 285.566991 
L 202.851714 285.566991 
L 202.851714 284.803836 
L 204.695522 284.803836 
L 204.695522 284.040681 
L 206.418325 284.040681 
L 206.418325 283.277527 
L 208.035031 283.277527 
L 208.035031 282.514372 
L 209.557953 282.514372 
L 209.557953 281.751218 
L 210.997379 281.751218 
L 210.997379 280.988063 
L 212.369061 280.988063 
L 212.369061 280.224909 
L 213.67264 280.224909 
L 213.67264 279.461754 
L 214.914558 279.461754 
L 214.914558 278.698599 
L 216.106522 278.698599 
L 216.106522 277.935445 
L 217.246724 277.935445 
L 217.246724 277.17229 
L 218.339473 277.17229 
L 218.339473 276.409136 
L 219.393976 276.409136 
L 219.393976 275.645981 
L 220.41297 275.645981 
L 220.41297 274.882826 
L 221.393898 274.882826 
L 221.393898 274.119672 
L 222.3395 274.119672 
L 222.3395 273.356517 
L 223.256906 273.356517 
L 223.256906 272.593363 
L 224.143341 272.593363 
L 224.143341 271.830208 
L 225.001922 271.830208 
L 225.001922 271.067054 
L 225.834378 271.067054 
L 225.834378 270.303899 
L 226.643308 270.303899 
L 226.643308 269.540744 
L 227.428062 269.540744 
L 227.428062 268.77759 
L 228.190045 268.77759 
L 228.190045 268.014435 
L 228.93054 268.014435 
L 228.93054 267.251281 
L 229.656219 267.251281 
L 229.656219 266.488126 
L 230.362976 266.488126 
L 230.362976 265.724972 
L 231.052368 265.724972 
L 231.052368 264.961817 
L 231.724124 264.961817 
L 231.724124 264.198662 
L 232.379124 264.198662 
L 232.379124 263.435508 
L 233.021405 263.435508 
L 233.021405 262.672353 
L 233.651496 262.672353 
L 233.651496 261.909199 
L 234.266823 261.909199 
L 234.266823 261.146044 
L 234.868061 261.146044 
L 234.868061 260.38289 
L 235.455842 260.38289 
L 235.455842 259.619735 
L 236.030755 259.619735 
L 236.030755 258.85658 
L 236.594756 258.85658 
L 236.594756 258.093426 
L 237.148274 258.093426 
L 237.148274 257.330271 
L 237.693062 257.330271 
L 237.693062 256.567117 
L 238.226778 256.567117 
L 238.226778 255.803962 
L 238.749863 255.803962 
L 238.749863 255.040808 
L 239.262731 255.040808 
L 239.262731 254.277653 
L 239.765775 254.277653 
L 239.765775 253.514498 
L 240.260586 253.514498 
L 240.260586 252.751344 
L 240.747447 252.751344 
L 240.747447 251.988189 
L 241.225445 251.988189 
L 241.225445 251.225035 
L 241.694898 251.225035 
L 241.694898 250.46188 
L 242.15838 250.46188 
L 242.15838 249.698726 
L 242.613824 249.698726 
L 242.613824 248.935571 
L 243.062602 248.935571 
L 243.062602 248.172416 
L 243.50384 248.172416 
L 243.50384 247.409262 
L 243.938141 247.409262 
L 243.938141 246.646107 
L 244.366073 246.646107 
L 244.366073 245.882953 
L 244.787144 245.882953 
L 244.787144 245.119798 
L 245.201569 245.119798 
L 245.201569 244.356644 
L 245.610553 244.356644 
L 245.610553 243.593489 
L 246.014247 243.593489 
L 246.014247 242.830334 
L 246.411829 242.830334 
L 246.411829 242.06718 
L 246.803482 242.06718 
L 246.803482 241.304025 
L 247.190318 241.304025 
L 247.190318 240.540871 
L 247.572463 240.540871 
L 247.572463 239.777716 
L 247.950952 239.777716 
L 247.950952 239.014562 
L 248.324063 239.014562 
L 248.324063 238.251407 
L 248.691947 238.251407 
L 248.691947 237.488252 
L 249.054749 237.488252 
L 249.054749 236.725098 
L 249.414332 236.725098 
L 249.414332 235.961943 
L 249.769058 235.961943 
L 249.769058 235.198789 
L 250.119056 235.198789 
L 250.119056 234.435634 
L 250.464451 234.435634 
L 250.464451 233.672479 
L 250.805362 233.672479 
L 250.805362 232.909325 
L 251.143519 232.909325 
L 251.143519 232.14617 
L 251.477378 232.14617 
L 251.477378 231.383016 
L 251.807045 231.383016 
L 251.807045 230.619861 
L 252.132625 230.619861 
L 252.132625 229.856707 
L 252.454986 229.856707 
L 252.454986 229.093552 
L 252.774197 229.093552 
L 252.774197 228.330397 
L 253.089575 228.330397 
L 253.089575 227.567243 
L 253.40121 227.567243 
L 253.40121 226.804088 
L 253.713585 226.804088 
L 253.713585 226.040934 
L 254.022287 226.040934 
L 254.022287 225.277779 
L 254.328834 225.277779 
L 254.328834 224.514625 
L 254.631844 224.514625 
L 254.631844 223.75147 
L 254.931397 223.75147 
L 254.931397 222.988315 
L 255.227572 222.988315 
L 255.227572 222.225161 
L 255.525913 222.225161 
L 255.525913 221.462006 
L 255.820902 221.462006 
L 255.820902 220.698852 
L 256.112615 220.698852 
L 256.112615 219.935697 
L 256.401122 219.935697 
L 256.401122 219.172543 
L 256.686495 219.172543 
L 256.686495 218.409388 
L 256.969447 218.409388 
L 256.969447 217.646233 
L 257.250022 217.646233 
L 257.250022 216.883079 
L 257.527632 216.883079 
L 257.527632 216.119924 
L 257.802337 216.119924 
L 257.802337 215.35677 
L 258.07544 215.35677 
L 258.07544 214.593615 
L 258.346959 214.593615 
L 258.346959 213.830461 
L 258.616915 213.830461 
L 258.616915 213.067306 
L 258.884124 213.067306 
L 258.884124 212.304151 
L 259.149833 212.304151 
L 259.149833 211.540997 
L 259.414059 211.540997 
L 259.414059 210.777842 
L 259.67682 210.777842 
L 259.67682 210.014688 
L 259.936978 210.014688 
L 259.936978 209.251533 
L 260.195728 209.251533 
L 260.195728 208.488379 
L 260.453087 208.488379 
L 260.453087 207.725224 
L 260.707948 207.725224 
L 260.707948 206.962069 
L 260.96036 206.962069 
L 260.96036 206.198915 
L 261.211469 206.198915 
L 261.211469 205.43576 
L 261.461291 205.43576 
L 261.461291 204.672606 
L 261.710919 204.672606 
L 261.710919 203.909451 
L 261.958196 203.909451 
L 261.958196 203.146297 
L 262.204227 203.146297 
L 262.204227 202.383142 
L 262.449025 202.383142 
L 262.449025 201.619987 
L 262.693642 201.619987 
L 262.693642 200.856833 
L 262.936003 200.856833 
L 262.936003 200.093678 
L 263.177168 200.093678 
L 263.177168 199.330524 
L 263.416139 199.330524 
L 263.416139 198.567369 
L 263.652955 198.567369 
L 263.652955 197.804215 
L 263.888649 197.804215 
L 263.888649 197.04106 
L 264.123231 197.04106 
L 264.123231 196.277905 
L 264.35769 196.277905 
L 264.35769 195.514751 
L 264.591042 195.514751 
L 264.591042 194.751596 
L 264.822339 194.751596 
L 264.822339 193.988442 
L 265.051617 193.988442 
L 265.051617 193.225287 
L 265.27891 193.225287 
L 265.27891 192.462132 
L 265.505188 192.462132 
L 265.505188 191.698978 
L 265.730459 191.698978 
L 265.730459 190.935823 
L 265.953814 190.935823 
L 265.953814 190.172669 
L 266.17802 190.172669 
L 266.17802 189.409514 
L 266.401231 189.409514 
L 266.401231 188.64636 
L 266.622561 188.64636 
L 266.622561 187.883205 
L 266.842041 187.883205 
L 266.842041 187.12005 
L 267.060583 187.12005 
L 267.060583 186.356896 
L 267.278196 186.356896 
L 267.278196 185.593741 
L 267.494019 185.593741 
L 267.494019 184.830587 
L 267.708944 184.830587 
L 267.708944 184.067432 
L 267.922123 184.067432 
L 267.922123 183.304278 
L 268.134432 183.304278 
L 268.134432 182.541123 
L 268.345038 182.541123 
L 268.345038 181.777968 
L 268.554801 181.777968 
L 268.554801 181.014814 
L 268.763727 181.014814 
L 268.763727 180.251659 
L 268.971414 180.251659 
L 268.971414 179.488505 
L 269.177878 179.488505 
L 269.177878 178.72535 
L 269.383538 178.72535 
L 269.383538 177.962196 
L 269.5884 177.962196 
L 269.5884 177.199041 
L 269.793264 177.199041 
L 269.793264 176.435886 
L 269.99733 176.435886 
L 269.99733 175.672732 
L 270.200605 175.672732 
L 270.200605 174.909577 
L 270.403094 174.909577 
L 270.403094 174.146423 
L 270.605574 174.146423 
L 270.605574 173.383268 
L 270.806504 173.383268 
L 270.806504 172.620114 
L 271.005909 172.620114 
L 271.005909 171.856959 
L 271.20381 171.856959 
L 271.20381 171.093804 
L 271.400232 171.093804 
L 271.400232 170.33065 
L 271.600385 170.33065 
L 271.600385 169.567495 
L 271.801966 169.567495 
L 271.801966 168.804341 
L 272.004201 168.804341 
L 272.004201 168.041186 
L 272.205615 168.041186 
L 272.205615 167.278032 
L 272.405496 167.278032 
L 272.405496 166.514877 
L 272.604581 166.514877 
L 272.604581 165.751722 
L 272.802168 165.751722 
L 272.802168 164.988568 
L 272.998279 164.988568 
L 272.998279 164.225413 
L 273.193634 164.225413 
L 273.193634 163.462259 
L 273.387547 163.462259 
L 273.387547 162.699104 
L 273.5821 162.699104 
L 273.5821 161.93595 
L 273.780681 161.93595 
L 273.780681 161.172795 
L 273.978448 161.172795 
L 273.978448 160.40964 
L 274.174737 160.40964 
L 274.174737 159.646486 
L 274.370237 159.646486 
L 274.370237 158.883331 
L 274.570251 158.883331 
L 274.570251 158.120177 
L 274.76941 158.120177 
L 274.76941 157.357022 
L 274.967722 157.357022 
L 274.967722 156.593868 
L 275.167135 156.593868 
L 275.167135 155.830713 
L 275.365689 155.830713 
L 275.365689 155.067558 
L 275.56339 155.067558 
L 275.56339 154.304404 
L 275.759613 154.304404 
L 275.759613 153.541249 
L 275.955009 153.541249 
L 275.955009 152.778095 
L 276.149586 152.778095 
L 276.149586 152.01494 
L 276.353867 152.01494 
L 276.353867 151.251785 
L 276.556571 151.251785 
L 276.556571 150.488631 
L 276.758331 150.488631 
L 276.758331 149.725476 
L 276.959762 149.725476 
L 276.959762 148.962322 
L 277.162659 148.962322 
L 277.162659 148.199167 
L 277.364 148.199167 
L 277.364 147.436013 
L 277.569715 147.436013 
L 277.569715 146.672858 
L 277.775003 146.672858 
L 277.775003 145.909703 
L 277.984511 145.909703 
L 277.984511 145.146549 
L 278.195245 145.146549 
L 278.195245 144.383394 
L 278.404874 144.383394 
L 278.404874 143.62024 
L 278.619651 143.62024 
L 278.619651 142.857085 
L 278.839439 142.857085 
L 278.839439 142.093931 
L 279.060193 142.093931 
L 279.060193 141.330776 
L 279.292935 141.330776 
L 279.292935 140.567621 
L 279.525826 140.567621 
L 279.525826 139.804467 
L 279.760472 139.804467 
L 279.760472 139.041312 
L 279.997348 139.041312 
L 279.997348 138.278158 
L 280.235841 138.278158 
L 280.235841 137.515003 
L 280.47536 137.515003 
L 280.47536 136.751849 
L 280.713761 136.751849 
L 280.713761 135.988694 
L 280.951057 135.988694 
L 280.951057 135.225539 
L 281.192915 135.225539 
L 281.192915 134.462385 
L 281.44276 134.462385 
L 281.44276 133.69923 
L 281.693783 133.69923 
L 281.693783 132.936076 
L 281.942429 132.936076 
L 281.942429 132.172921 
L 282.189238 132.172921 
L 282.189238 131.409767 
L 282.435222 131.409767 
L 282.435222 130.646612 
L 282.684269 130.646612 
L 282.684269 129.883457 
L 282.931458 129.883457 
L 282.931458 129.120303 
L 283.200181 129.120303 
L 283.200181 128.357148 
L 283.479388 128.357148 
L 283.479388 127.593994 
L 283.764522 127.593994 
L 283.764522 126.830839 
L 284.049361 126.830839 
L 284.049361 126.067685 
L 284.333883 126.067685 
L 284.333883 125.30453 
L 284.634765 125.30453 
L 284.634765 124.541375 
L 284.935362 124.541375 
L 284.935362 123.778221 
L 285.240936 123.778221 
L 285.240936 123.015066 
L 285.549533 123.015066 
L 285.549533 122.251912 
L 285.855407 122.251912 
L 285.855407 121.488757 
L 286.15861 121.488757 
L 286.15861 120.725603 
L 286.463825 120.725603 
L 286.463825 119.962448 
L 286.777181 119.962448 
L 286.777181 119.199293 
L 287.089307 119.199293 
L 287.089307 118.436139 
L 287.402641 118.436139 
L 287.402641 117.672984 
L 287.715089 117.672984 
L 287.715089 116.90983 
L 288.025847 116.90983 
L 288.025847 116.146675 
L 288.412026 116.146675 
L 288.412026 115.383521 
L 288.795304 115.383521 
L 288.795304 114.620366 
L 289.177245 114.620366 
L 289.177245 113.857211 
L 289.585494 113.857211 
L 289.585494 113.094057 
L 290.008094 113.094057 
L 290.008094 112.330902 
L 290.426535 112.330902 
L 290.426535 111.567748 
L 290.882556 111.567748 
L 290.882556 110.804593 
L 291.332542 110.804593 
L 291.332542 110.041438 
L 291.785258 110.041438 
L 291.785258 109.278284 
L 292.268458 109.278284 
L 292.268458 108.515129 
L 292.744583 108.515129 
L 292.744583 107.751975 
L 293.241508 107.751975 
L 293.241508 106.98882 
L 293.78436 106.98882 
L 293.78436 106.225666 
L 294.500641 106.225666 
L 294.500641 105.462511 
L 295.214195 105.462511 
L 295.214195 104.699356 
L 295.930306 104.699356 
L 295.930306 103.936202 
L 296.683935 103.936202 
L 296.683935 103.173047 
L 297.500439 103.173047 
L 297.500439 102.409893 
L 298.41409 102.409893 
L 298.41409 101.646738 
L 299.307344 101.646738 
L 299.307344 100.883584 
L 300.174458 100.883584 
L 300.174458 100.120429 
L 301.082929 100.120429 
L 301.082929 99.357274 
L 301.979909 99.357274 
L 301.979909 98.59412 
L 302.88287 98.59412 
L 302.88287 97.830965 
L 303.810004 97.830965 
L 303.810004 97.067811 
L 304.741006 97.067811 
L 304.741006 96.304656 
L 305.706152 96.304656 
L 305.706152 95.541502 
L 306.64157 95.541502 
L 306.64157 94.778347 
L 307.550092 94.778347 
L 307.550092 94.015192 
L 308.441721 94.015192 
L 308.441721 93.252038 
L 309.308125 93.252038 
L 309.308125 92.488883 
L 310.209124 92.488883 
L 310.209124 91.725729 
L 311.125687 91.725729 
L 311.125687 90.962574 
L 312.040912 90.962574 
L 312.040912 90.19942 
L 312.963696 90.19942 
L 312.963696 89.436265 
L 313.894277 89.436265 
L 313.894277 88.67311 
L 314.80574 88.67311 
L 314.80574 87.909956 
L 315.686903 87.909956 
L 315.686903 87.146801 
L 316.623143 87.146801 
L 316.623143 86.383647 
L 317.567869 86.383647 
L 317.567869 85.620492 
L 318.514583 85.620492 
L 318.514583 84.857338 
L 319.43327 84.857338 
L 319.43327 84.094183 
L 320.334463 84.094183 
L 320.334463 83.331028 
L 321.223123 83.331028 
L 321.223123 82.567874 
L 322.21819 82.567874 
L 322.21819 81.804719 
L 323.201247 81.804719 
L 323.201247 81.041565 
L 324.240266 81.041565 
L 324.240266 80.27841 
L 325.243484 80.27841 
L 325.243484 79.515256 
L 326.234602 79.515256 
L 326.234602 78.752101 
L 327.280022 78.752101 
L 327.280022 77.988946 
L 328.319292 77.988946 
L 328.319292 77.225792 
L 329.323933 77.225792 
L 329.323933 76.462637 
L 330.320485 76.462637 
L 330.320485 75.699483 
L 331.287777 75.699483 
L 331.287777 74.936328 
L 332.245527 74.936328 
L 332.245527 74.173174 
L 333.252108 74.173174 
L 333.252108 73.410019 
L 334.23955 73.410019 
L 334.23955 72.646864 
L 335.511076 72.646864 
L 335.511076 71.88371 
L 336.741619 71.88371 
L 336.741619 71.120555 
L 337.918734 71.120555 
L 337.918734 70.357401 
L 339.164641 70.357401 
L 339.164641 69.594246 
L 340.424623 69.594246 
L 340.424623 68.831091 
L 341.974449 68.831091 
L 341.974449 68.067937 
L 343.646429 68.067937 
L 343.646429 67.304782 
L 345.528201 67.304782 
L 345.528201 66.541628 
L 347.29917 66.541628 
L 347.29917 65.778473 
L 348.991588 65.778473 
L 348.991588 65.015319 
L 350.861087 65.015319 
L 350.861087 64.252164 
L 352.756287 64.252164 
L 352.756287 63.489009 
L 354.596177 63.489009 
L 354.596177 62.725855 
L 357.424649 62.725855 
L 357.424649 61.9627 
L 360.14252 61.9627 
L 360.14252 61.199546 
L 362.913313 61.199546 
L 362.913313 60.436391 
L 365.625629 60.436391 
L 365.625629 59.673237 
L 368.404744 59.673237 
L 368.404744 58.910082 
L 371.236789 58.910082 
L 371.236789 58.146927 
L 374.897447 58.146927 
L 374.897447 57.383773 
L 378.884442 57.383773 
L 378.884442 56.620618 
L 382.352098 56.620618 
L 382.352098 55.857464 
L 386.824103 55.857464 
L 386.824103 55.094309 
L 390.81905 55.094309 
L 390.81905 54.331155 
L 394.847681 54.331155 
L 394.847681 53.568 
L 398.487273 53.568 
L 398.487273 53.568 
" clip-path="url(#p6ac6ddf3d9)" style="fill: none; stroke: #ff7f0e; stroke-width: 1.5; stroke-linecap: square"/>
   </g>
   <g id="line2d_63">
    <path d="M 73.832727 295.488 
L 73.832727 294.724845 
L 93.816576 294.724845 
L 93.816576 293.961691 
L 105.172393 293.961691 
L 105.172393 293.198536 
L 113.074134 293.198536 
L 113.074134 292.435382 
L 119.140083 292.435382 
L 119.140083 291.672227 
L 124.217087 291.672227 
L 124.217087 290.909073 
L 128.512888 290.909073 
L 128.512888 290.145918 
L 132.203773 290.145918 
L 132.203773 289.382763 
L 135.439266 289.382763 
L 135.439266 288.619609 
L 138.319499 288.619609 
L 138.319499 287.856454 
L 140.968494 287.856454 
L 140.968494 287.0933 
L 143.423467 287.0933 
L 143.423467 286.330145 
L 145.668434 286.330145 
L 145.668434 285.566991 
L 147.736508 285.566991 
L 147.736508 284.803836 
L 149.653542 284.803836 
L 149.653542 284.040681 
L 151.511971 284.040681 
L 151.511971 283.277527 
L 153.24753 283.277527 
L 153.24753 282.514372 
L 154.875465 282.514372 
L 154.875465 281.751218 
L 156.408347 281.751218 
L 156.408347 280.988063 
L 157.856666 280.988063 
L 157.856666 280.224909 
L 159.256 280.224909 
L 159.256 279.461754 
L 160.609917 279.461754 
L 160.609917 278.698599 
L 161.897439 278.698599 
L 161.897439 277.935445 
L 163.124777 277.935445 
L 163.124777 277.17229 
L 164.297305 277.17229 
L 164.297305 276.409136 
L 165.419711 276.409136 
L 165.419711 275.645981 
L 166.496105 275.645981 
L 166.496105 274.882826 
L 167.530112 274.882826 
L 167.530112 274.119672 
L 168.524942 274.119672 
L 168.524942 273.356517 
L 169.519634 273.356517 
L 169.519634 272.593363 
L 170.478021 272.593363 
L 170.478021 271.830208 
L 171.40266 271.830208 
L 171.40266 271.067054 
L 172.295847 271.067054 
L 172.295847 270.303899 
L 173.159652 270.303899 
L 173.159652 269.540744 
L 174.011184 269.540744 
L 174.011184 268.77759 
L 174.850729 268.77759 
L 174.850729 268.014435 
L 175.664264 268.014435 
L 175.664264 267.251281 
L 176.453352 267.251281 
L 176.453352 266.488126 
L 177.24637 266.488126 
L 177.24637 265.724972 
L 178.016141 265.724972 
L 178.016141 264.961817 
L 178.763989 264.961817 
L 178.763989 264.198662 
L 179.515847 264.198662 
L 179.515847 263.435508 
L 180.246777 263.435508 
L 180.246777 262.672353 
L 180.957913 262.672353 
L 180.957913 261.909199 
L 181.650298 261.909199 
L 181.650298 261.146044 
L 182.347087 261.146044 
L 182.347087 260.38289 
L 183.025864 260.38289 
L 183.025864 259.619735 
L 183.687539 259.619735 
L 183.687539 258.85658 
L 184.33295 258.85658 
L 184.33295 258.093426 
L 184.98295 258.093426 
L 184.98295 257.330271 
L 185.617249 257.330271 
L 185.617249 256.567117 
L 186.236589 256.567117 
L 186.236589 255.803962 
L 186.841657 255.803962 
L 186.841657 255.040808 
L 187.433099 255.040808 
L 187.433099 254.277653 
L 188.029384 254.277653 
L 188.029384 253.514498 
L 188.61243 253.514498 
L 188.61243 252.751344 
L 189.182812 252.751344 
L 189.182812 251.988189 
L 189.741069 251.988189 
L 189.741069 251.225035 
L 190.287704 251.225035 
L 190.287704 250.46188 
L 190.823193 250.46188 
L 190.823193 249.698726 
L 191.379451 249.698726 
L 191.379451 248.935571 
L 191.924171 248.935571 
L 191.924171 248.172416 
L 192.457821 248.172416 
L 192.457821 247.409262 
L 192.995633 247.409262 
L 192.995633 246.646107 
L 193.522653 246.646107 
L 193.522653 245.882953 
L 194.039303 245.882953 
L 194.039303 245.119798 
L 194.545985 245.119798 
L 194.545985 244.356644 
L 195.043076 244.356644 
L 195.043076 243.593489 
L 195.537644 243.593489 
L 195.537644 242.830334 
L 196.029658 242.830334 
L 196.029658 242.06718 
L 196.512623 242.06718 
L 196.512623 241.304025 
L 196.986866 241.304025 
L 196.986866 240.540871 
L 197.452697 240.540871 
L 197.452697 239.777716 
L 197.916539 239.777716 
L 197.916539 239.014562 
L 198.378354 239.014562 
L 198.378354 238.251407 
L 198.844026 238.251407 
L 198.844026 237.488252 
L 199.301585 237.488252 
L 199.301585 236.725098 
L 199.751307 236.725098 
L 199.751307 235.961943 
L 200.227162 235.961943 
L 200.227162 235.198789 
L 200.694549 235.198789 
L 200.694549 234.435634 
L 201.153762 234.435634 
L 201.153762 233.672479 
L 201.622833 233.672479 
L 201.622833 232.909325 
L 202.087159 232.909325 
L 202.087159 232.14617 
L 202.553696 232.14617 
L 202.553696 231.383016 
L 203.022186 231.383016 
L 203.022186 230.619861 
L 203.482464 230.619861 
L 203.482464 229.856707 
L 203.944561 229.856707 
L 203.944561 229.093552 
L 204.398668 229.093552 
L 204.398668 228.330397 
L 204.854471 228.330397 
L 204.854471 227.567243 
L 205.307124 227.567243 
L 205.307124 226.804088 
L 205.756656 226.804088 
L 205.756656 226.040934 
L 206.198622 226.040934 
L 206.198622 225.277779 
L 206.642068 225.277779 
L 206.642068 224.514625 
L 207.078151 224.514625 
L 207.078151 223.75147 
L 207.507111 223.75147 
L 207.507111 222.988315 
L 207.937548 222.988315 
L 207.937548 222.225161 
L 208.361044 222.225161 
L 208.361044 221.462006 
L 208.777819 221.462006 
L 208.777819 220.698852 
L 209.188083 220.698852 
L 209.188083 219.935697 
L 209.599894 219.935697 
L 209.599894 219.172543 
L 210.005347 219.172543 
L 210.005347 218.409388 
L 210.404636 218.409388 
L 210.404636 217.646233 
L 210.797944 217.646233 
L 210.797944 216.883079 
L 211.192845 216.883079 
L 211.192845 216.119924 
L 211.581895 216.119924 
L 211.581895 215.35677 
L 211.972446 215.35677 
L 211.972446 214.593615 
L 212.357273 214.593615 
L 212.357273 213.830461 
L 212.736543 213.830461 
L 212.736543 213.067306 
L 213.124158 213.067306 
L 213.124158 212.304151 
L 213.506135 212.304151 
L 213.506135 211.540997 
L 213.882635 211.540997 
L 213.882635 210.777842 
L 214.253814 210.777842 
L 214.253814 210.014688 
L 214.61982 210.014688 
L 214.61982 209.251533 
L 215.003192 209.251533 
L 215.003192 208.488379 
L 215.382098 208.488379 
L 215.382098 207.725224 
L 215.757687 207.725224 
L 215.757687 206.962069 
L 216.134107 206.962069 
L 216.134107 206.198915 
L 216.517286 206.198915 
L 216.517286 205.43576 
L 216.948467 205.43576 
L 216.948467 204.672606 
L 217.390211 204.672606 
L 217.390211 203.909451 
L 217.859093 203.909451 
L 217.859093 203.146297 
L 218.325386 203.146297 
L 218.325386 202.383142 
L 218.805691 202.383142 
L 218.805691 201.619987 
L 219.29367 201.619987 
L 219.29367 200.856833 
L 219.77808 200.856833 
L 219.77808 200.093678 
L 220.258954 200.093678 
L 220.258954 199.330524 
L 220.733751 199.330524 
L 220.733751 198.567369 
L 221.22284 198.567369 
L 221.22284 197.804215 
L 221.777223 197.804215 
L 221.777223 197.04106 
L 222.344337 197.04106 
L 222.344337 196.277905 
L 223.003435 196.277905 
L 223.003435 195.514751 
L 223.646394 195.514751 
L 223.646394 194.751596 
L 224.327859 194.751596 
L 224.327859 193.988442 
L 224.996458 193.988442 
L 224.996458 193.225287 
L 225.678293 193.225287 
L 225.678293 192.462132 
L 226.35948 192.462132 
L 226.35948 191.698978 
L 227.031537 191.698978 
L 227.031537 190.935823 
L 227.702603 190.935823 
L 227.702603 190.172669 
L 228.36464 190.172669 
L 228.36464 189.409514 
L 229.021651 189.409514 
L 229.021651 188.64636 
L 229.724774 188.64636 
L 229.724774 187.883205 
L 230.416676 187.883205 
L 230.416676 187.12005 
L 231.14968 187.12005 
L 231.14968 186.356896 
L 231.916579 186.356896 
L 231.916579 185.593741 
L 232.720424 185.593741 
L 232.720424 184.830587 
L 233.544631 184.830587 
L 233.544631 184.067432 
L 234.444628 184.067432 
L 234.444628 183.304278 
L 235.351666 183.304278 
L 235.351666 182.541123 
L 236.386148 182.541123 
L 236.386148 181.777968 
L 237.468572 181.777968 
L 237.468572 181.014814 
L 238.513368 181.014814 
L 238.513368 180.251659 
L 239.979362 180.251659 
L 239.979362 179.488505 
L 241.414663 179.488505 
L 241.414663 178.72535 
L 242.819958 178.72535 
L 242.819958 177.962196 
L 244.438981 177.962196 
L 244.438981 177.199041 
L 245.963959 177.199041 
L 245.963959 176.435886 
L 247.465681 176.435886 
L 247.465681 175.672732 
L 249.356328 175.672732 
L 249.356328 174.909577 
L 251.296396 174.909577 
L 251.296396 174.146423 
L 253.410719 174.146423 
L 253.410719 173.383268 
L 255.455986 173.383268 
L 255.455986 172.620114 
L 257.520558 172.620114 
L 257.520558 171.856959 
L 259.482837 171.856959 
L 259.482837 171.093804 
L 262.170724 171.093804 
L 262.170724 170.33065 
L 264.76126 170.33065 
L 264.76126 169.567495 
L 267.213378 169.567495 
L 267.213378 168.804341 
L 269.485298 168.804341 
L 269.485298 168.041186 
L 271.805214 168.041186 
L 271.805214 167.278032 
L 273.965863 167.278032 
L 273.965863 166.514877 
L 276.142365 166.514877 
L 276.142365 165.751722 
L 278.684489 165.751722 
L 278.684489 164.988568 
L 281.656619 164.988568 
L 281.656619 164.225413 
L 284.479725 164.225413 
L 284.479725 163.462259 
L 287.933051 163.462259 
L 287.933051 162.699104 
L 291.175928 162.699104 
L 291.175928 161.93595 
L 294.194974 161.93595 
L 294.194974 161.172795 
L 297.300189 161.172795 
L 297.300189 160.40964 
L 300.641556 160.40964 
L 300.641556 159.646486 
L 304.641652 159.646486 
L 304.641652 158.883331 
L 308.999377 158.883331 
L 308.999377 158.120177 
L 313.070941 158.120177 
L 313.070941 157.357022 
L 319.592338 157.357022 
L 319.592338 156.593868 
L 324.950742 156.593868 
L 324.950742 155.830713 
L 329.428022 155.830713 
L 329.428022 155.067558 
L 333.349386 155.067558 
L 333.349386 154.304404 
L 336.91041 154.304404 
L 336.91041 153.541249 
L 340.300466 153.541249 
L 340.300466 152.778095 
L 343.335423 152.778095 
L 343.335423 152.01494 
L 347.579347 152.01494 
L 347.579347 151.251785 
L 352.131891 151.251785 
L 352.131891 150.488631 
L 359.031291 150.488631 
L 359.031291 149.725476 
L 366.312178 149.725476 
L 366.312178 149.725476 
" clip-path="url(#p6ac6ddf3d9)" style="fill: none; stroke: #2ca02c; stroke-width: 1.5; stroke-linecap: square"/>
   </g>
   <g id="patch_3">
    <path d="M 57.6 307.584 
L 57.6 41.472 
" style="fill: none; stroke: #000000; stroke-width: 0.8; stroke-linejoin: miter; stroke-linecap: square"/>
   </g>
   <g id="patch_4">
    <path d="M 414.72 307.584 
L 414.72 41.472 
" style="fill: none; stroke: #000000; stroke-width: 0.8; stroke-linejoin: miter; stroke-linecap: square"/>
   </g>
   <g id="patch_5">
    <path d="M 57.6 307.584 
L 414.72 307.584 
" style="fill: none; stroke: #000000; stroke-width: 0.8; stroke-linejoin: miter; stroke-linecap: square"/>
   </g>
   <g id="patch_6">
    <path d="M 57.6 41.472 
L 414.72 41.472 
" style="fill: none; stroke: #000000; stroke-width: 0.8; stroke-linejoin: miter; stroke-linecap: square"/>
   </g>
   <g id="legend_1">
    <g id="patch_7">
     <path d="M 64.6 93.506375 
L 149.353125 93.506375 
Q 151.353125 93.506375 151.353125 91.506375 
L 151.353125 48.472 
Q 151.353125 46.472 149.353125 46.472 
L 64.6 46.472 
Q 62.6 46.472 62.6 48.472 
L 62.6 91.506375 
Q 62.6 93.506375 64.6 93.506375 
z
" style="fill: #ffffff; opacity: 0.8; stroke: #cccccc; stroke-linejoin: miter"/>
    </g>
    <g id="line2d_64">
     <path d="M 66.6 54.570438 
L 66.6 54.570438 
L 76.6 54.570438 
L 76.6 54.570438 
L 86.6 54.570438 
" style="fill: none; stroke: #1f77b4; stroke-width: 1.5; stroke-linecap: square"/>
    </g>
    <g id="text_16">
     <!-- ganak -->
     <g transform="translate(94.6 58.070438) scale(0.1 -0.1)">
      <defs>
       <path id="DejaVuSans-6b" d="M 581 4863 
L 1159 4863 
L 1159 1991 
L 2875 3500 
L 3609 3500 
L 1753 1863 
L 3688 0 
L 2938 0 
L 1159 1709 
L 1159 0 
L 581 0 
L 581 4863 
z
" transform="scale(0.015625)"/>
      </defs>
      <use xlink:href="#DejaVuSans-67"/>
      <use xlink:href="#DejaVuSans-61" x="63.476562"/>
      <use xlink:href="#DejaVuSans-6e" x="124.755859"/>
      <use xlink:href="#DejaVuSans-61" x="188.134766"/>
      <use xlink:href="#DejaVuSans-6b" x="249.414062"/>
     </g>
    </g>
    <g id="line2d_65">
     <path d="M 66.6 69.248563 
L 66.6 69.248563 
L 76.6 69.248563 
L 76.6 69.248563 
L 86.6 69.248563 
" style="fill: none; stroke: #ff7f0e; stroke-width: 1.5; stroke-linecap: square"/>
    </g>
    <g id="text_17">
     <!-- projMC -->
     <g transform="translate(94.6 72.748563) scale(0.1 -0.1)">
      <defs>
       <path id="DejaVuSans-70" d="M 1159 525 
L 1159 -1331 
L 581 -1331 
L 581 3500 
L 1159 3500 
L 1159 2969 
Q 1341 3281 1617 3432 
Q 1894 3584 2278 3584 
Q 2916 3584 3314 3078 
Q 3713 2572 3713 1747 
Q 3713 922 3314 415 
Q 2916 -91 2278 -91 
Q 1894 -91 1617 61 
Q 1341 213 1159 525 
z
M 3116 1747 
Q 3116 2381 2855 2742 
Q 2594 3103 2138 3103 
Q 1681 3103 1420 2742 
Q 1159 2381 1159 1747 
Q 1159 1113 1420 752 
Q 1681 391 2138 391 
Q 2594 391 2855 752 
Q 3116 1113 3116 1747 
z
" transform="scale(0.015625)"/>
       <path id="DejaVuSans-6a" d="M 603 3500 
L 1178 3500 
L 1178 -63 
Q 1178 -731 923 -1031 
Q 669 -1331 103 -1331 
L -116 -1331 
L -116 -844 
L 38 -844 
Q 366 -844 484 -692 
Q 603 -541 603 -63 
L 603 3500 
z
M 603 4863 
L 1178 4863 
L 1178 4134 
L 603 4134 
L 603 4863 
z
" transform="scale(0.015625)"/>
       <path id="DejaVuSans-4d" d="M 628 4666 
L 1569 4666 
L 2759 1491 
L 3956 4666 
L 4897 4666 
L 4897 0 
L 4281 0 
L 4281 4097 
L 3078 897 
L 2444 897 
L 1241 4097 
L 1241 0 
L 628 0 
L 628 4666 
z
" transform="scale(0.015625)"/>
       <path id="DejaVuSans-43" d="M 4122 4306 
L 4122 3641 
Q 3803 3938 3442 4084 
Q 3081 4231 2675 4231 
Q 1875 4231 1450 3742 
Q 1025 3253 1025 2328 
Q 1025 1406 1450 917 
Q 1875 428 2675 428 
Q 3081 428 3442 575 
Q 3803 722 4122 1019 
L 4122 359 
Q 3791 134 3420 21 
Q 3050 -91 2638 -91 
Q 1578 -91 968 557 
Q 359 1206 359 2328 
Q 359 3453 968 4101 
Q 1578 4750 2638 4750 
Q 3056 4750 3426 4639 
Q 3797 4528 4122 4306 
z
" transform="scale(0.015625)"/>
      </defs>
      <use xlink:href="#DejaVuSans-70"/>
      <use xlink:href="#DejaVuSans-72" x="63.476562"/>
      <use xlink:href="#DejaVuSans-6f" x="102.339844"/>
      <use xlink:href="#DejaVuSans-6a" x="163.521484"/>
      <use xlink:href="#DejaVuSans-4d" x="191.304688"/>
      <use xlink:href="#DejaVuSans-43" x="277.583984"/>
     </g>
    </g>
    <g id="line2d_66">
     <path d="M 66.6 83.926688 
L 66.6 83.926688 
L 76.6 83.926688 
L 76.6 83.926688 
L 86.6 83.926688 
" style="fill: none; stroke: #2ca02c; stroke-width: 1.5; stroke-linecap: square"/>
    </g>
    <g id="text_18">
     <!-- schlandals -->
     <g transform="translate(94.6 87.426688) scale(0.1 -0.1)">
      <defs>
       <path id="DejaVuSans-68" d="M 3513 2113 
L 3513 0 
L 2938 0 
L 2938 2094 
Q 2938 2591 2744 2837 
Q 2550 3084 2163 3084 
Q 1697 3084 1428 2787 
Q 1159 2491 1159 1978 
L 1159 0 
L 581 0 
L 581 4863 
L 1159 4863 
L 1159 2956 
Q 1366 3272 1645 3428 
Q 1925 3584 2291 3584 
Q 2894 3584 3203 3211 
Q 3513 2838 3513 2113 
z
" transform="scale(0.015625)"/>
      </defs>
      <use xlink:href="#DejaVuSans-73"/>
      <use xlink:href="#DejaVuSans-63" x="52.099609"/>
      <use xlink:href="#DejaVuSans-68" x="107.080078"/>
      <use xlink:href="#DejaVuSans-6c" x="170.458984"/>
      <use xlink:href="#DejaVuSans-61" x="198.242188"/>
      <use xlink:href="#DejaVuSans-6e" x="259.521484"/>
      <use xlink:href="#DejaVuSans-64" x="322.900391"/>
      <use xlink:href="#DejaVuSans-61" x="386.376953"/>
      <use xlink:href="#DejaVuSans-6c" x="447.65625"/>
      <use xlink:href="#DejaVuSans-73" x="475.439453"/>
     </g>
    </g>
   </g>
  </g>
 </g>
 <defs>
  <clipPath id="p6ac6ddf3d9">
   <rect x="57.6" y="41.472" width="357.12" height="266.112"/>
  </clipPath>
 </defs>
</svg>
